<?xml version="1.0" encoding="UTF-8"?>
<svg id="_레이어_1" data-name=" 레이어 1" xmlns="http://www.w3.org/2000/svg" version="1.1" viewBox="0 0 725.3 296">
  <defs>
    <style>
      .cls-1 {
        fill: #ffce00;
      }

      .cls-1, .cls-2 {
        stroke: #000;
        stroke-linecap: round;
        stroke-linejoin: round;
        stroke-width: 11.4px;
      }

      .cls-2 {
        fill: #ff7900;
      }

      .cls-3 {
        fill: #fff;
        stroke-width: 0px;
      }
    </style>
  </defs>
  <g>
    <polygon class="cls-1" points="56.4 28.3 28.7 163.2 108.6 163.2 81.7 289.2 212.2 110.7 120.4 110.7 136.3 28.3 56.4 28.3"/>
    <polygon class="cls-1" points="36 5.3 8.3 140.3 88.2 140.3 61.3 266.2 191.8 87.7 100 87.7 115.9 5.3 36 5.3"/>
    <polygon class="cls-2" points="100 87.7 115.9 5.3 136.3 28.3 124.9 87.7 100 87.7"/>
    <polygon class="cls-2" points="88.2 140.3 8.3 140.3 28.7 163.2 83.3 163.2 88.2 140.3"/>
    <polygon class="cls-2" points="212.2 110.7 191.8 87.7 61.3 266.2 81.7 289.2 212.2 110.7"/>
  </g>
  <g>
    <path class="cls-3" d="M276.7,94.1h31c7.2,0,12.6,1.9,16.2,5.7s5.4,9.1,5.4,16-1.1,8.1-3.4,11.2c-2.2,3.1-5.4,5.4-9.5,6.8,1,.9,1.8,1.8,2.5,2.8.6,1,1.3,2.3,2.1,4.1l7.8,18.1h-14l-7.6-17.4c-.7-1.5-1.4-2.6-2.3-3.2-.8-.6-2.2-.9-4-.9h-10.6v21.4h-13.5v-64.6h-.1ZM304.2,126.1c3.7,0,6.5-.8,8.4-2.5,1.9-1.6,2.9-4.3,2.9-7.9s-.9-6.3-2.6-7.9c-1.7-1.7-4.4-2.5-7.9-2.5h-14.7v20.8h13.9Z"/>
    <path class="cls-3" d="M339.3,153.4c-4.7-4.2-7.1-10.4-7.1-18.6s2.1-13.8,6.2-18.2c4.1-4.3,10.1-6.5,18-6.5s12.8,1.9,16.8,5.7,6,8.8,6,15.2v8.6h-34.4c.7,3.7,2.4,6.3,5.1,7.7,2.7,1.5,6.7,2.2,12,2.2s5.1-.2,7.8-.7c2.6-.5,4.9-1.1,6.8-1.8v9.6c-4.4,2-10.2,3-17.4,3s-15-2.1-19.7-6.3h0ZM367.3,131.3v-2.6c0-5.9-3.5-8.8-10.5-8.8s-7.5.9-9.3,2.7-2.7,4.7-2.7,8.8h22.6-.1Z"/>
    <path class="cls-3" d="M395.3,155.5c-2.7-2.8-4-6.8-4-11.8v-22.1h-6.7v-10.4h6.7v-10.2l13.5-4v14.2h12l-.8,10.4h-11.2v21.2c0,2.5.6,4.3,1.8,5.3,1.2,1,3.1,1.5,5.7,1.5s3.8-.3,5.8-1v9.3c-3,1.2-6.6,1.8-10.6,1.8s-9.5-1.4-12.1-4.2h0Z"/>
    <path class="cls-3" d="M425.5,111.1h12.5l.6,4.9c2.2-1.4,4.9-2.6,8-3.7,3.1-1.1,6.3-1.8,9.3-2.2v10.2c-2.9.4-6,1.1-9.2,2.1-3.3,1-5.9,2-7.7,3.1v33.2h-13.5v-47.6h0Z"/>
    <path class="cls-3" d="M456.9,134.9c0-8,2.1-14.2,6.4-18.4,4.2-4.2,10.7-6.4,19.4-6.4s15.2,2.1,19.5,6.4c4.3,4.2,6.4,10.4,6.4,18.4,0,16.5-8.6,24.8-25.9,24.8s-25.8-8.3-25.8-24.8h0ZM492.1,145.2c1.8-2,2.8-5.4,2.8-10.2s-.9-8.2-2.8-10.2c-1.8-2-5-3-9.4-3s-7.4,1-9.3,3c-1.8,2-2.8,5.4-2.8,10.2s.9,8.2,2.8,10.2c1.8,2,4.9,3,9.3,3s7.5-1,9.4-3Z"/>
    <path class="cls-3" d="M554.1,94.1h32.7c6.4,0,11.2,1.5,14.4,4.5s4.8,7.3,4.8,12.9-.7,6.2-2,8.6c-1.3,2.4-3.1,4.2-5.5,5.5,3.2,1,5.7,2.6,7.3,4.9,1.7,2.2,2.5,5.4,2.5,9.4,0,6.2-1.8,10.9-5.3,14.1-3.5,3.2-8.6,4.8-15.2,4.8h-33.9v-64.6h.2ZM584.3,120.9c6.1,0,9.1-2.7,9.1-8.2s-.8-5.1-2.3-6.5-4.1-2.1-7.9-2.1h-15.7v16.8h16.8ZM584.8,148.8c3.5,0,6-.7,7.6-2.2,1.6-1.4,2.4-3.9,2.4-7.4s-.8-5.1-2.5-6.5c-1.6-1.4-4.4-2.1-8.4-2.1h-16.3v18.1h17.2Z"/>
    <path class="cls-3" d="M615.9,134.9c0-8,2.1-14.2,6.4-18.4,4.2-4.2,10.7-6.4,19.4-6.4s15.2,2.1,19.5,6.4c4.3,4.2,6.4,10.4,6.4,18.4,0,16.5-8.6,24.8-25.9,24.8s-25.8-8.3-25.8-24.8h0ZM651.1,145.2c1.8-2,2.8-5.4,2.8-10.2s-.9-8.2-2.8-10.2c-1.8-2-5-3-9.4-3s-7.4,1-9.3,3c-1.8,2-2.8,5.4-2.8,10.2s.9,8.2,2.8,10.2c1.8,2,4.9,3,9.3,3s7.5-1,9.4-3Z"/>
    <path class="cls-3" d="M673.7,174.8v-9.5c1.9.7,3.9,1,6.1,1s4.8-.6,6.3-1.8,3.1-3.4,4.7-6.5l-21.3-46.8h14.1l13.9,32.3,13.8-32.3h14l-18.8,44.2c-2.9,7-6.1,12.3-9.5,15.8s-7.8,5.2-13.2,5.2-7.6-.5-10.2-1.6h.1Z"/>
  </g>
</svg>