<?xml version="1.0" encoding="UTF-8"?>
<svg id="_레이어_1" data-name=" 레이어 1" xmlns="http://www.w3.org/2000/svg" version="1.1" viewBox="0 0 469.6 223.3">
  <defs>
    <style>
      .cls-1 {
        fill: none;
      }

      .cls-1, .cls-2 {
        stroke: #1c1c1c;
        stroke-linecap: round;
        stroke-linejoin: round;
        stroke-width: 11.1px;
      }

      .cls-2, .cls-3 {
        fill: #fff;
      }

      .cls-3, .cls-4 {
        stroke-width: 0px;
      }

      .cls-4 {
        fill: #c7ebff;
      }
    </style>
  </defs>
  <path class="cls-3" d="M132.5,114.7c-7.1-4.2-15.2-6.6-23.9-6.6-25,0-45.7,20-48.6,45.8h-25.3c-15.2,0-27.5,13.1-27.5,29.3s12.3,29.3,27.5,29.3h373.8c27.1,0,49-23.3,49-52.2s-22-52.2-49-52.2-7.9.6-11.7,1.5c-10.6-26.6-35.3-45.3-64.1-45.3s-13,1-19.1,2.9c.4,0-9.4-16.5-10.4-17.9-4.1-5.6-8.7-10.8-13.9-15.5-7.5-6.8-16.2-12.4-25.5-16.4-9.2-3.9-19-6.2-29-6.6-24.1-1-47.7,8.5-65.4,24.6-8.2,7.4-15.2,16.1-21.1,25.4-9.5,15.1-15.7,32.4-15.7,50.4v4.5"/>
  <path class="cls-2" d="M134,116.7"/>
  <path class="cls-4" d="M118.2,131.7s-33.9,3.2-47.6,29.1c-.9,1.6-3.3,1.1-3.4-.7-.8-9.8.5-28.9,19.3-40.4,0,0,16.4-12,35.4-4.6,5.9,2.3,11.3,5.3,15.2,10.4,1.7,2.3,0,5.6-2.7,5.5-4.9,0-11.7,0-16.2.7h0Z"/>
  <path class="cls-4" d="M257.3,60.7s-84,7.4-117.9,68.1c-2.2,3.8-8.2,2.5-8.5-1.7-2-23,1.3-67.7,47.7-94.6,0,0,40.6-28,87.6-10.7,14.7,5.3,27.9,12.4,37.7,24.4,4.2,5.3.2,13.1-6.7,12.9-12-.2-29,0-40.1,1.7h.2Z"/>
  <path class="cls-1" d="M134,115.8c-7.1-4.2-15.2-6.6-23.9-6.6-25,0-45.7,20-48.6,45.8h-25.3c-15.2,0-27.5,13.1-27.5,29.3s12.3,29.3,27.5,29.3h373.8c27.1,0,49-23.3,49-52.2s-22-52.2-49-52.2-7.9.6-11.7,1.5c-10.6-26.6-35.3-45.3-64.1-45.3s-13,1-19.1,2.9c.4,0-9.4-16.5-10.4-17.9-4.1-5.6-8.7-10.8-13.9-15.5-7.5-6.8-16.2-12.4-25.5-16.4-9.2-3.9-19-6.2-29-6.6-24.1-1-47.7,8.5-65.4,24.6-8.2,7.4-15.2,16.1-21.1,25.4-9.5,15.1-15.7,32.4-15.7,50.4v4.5"/>
</svg>