<?xml version="1.0" encoding="UTF-8"?>
<svg id="_레이어_1" data-name="레이어 1" xmlns="http://www.w3.org/2000/svg" viewBox="0 0 1294.07 1231.32">
  <defs>
    <style>
      .cls-1 {
        fill: #262626;
      }

      .cls-1, .cls-2, .cls-3, .cls-4, .cls-5, .cls-6, .cls-7, .cls-8, .cls-9, .cls-10, .cls-11 {
        stroke-miterlimit: 10;
        stroke-width: 2.49px;
      }

      .cls-1, .cls-2, .cls-3, .cls-4, .cls-5, .cls-7, .cls-8, .cls-9, .cls-10, .cls-11 {
        stroke: #000;
      }

      .cls-2 {
        fill: none;
      }

      .cls-3 {
        fill: #000;
      }

      .cls-4, .cls-6 {
        fill: #2b2b2b;
      }

      .cls-5 {
        fill: #9462e8;
      }

      .cls-6 {
        stroke: #1a1a1a;
      }

      .cls-7 {
        fill: #057eba;
      }

      .cls-12 {
        fill: #266894;
        stroke-width: 0px;
      }

      .cls-8 {
        fill: #303030;
      }

      .cls-9 {
        fill: #ff7122;
      }

      .cls-10 {
        fill: #fff;
      }

      .cls-11 {
        fill: #fdd227;
      }
    </style>
  </defs>
  <ellipse class="cls-12" cx="680.95" cy="1088.4" rx="508.43" ry="77.34"/>
  <g>
    <path class="cls-2" d="M616.19,854.98c-2.67-3.03-5.11-6.29-7.34-9.71l-93.64,72.12c26.01-3.7,73.9-15.42,112.4-52.13-4.02-2.85-7.85-6.23-11.42-10.28Z"/>
    <path class="cls-2" d="M355.55,754.25c-1.98-.6-4.03-1.25-6.1-1.92.24,1.79.31,3.63.17,5.5-.06.77-5.09,79.07,39.14,128.28,9.24,10.28,20.18,18.64,32.7,25.1,10.67-16.1,31.33-27.31,50.74-19.32,2.98,1.23,5.81,2.93,8.46,4.97l113.32-87.27c-.83-3.47-1.53-6.92-2.07-10.33-34.5-.99-76.4-6.6-110.76-24.28-10.62-.84-21.99-1.96-34.17-3.41-27.89-3.32-60.56-7.98-91.42-17.31Z"/>
    <path class="cls-2" d="M412.32,182.3c2.98.55,6.37,2.32,9.46,6.77,1.67,2.39,3.3,4.8,4.93,7.21,3.11,4.59,6.34,9.34,9.71,13.86,5.63,7.53,10.87,14.22,15.89,20.31l-2.7-66.81c-13,5.75-25.49,12.01-37.29,18.66Z"/>
    <path class="cls-9" d="M681.11,546.91c8.25,1.44,16.42,3.88,24.28,7.25,10.87,4.66,20.91,10.95,29.76,18.55,38.62-23.15,65.42-60.42,79.84-110.98-1.36.04-2.67.07-3.9.07-7.6,0-12.67-.71-12.86-.73-2.12-.32-3.58-2.29-3.27-4.41.31-2.12,2.32-3.58,4.41-3.28,2.35.34,51.14,7.06,70.39-25.47-2.77,1.04-5.59,1.86-8.45,2.22-1.27.16-2.54.24-3.78.24-6.72,0-12.91-2.31-18.09-6.78-4.33-3.73-6.76-8.75-6.5-13.43.07-1.34.39-2.95,1.2-4.63-1.46-.12-2.93-.32-4.4-.68-9.89-2.4-18.89-10.91-16.96-22.51.3-1.78.82-3.47,1.47-5.09-2.54-1.31-4.78-2.89-6.72-4.69.02,4.91-.87,10.47-3.29,16.78-6.62,17.27-21.44,22.03-33.83,22.03-5.04,0-9.69-.79-13.21-1.84-2.05-.61-3.22-2.77-2.61-4.83.61-2.05,2.78-3.24,4.82-2.62,1.16.35,28.52,8.09,37.58-15.53,7.25-18.9-1.31-29.37-5.4-33.06-6.33,4.22-13.14,5.07-17.31,5.07-2.25,0-3.73-.23-3.94-.26-2.12-.35-3.55-2.34-3.21-4.46.35-2.11,2.33-3.57,4.44-3.21.63.09,14.94,2.13,22.43-10.85.91-1.58,2.75-2.2,4.43-1.72,1.7.24,3.11,1.55,3.32,3.34.81,7,4.12,23.91,17.48,29.66,10.41,4.48,22.43.21,27.37-9.73,3.71-7.45,1.46-10.89-3.45-18.41-5.01-7.67-5.14-15.09-5.25-22.27-.08-5.04-.16-9.81-1.9-14.37-2.15-5.62-7.38-8.34-15.13-10.91-11.41-3.77-24.58-4.09-37.09-.89-25.57,6.54-46.43,29.3-53.16,57.99-14.79,63.1,40.45,88.45,42.81,89.5,1.96.87,2.85,3.16,1.98,5.12-.64,1.45-2.06,2.31-3.55,2.31-.52,0-1.06-.11-1.57-.33-.17-.07-4.76-2.18-11.07-6.49-10.22,37.72-28.75,64.7-55.25,80.21-32.19,18.84-70.33,18.53-95.89,15.21.96.65,1.86,1.34,2.87,1.96,8.5,5.25,17.93,7.55,27.91,9.27,14.02-3.84,28.46-4.74,42.3-2.33Z"/>
    <path class="cls-9" d="M848.42,402.58s0,0,0,0c-.11.05-.22.11-.34.15,0,0,0,0,0,0-1.07.57-2.18,1.09-3.34,1.52-.33.12-.69.17-1.03.27-.24.46-.56.88-1.02,1.2-1.91,1.32-2.92,2.92-3.02,4.78-.14,2.57,1.46,5.63,4.18,7.97,4.72,4.07,10.32,5.74,16.64,4.95,12.19-1.52,24.47-11.82,30.72-20.76,6.97-9.96,11.6-24.27,6.25-33.79-1.88-3.34-5.1-5.92-9.47-7.81-1.22,2.92-2.52,5.58-3.72,7.81-8.53,15.8-21.26,27.74-35.84,33.7Z"/>
    <path class="cls-9" d="M853.53,364.77c-6.08,12.23-19.91,18.15-32.94,14.85-.51,1.24-.92,2.52-1.14,3.83-1.31,7.87,5.23,13.2,11.87,14.81,3.91.95,7.84.82,11.05-.36.97-.36,1.91-.79,2.82-1.28l.65-.36c.16-.09.34-.11.51-.17,12.93-5.44,24.25-16.18,31.94-30.41,4.93-9.12,11.98-26.12,3.82-37.52-1.18-1.65-2.66-3.08-4.41-4.26-4.12-2.79-9.39-3.85-14.69-3.48-.64,3.09-1.59,6.1-2.89,8.9-1.97,4.27-4.82,8.69-8.26,12.91,4.04,6.62,6.43,12.96,1.66,22.56Z"/>
    <path class="cls-9" d="M843.22,303.5c2.23,5.83,2.32,11.52,2.41,17.01.09,5.49.19,10.71,2.53,15.57,2.37-3.18,4.36-6.45,5.83-9.62,6.19-13.38,3.83-32.03-10.78-38.83-6.52-3.03-13.63-2.42-19.97.35.01,0,.02,0,.04.01,8.34,2.76,16.53,6.55,19.95,15.51Z"/>
    <path class="cls-9" d="M323.07,741.15c-.06-.05-.08-.13-.13-.18-2.01-1.16-4-2.38-5.92-3.71-23.03-15.93-11.98-46.15-6.66-60.66,2.58-7.04,5.76-13.85,9.28-20.48-15.05-4.87-33.76-6.37-49.88-5.8-17.75.62-34.33,4.27-49.28,10.84l-1.35.59c-8.7,3.79-20.61,8.99-21.37,18.25-.51,6.15,5.09,8.38,13.69,11.09,1.16.36,2.28.72,3.32,1.08,13.29,4.59,22.81,11.84,28.3,21.53,1.24,2.2,2.16,4.48,2.9,6.42,1.38,3.65,2.48,7.56,3.64,11.7,3.03,10.77,6.15,21.91,14.25,27.62,12.98,9.17,34.41-3.55,44.81-15.04,1.39-1.53,3.75-1.65,5.27-.26,1.53,1.38,1.65,3.74.26,5.27-2.64,2.92-5.88,5.82-9.45,8.52-.6,14-.94,66.36,22.88,116.07,12.52.71,24.48,3.91,34.85,9.72,13.62,7.62,23.27,19.29,29.5,32.95,5.56-1.49,11.15-2.55,16.72-3.12-9.73-6.07-18.44-13.36-26.11-21.89-46.57-51.81-41.3-133.62-41.24-134.44.22-2.92-.33-5.7-1.37-8.24-5.12-1.97-10.28-4.27-15.26-7.02-.59-.14-1.17-.38-1.65-.82Z"/>
    <path class="cls-4" d="M324.72,741.97c-.6-.33-1.19-.66-1.78-1,.05.06.08.13.13.18.48.44,1.06.68,1.65.82Z"/>
    <path class="cls-10" d="M422.54,988.22c-2.59,1.26-5.37,1.92-8.15,1.92-5.59,0-11.13-2.5-14.8-7.28-.39-.51-.66-1.06-.99-1.59-1.42,7.64-3.49,15.12-6.29,22.15-.63,1.59-2.44,2.37-4.03,1.74-1.59-.63-2.37-2.44-1.74-4.03,15.49-38.94,9.59-91.48-27.1-111.99-17.87-9.99-40.86-11.91-63.1-5.26-23.5,7.03-42.8,22.22-52.93,41.68-13.4,25.74-10.65,55.56-5.99,76.03,1.01,4.41,26.49,107.89,172.63,90.3.11-.01.22.03.33.03,15.91-2.99,31.4-9.81,45.09-20.24,15.1-11.5,26.23-26.04,33.1-41.6-1.84.19-3.67.32-5.48.32-25.73,0-48.45-18.67-60.55-42.18Z"/>
    <path class="cls-10" d="M402.99,956.68l9.3-7.16c-.49-9.6.56-20.22,4.87-30.3-7.53.15-15.18,1.17-22.79,3.14,4.25,11.39,6.27,23.89,6.28,36.53.72-.78,1.47-1.54,2.34-2.21Z"/>
    <path class="cls-9" d="M695.59,859c-1.38,0-2.78-.08-4.18-.24-1.17-.14-2.32-.34-3.46-.56-2.82,6.37-7.97,11.51-14.59,14.39-4.38,1.9-9.22,2.86-14.4,2.86-.44,0-.88,0-1.32-.02-8.2-.26-15.86-2.23-22.94-5.82-48.15,46.96-111.22,55.56-131.62,57.11l-5.84,4.5c-.08,1.93-.25,3.81-.47,5.59-.27,2.27-.62,4.53-.96,6.79-.91,5.96-1.78,11.59-1.3,17.3.91,10.93,7.29,20.52,18.95,28.52.08.05.14.13.21.18,20.78-2.16,58.61-8.55,98.25-27.53,43.58-20.88,96.14-60.39,124.78-134.02-1.45.26-2.89.46-4.32.57-3.39,17.55-19.14,30.38-36.78,30.38Z"/>
    <path class="cls-10" d="M469.84,897.64c-3.51-1.44-7.11-2.1-10.71-2.1-14.64,0-29.06,10.9-35.43,24.22-3.9,8.15-5.28,16.88-5.32,25.08l57.18-44.04c-1.84-1.28-3.75-2.35-5.72-3.16Z"/>
    <path class="cls-10" d="M509.94,994.55c-13.28-9.11-20.56-20.25-21.63-33.13-.54-6.44.42-12.7,1.35-18.76.32-2.1.64-4.19.9-6.29l-62.83,48.39c13.13,26.14,40.29,46.04,69.21,37.38,5.64-1.68,13.5-4.61,16.73-10.57,2.99-5.52,1.22-13.63-3.72-17.01Z"/>
    <path class="cls-10" d="M1109.48,1065.51c28.62-19.46,48.46-55.95,49.37-90.8.51-19.39-4.48-46.75-31.15-67-17.39-13.21-38.97-19.3-57.74-16.29-10.53,1.69-19.85,6.22-27.56,13.2,4.28,17,.74,35.92-10.14,49.6-12.01,15.11-32.57,24.14-54.98,24.15h0c-2.08,0-3.77-1.69-3.77-3.77,0-2.08,1.69-3.77,3.77-3.78,20.14,0,38.48-7.97,49.08-21.3,11.75-14.78,13.57-37.65,4.33-54.37-5.5-9.95-15.33-17.56-29.31-22.72-.32,5.58-.7,11.19-1.27,16.89-.04.37-.11.72-.16,1.08.6-.18,1.16-.31,1.76-.5,2.19-.71,4.52.5,5.21,2.69.7,2.18-.5,4.52-2.69,5.21-16.35,5.24-30.84,7.14-43.25,7.14-31.85,0-50.08-12.49-51.12-13.23-1.87-1.32-2.32-3.91-1-5.78,1.32-1.87,3.91-2.32,5.77-1.01.05.04.63.43,1.7,1.03-.03-1.65,0-3.31.17-4.98.42-4.2.81-9.13,1.09-14.6-15.59,2.97-27.14,9.19-34.32,18.65-11.54,15.23-13.01,38.12-3.49,54.43,8.58,14.71,25.59,25.21,45.52,28.1,2.06.3,3.49,2.21,3.19,4.28-.27,1.88-1.88,3.23-3.73,3.23-.18,0-.36-.01-.55-.04-17.08-2.47-32.25-10.12-42.79-21.1-14.92,17.53-23.4,39.98-22.63,61.28.76,20.87,10.07,38.6,26.93,51.28,24.94,18.75,57.85,23.9,86.76,26.47,38.98,3.47,94.39,1.51,136.98-27.45Z"/>
    <path class="cls-6" d="M1000.48,1101.02c35.97,0,78.3-6.42,112.82-29.89,0,0,0,0,0,0,30.34-20.63,51.37-59.3,52.34-96.24.78-29.65-11.24-55.43-33.83-72.58-18.84-14.31-42.38-20.87-62.92-17.59-10.85,1.74-20.56,6.13-28.77,12.86-.83-2.07-1.74-4.11-2.83-6.07-6.7-12.11-18.69-21.08-35.57-26.88,3.59-95.55-29.22-172.48-92.01-213.28-9.4-6.11-19.07-11.16-28.92-15.5l26.24-20.2c3.92-.49,7.61-1.96,10.8-4.41l10.24-7.89c3.44,4.37,7.12,8.96,11.04,13.64.19.24.39.47.74.84l.6.7c1.64,1.94,3.27,3.87,4.95,5.77,15.73,17.79,33.32,26.8,52.26,26.8,11.58,0,21.36-3.51,27.55-6.47l.96-.47c20.63-10.29,32.18-29.15,41.46-44.3l1.45-2.37c9.36-15.21,20.1-27.98,32.85-39.05,4.66-4.04,7.46-9.66,7.89-15.81.43-6.15-1.56-12.1-5.6-16.76h0c-8.36-9.61-22.97-10.64-32.57-2.29-16.34,14.19-30.04,30.45-41.9,49.71l-1.5,2.44c-6.84,11.17-13.92,22.72-22.43,26.97l-.57.28c-4.19,2.01-12.01,5.73-25.28-9.28-1.81-2.04-3.56-4.13-5.27-6.16l-9.87-12.52,97.13-74.8c4.73-3.64,7.75-8.9,8.52-14.81.77-5.91-.81-11.77-4.45-16.5-7.51-9.75-21.55-11.57-31.31-4.07l-97.4,75.01-11.42-14.39c-.67-.84-1.42-1.58-2.19-2.29l-.8-1.09c-.5-.67-.99-1.34-1.47-2.02-11.56-16.38-6.13-23.12-3-27,6.27-7.52,19.11-11.74,31.58-15.84l2.74-.9c21.46-7.09,40.44-16.68,58.02-29.32,10.34-7.43,12.71-21.88,5.28-32.22-7.43-10.34-21.89-12.7-32.22-5.27-13.72,9.86-28.63,17.37-45.57,22.98l-2.67.88c-16.87,5.54-37.87,12.44-52.65,30.17l-.67.82c-11.28,14-26.09,43.31,1.42,82.32,5.27,7.48,10.84,14.7,16.49,21.79l-9.6,7.4c-3.75,2.89-6.37,6.82-7.7,11.26l-44.96,34.62c-1.02-.24-2.05-.44-3.08-.66-12.66-23.65-35.42-39.53-61.38-39.52-.88-.04-11.7-.23-25.93,3.61-1.94-2.28-3.94-4.49-6.06-6.61,40.13-24.8,67.76-64.23,82.32-117.45,20.37-2.18,47.06-10.72,57.27-39.15,6.39-4.43,11.9-10.03,15.67-15.42,7.58-10.83,13.86-28.06,6.61-40.96-2.64-4.7-7.09-8.38-13.04-10.88,3.01-9.8,3.95-21.25-2.66-30.49-1.65-2.31-3.71-4.3-6.12-5.94-5.07-3.42-11.32-4.86-17.65-4.68.55-12.94-4.86-26.07-17.8-32.09-11.27-5.25-23.22-2.39-32.41,4.1-10.28-1.79-21.29-1.35-31.85,1.35-28.34,7.25-51.42,32.27-58.8,63.75-10.44,44.54,11.65,72.26,29.02,86.52-9.44,37.25-27.01,63.61-52.3,78.42-33.26,19.46-74.51,16.82-98.39,12.89-2.31,2.62-4.92,4.99-7.8,6.93,3.84,3.89,8.33,7.54,13.51,10.74,5.85,3.61,12.07,5.96,18.42,7.66-12.26,5.12-23.93,12.51-34.28,22.01-11.92,10.93-21.67,24.05-28.98,39-13.67,27.95-17.05,58.89-9.52,87.13.42,1.57.98,3.05,1.47,4.58-18.53-8.41-35.36-21.15-48.28-37.56,3.37-12.06,14.73-26.45,31.48-38.77,1.85-1.36,2.24-3.95.88-5.8-1.36-1.85-3.96-2.23-5.8-.88-27.25,20.05-40.76,44.15-34.42,61.39,8.6,23.4,53.19,37.53,110.7,36.68-5.6,6.16-10.23,12.99-13.49,20.41-.9,2.06.03,4.46,2.09,5.36,2.06.9,4.46-.03,5.36-2.09,16.58-37.77,71.1-59.34,114.4-45.23,4.29,1.4,8.42,3.16,12.35,5.21l-33,25.41-2.76-2.55c-.18-1.83-.04-2.99-.02-3.16.32-2.21-1.2-4.28-3.41-4.62-2.22-.33-4.31,1.19-4.65,3.41-.1.64-2.24,15.88,13.8,30.19,15.55,13.88,32.35,14.04,33.06,14.04,2.25,0,4.08-1.83,4.08-4.08s-1.83-4.08-4.08-4.08c-.05,0-2.01-.02-5.1-.63l-3.09-2.85,4.64-3.58c.04,1.8,1.2,3.43,3.02,3.92.86.23,21.19,5.87,26.37,28.18,5.03,21.64-13.21,31.7-13.85,32.05-31.47,15.21-64.37-23.9-64.7-24.3-1.46-1.76-4.08-2.02-5.84-.55-1.76,1.46-2.01,4.07-.56,5.84,1.17,1.42,23.18,27.6,50.57,30.57-3.47,13.75-17.33,23.64-31.57,22.01-20.19-2.33-35.46-21.13-42.76-32.13-1.26-1.91-3.84-2.43-5.75-1.16-1.91,1.27-2.43,3.84-1.16,5.75,8.1,12.2,20.62,26.67,37.16,32.93-2.06,4-5.41,7.17-9.79,9.08-3.62,1.57-7.71,2.33-12.16,2.16-13.58-.42-25.52-6.36-35.49-17.65-18.35-20.78-25.72-55.49-23.52-79.05.21-2.28-1.46-4.3-3.74-4.52-2.26-.18-4.3,1.46-4.52,3.74-.6,6.38-.55,13.63.2,21.26-57.98-1.81-136.2-16.92-160.11-81.96-16.13-43.89,2.66-94.95,49.04-133.24,1.77-1.46,2.02-4.07.56-5.84-.13-.16-.31-.24-.46-.37.63-6.85,1.71-13.76,3.16-20.69-2.21-1.07-4.46-2.22-6.74-3.42-1.89,8.62-3.18,17.23-3.85,25.73-47.62,40.41-66.62,94.09-49.49,140.7,8.88,24.15,24.61,41.81,43.87,54.69,4.6,3.08,9.39,5.9,14.36,8.45,34.37,17.68,76.26,23.29,110.76,24.28.55,3.42,1.24,6.87,2.07,10.33l-113.32,87.27c-2.65-2.04-5.48-3.74-8.46-4.97-19.41-7.99-40.06,3.23-50.74,19.32-12.52-6.47-23.46-14.82-32.7-25.1-44.23-49.21-39.2-127.51-39.14-128.28.14-1.87.07-3.71-.17-5.5-3.11-1.01-6.28-2.12-9.47-3.35,1.04,2.54,1.59,5.32,1.37,8.24-.06.82-5.32,82.63,41.24,134.44,7.66,8.53,16.38,15.82,26.11,21.89-5.57.57-11.15,1.63-16.72,3.12-6.23-13.66-15.88-25.33-29.5-32.95-10.37-5.8-22.33-9.01-34.85-9.72-23.82-49.71-23.48-102.07-22.88-116.07,3.57-2.7,6.81-5.6,9.45-8.52,1.38-1.53,1.26-3.89-.26-5.27-1.53-1.38-3.89-1.27-5.27.26-10.39,11.49-31.83,24.21-44.81,15.04-8.1-5.72-11.23-16.85-14.25-27.62-1.16-4.14-2.26-8.06-3.64-11.7-.74-1.94-1.66-4.22-2.9-6.42-5.48-9.7-15-16.94-28.3-21.53-1.04-.36-2.16-.71-3.32-1.08-8.6-2.71-14.2-4.94-13.69-11.09.76-9.26,12.67-14.46,21.37-18.25l1.35-.59c14.96-6.57,31.54-10.22,49.28-10.84,16.11-.57,34.82.93,49.88,5.8,1.19-2.24,2.43-4.46,3.7-6.65-20.43-6.96-44.66-6.92-53.84-6.61-18.69.66-36.2,4.52-52.02,11.47l-1.34.59c-9.84,4.29-24.7,10.77-25.83,24.48-1.04,12.55,10.96,16.33,18.89,18.82,1.09.34,2.14.67,3.13,1.02,11.52,3.98,19.67,10.09,24.23,18.15.99,1.76,1.78,3.71,2.41,5.39,1.26,3.34,2.32,7.1,3.44,11.08,3.22,11.46,6.87,24.46,17.14,31.7,4.44,3.13,9.46,4.46,14.68,4.46,7.33,0,15.05-2.62,22.09-6.52-.24,19.59,1.73,65.6,22.14,110.47-7.91.34-15.95,1.6-23.89,3.97-25.1,7.5-45.75,23.82-56.66,44.76-14.27,27.42-11.43,58.79-6.54,80.29.16.69,10.35,42.23,52.17,70.75,21.95,14.97,52.61,26.35,95.12,26.35,3.02,0,6.22-.18,9.36-.29,1.51.07,3.01.14,4.52.14,23.36,0,46.83-8.15,66.7-23.28,1.67-1.27,3.2-2.65,4.78-3.99,14.65-12.43,25.42-27.63,31.82-43.8.96-.23,1.92-.46,2.88-.75,6.69-2,16.09-5.58,20.41-13.57,2.88-5.31,2.76-12.06.33-17.57,22.1-2.69,58.21-9.65,95.9-27.71,46.14-22.11,102.05-64.39,130.99-144.13.62-.27,1.24-.47,1.86-.77,5.29-2.79,12.97-9.39,16.84-19.3,17.21-13.22,28.14-32.58,28.14-54.17,0-3.08-.29-6.09-.72-9.07,17.33-6.1,31.78-18.24,41.17-34.14,10.83,3.51,21.02,8.08,30.31,14.11,48.04,31.22,54.98,95.61,53.95,136.9-18.33,3.18-32.01,10.43-40.62,21.79-13.52,17.83-15.16,43.66-4,62.79,1.1,1.89,2.36,3.71,3.7,5.47-16.42,18.93-25.79,43.43-24.94,66.73.84,22.98,11.09,42.51,29.64,56.46.61.46,1.25.87,1.87,1.32,26.04,18.67,59.21,23.9,88.37,26.49,8.81.78,18.44,1.29,28.58,1.29ZM889.31,591.61c.52-3.98,2.55-7.51,5.73-9.96l15.37-11.84c-7.03-9.01-12.17-15.72-12.17-15.72h.02c-2.92-3.84-5.8-7.71-8.58-11.65-24.75-35.09-11.69-61.12-1.72-73.49l.63-.77c13.41-16.08,33.3-22.62,49.3-27.88l2.67-.88c17.66-5.84,33.22-13.69,47.55-23.98,2.78-2,6-2.96,9.18-2.96,4.91,0,9.75,2.28,12.83,6.56,5.07,7.06,3.46,16.94-3.6,22.01-16.98,12.2-35.31,21.46-56.05,28.31l-2.78.91c-13.4,4.41-27.26,8.96-35.16,18.45-3.31,4.12-10.79,13.41.46,31.79l23.18,29.47,103.02-79.34c2.72-2.09,5.95-3.11,9.14-3.11,4.5,0,8.96,2.01,11.91,5.84,2.45,3.18,3.51,7.11,2.99,11.09-.52,3.97-2.55,7.51-5.73,9.95l-102.78,79.16,17.92,22.79c.62.72,1.23,1.46,1.86,2.18,16.93,19.14,28.83,13.46,33.95,11.03l.62-.3c10.41-5.2,18.05-17.66,25.44-29.71l1.49-2.43c11.46-18.62,24.69-34.33,40.46-48.02,6.56-5.7,16.54-5,22.24,1.57,2.76,3.18,4.12,7.24,3.82,11.44-.29,4.2-2.21,8.04-5.39,10.8-13.31,11.57-24.53,24.89-34.29,40.74l-1.45,2.37c-8.79,14.36-19.74,32.22-38.46,41.56l-.9.44c-5.48,2.62-14.16,5.75-24.37,5.75-16.76,0-32.5-8.19-46.78-24.33-1.64-1.86-3.24-3.75-4.84-5.64l-1.52-1.79c-.4-.48-.78-.95-1.18-1.43-3.81-4.32-8.89-10.5-14.31-17.23l-15.67,12.07c-6.39,4.92-16.16,3.62-21.05-2.73-2.45-3.18-3.51-7.12-2.99-11.09ZM505.82,682.08c-.29-.79-.51-1.61-.67-2.45,7.73,8.67,16.53,16.25,26.09,22.6-13.36-5.21-22.44-12.05-25.42-20.15ZM608.85,845.27c2.23,3.42,4.67,6.68,7.34,9.71,3.57,4.05,7.4,7.42,11.42,10.28-38.5,36.72-86.39,48.43-112.4,52.13l93.64-72.12ZM423.69,919.76c6.37-13.31,20.8-24.22,35.43-24.22,3.6,0,7.21.66,10.71,2.1,1.97.81,3.89,1.88,5.72,3.16l-57.18,44.04c.04-8.2,1.42-16.92,5.32-25.08ZM417.16,919.22c-4.31,10.08-5.36,20.7-4.87,30.3l-9.3,7.16c-.87.67-1.62,1.43-2.34,2.21-.01-12.64-2.03-25.14-6.28-36.53,7.61-1.97,15.26-2.99,22.79-3.14ZM455.47,1071.68c-13.69,10.43-29.18,17.25-45.09,20.24-.11,0-.21-.04-.33-.03-146.14,17.58-171.62-85.9-172.63-90.3-4.66-20.48-7.41-50.29,5.99-76.03,10.13-19.46,29.42-34.65,52.93-41.68,22.24-6.64,45.24-4.73,63.1,5.26,36.69,20.52,42.59,73.05,27.1,111.99-.63,1.59.14,3.4,1.74,4.03,1.6.63,3.4-.15,4.03-1.74,2.8-7.03,4.87-14.51,6.29-22.15.33.53.6,1.08.99,1.59,3.68,4.77,9.21,7.28,14.8,7.28,2.78,0,5.56-.66,8.15-1.92,12.09,23.51,34.82,42.18,60.55,42.18,1.81,0,3.64-.13,5.48-.32-6.87,15.56-18,30.1-33.1,41.6ZM513.66,1011.56c-3.23,5.96-11.09,8.89-16.73,10.57-28.91,8.66-56.08-11.23-69.21-37.38l62.83-48.39c-.26,2.1-.58,4.2-.9,6.29-.93,6.05-1.89,12.31-1.35,18.76,1.07,12.88,8.35,24.03,21.63,33.13,4.94,3.38,6.71,11.49,3.72,17.01ZM611.92,962.07c-39.64,18.99-77.47,25.38-98.25,27.53-.08-.05-.14-.13-.21-.18-11.67-8-18.04-17.6-18.95-28.52-.47-5.71.39-11.34,1.3-17.3.35-2.26.69-4.52.96-6.79.21-1.78.39-3.66.47-5.59l5.84-4.5c20.4-1.56,83.47-10.15,131.62-57.11,7.08,3.6,14.74,5.57,22.94,5.82.44.01.88.02,1.32.02,5.18,0,10.02-.96,14.4-2.86,6.62-2.88,11.77-8.02,14.59-14.39,1.14.22,2.29.42,3.46.56,1.4.16,2.79.24,4.18.24,17.64,0,33.39-12.83,36.78-30.38,1.43-.11,2.87-.31,4.32-.57-28.64,73.63-81.19,113.14-124.78,134.02ZM773.34,589.82c24.12,0,45.15,15.59,56,38.52l-55.66,42.87c3.05-27.26-4.19-56.01-20.49-78.8,11.52-2.68,19.91-2.58,20.15-2.59ZM887.98,361.07c4.37,1.89,7.6,4.47,9.47,7.81,5.35,9.52.71,23.83-6.25,33.79-6.25,8.93-18.53,19.24-30.72,20.76-6.32.78-11.92-.88-16.64-4.95-2.71-2.35-4.32-5.4-4.18-7.97.1-1.86,1.12-3.47,3.02-4.78.46-.32.77-.74,1.02-1.2.33-.1.7-.15,1.03-.27,1.16-.43,2.27-.95,3.34-1.52,0,0,0,0,0,0,.11-.05.22-.11.34-.15,0,0,0,0,0,0,14.59-5.96,27.31-17.9,35.84-33.7,1.2-2.23,2.51-4.89,3.72-7.81ZM863.02,320.39c5.3-.36,10.57.7,14.69,3.48,1.75,1.18,3.23,2.61,4.41,4.26,8.15,11.4,1.1,28.4-3.82,37.52-7.69,14.23-19.02,24.97-31.94,30.41-.17.06-.35.08-.51.17l-.65.36c-.91.49-1.85.93-2.82,1.28-3.22,1.18-7.14,1.31-11.05.36-6.64-1.61-13.19-6.94-11.87-14.81.22-1.31.63-2.59,1.14-3.83,13.03,3.3,26.86-2.62,32.94-14.85,4.78-9.61,2.38-15.94-1.66-22.56,3.43-4.22,6.28-8.64,8.26-12.91,1.3-2.81,2.25-5.81,2.89-8.9ZM843.21,287.62c14.61,6.8,16.97,25.45,10.78,38.83-1.47,3.17-3.46,6.44-5.83,9.62-2.34-4.87-2.44-10.09-2.53-15.57-.09-5.49-.19-11.18-2.41-17.01-3.42-8.96-11.61-12.75-19.95-15.51-.01,0-.02,0-.04-.01,6.34-2.77,13.46-3.38,19.97-.35ZM610.91,539.96c-1.01-.62-1.91-1.31-2.87-1.96,25.56,3.32,63.69,3.63,95.89-15.21,26.51-15.51,45.04-42.49,55.25-80.21,6.31,4.32,10.9,6.42,11.07,6.49.51.22,1.04.33,1.57.33,1.49,0,2.91-.86,3.55-2.31.87-1.96-.02-4.25-1.98-5.12-2.36-1.05-57.6-26.4-42.81-89.5,6.73-28.69,27.59-51.45,53.16-57.99,12.51-3.2,25.69-2.89,37.09.89,7.75,2.56,12.98,5.28,15.13,10.91,1.74,4.56,1.82,9.32,1.9,14.37.12,7.18.24,14.6,5.25,22.27,4.92,7.52,7.16,10.95,3.45,18.41-4.94,9.94-16.96,14.21-27.37,9.73-13.36-5.75-16.68-22.65-17.48-29.66-.21-1.79-1.62-3.09-3.32-3.34-1.68-.48-3.51.14-4.43,1.72-7.49,12.99-21.8,10.95-22.43,10.85-2.11-.36-4.1,1.1-4.44,3.21-.35,2.12,1.09,4.12,3.21,4.46.21.03,1.69.26,3.94.26,4.17,0,10.98-.85,17.31-5.07,4.1,3.69,12.66,14.16,5.4,33.06-9.06,23.62-36.42,15.87-37.58,15.53-2.05-.62-4.22.57-4.82,2.62-.61,2.06.56,4.21,2.61,4.83,3.53,1.05,8.17,1.84,13.21,1.84,12.39,0,27.21-4.76,33.83-22.03,2.42-6.32,3.31-11.87,3.29-16.78,1.95,1.8,4.19,3.38,6.72,4.69-.65,1.62-1.18,3.32-1.47,5.09-1.93,11.6,7.07,20.11,16.96,22.51,1.47.36,2.94.55,4.4.68-.81,1.67-1.12,3.29-1.2,4.63-.25,4.68,2.18,9.7,6.5,13.43,5.18,4.47,11.37,6.78,18.09,6.78,1.24,0,2.51-.08,3.78-.24,2.86-.36,5.68-1.18,8.45-2.22-19.25,32.53-68.03,25.81-70.39,25.47-2.09-.3-4.1,1.16-4.41,3.28-.32,2.12,1.15,4.1,3.27,4.41.19.03,5.26.73,12.86.73,1.23,0,2.55-.02,3.9-.07-14.43,50.56-41.22,87.83-79.84,110.98-8.85-7.6-18.89-13.89-29.76-18.55-7.87-3.37-16.04-5.81-24.28-7.25-13.84-2.41-28.27-1.51-42.3,2.33-9.97-1.72-19.4-4.02-27.91-9.27ZM719.6,692.33c-34.35-11.19-75.23-1.46-101.83,20.71-19.6.78-38.06-.19-54.15-2.64-1.3-3.37-2.47-6.82-3.42-10.41-7.05-26.43-3.86-55.45,8.99-81.72,6.89-14.08,16.06-26.42,27.26-36.7,19.84-18.2,44.76-28.25,68.92-28.25,4.85,0,9.68.41,14.42,1.23,7.65,1.33,15.24,3.6,22.56,6.74,16.56,7.1,31.07,18.2,41.97,32.12,18.67,23.85,26.08,55.69,20.5,84.63l-28.36,21.84c-5.28-3.05-10.92-5.62-16.84-7.55ZM764.98,778.12c-7.79-22.67-28.86-28.86-30.79-29.38l23.63-18.2c3.41,5.23,6.01,10.8,7.55,16.57,2.14,8.01,2.77,15.55,1.86,22.54-.04.4-.5,4.02-2.26,8.47ZM767.43,792c0-.53,0-1.06-.03-1.6,6.73-9.35,7.91-19.69,7.92-19.82,1.03-7.93.33-16.54-2.08-25.57-1.81-6.79-4.9-13.33-8.97-19.43l9.91-7.63c6.76,9.63,10.73,20.88,10.73,32.94,0,15.66-6.59,30-17.48,41.11ZM790.71,733.67c-2.09-7.44-5.49-14.42-9.99-20.76l56.17-43.26c-2.16,29.81-20.47,54.49-46.18,64.02ZM869.02,713.96c-9.63-6.26-20.09-11.01-31.12-14.7,4.8-10.75,7.52-22.77,7.52-35.52,0-.22-.03-.43-.03-.64l26.96-20.76c11.05,4.54,21.85,10.06,32.26,16.83,65.09,42.3,96.51,125.85,86.19,229.22-.16,1.61-.47,3.17-.85,4.7-29.54,6.85-51.52,1.99-63.88-2.67-.45-2.79-.58-5.64-.29-8.52,3.7-37,5.56-127.44-56.77-167.94ZM858.81,1015.22c-.78-21.3,7.71-43.75,22.63-61.28,10.54,10.98,25.71,18.62,42.79,21.1.18.03.37.04.55.04,1.85,0,3.46-1.35,3.73-3.23.3-2.06-1.13-3.98-3.19-4.28-19.93-2.89-36.95-13.39-45.52-28.1-9.52-16.31-8.05-39.2,3.49-54.43,7.18-9.47,18.73-15.69,34.32-18.65-.28,5.47-.67,10.4-1.09,14.6-.17,1.67-.2,3.33-.17,4.98-1.06-.61-1.64-1-1.7-1.03-1.87-1.31-4.45-.87-5.77,1.01-1.32,1.87-.87,4.46,1,5.78,1.04.73,19.27,13.23,51.12,13.23,12.42,0,26.91-1.9,43.25-7.14,2.18-.7,3.38-3.03,2.69-5.21-.7-2.18-3.03-3.4-5.21-2.69-.6.19-1.16.32-1.76.5.05-.36.12-.71.16-1.08.57-5.7.95-11.31,1.27-16.89,13.98,5.17,23.81,12.77,29.31,22.72,9.24,16.72,7.42,39.58-4.33,54.37-10.59,13.33-28.94,21.29-49.08,21.3-2.08,0-3.77,1.69-3.77,3.78,0,2.08,1.69,3.77,3.77,3.77h0c22.41,0,42.97-9.04,54.98-24.15,10.87-13.68,14.42-32.61,10.14-49.6,7.71-6.97,17.03-11.51,27.56-13.2,18.76-3.01,40.34,3.08,57.74,16.29,26.67,20.25,31.66,47.61,31.15,67-.91,34.85-20.75,71.34-49.37,90.8-42.59,28.96-98,30.92-136.98,27.45-28.91-2.56-61.82-7.72-86.76-26.47-16.86-12.68-26.17-30.41-26.93-51.28Z"/>
    <path class="cls-9" d="M925.79,881.9c-.29,2.88-.16,5.74.29,8.52,12.36,4.66,34.33,9.51,63.88,2.67.38-1.53.69-3.09.85-4.7,10.32-103.37-21.1-186.92-86.19-229.22-10.42-6.77-21.22-12.29-32.26-16.83l-26.96,20.76c0,.22.03.43.03.64,0,12.75-2.72,24.76-7.52,35.52,11.03,3.69,21.49,8.44,31.12,14.7,62.34,40.51,60.47,130.94,56.77,167.94Z"/>
    <path class="cls-5" d="M773.67,671.21l55.66-42.87c-10.85-22.93-31.88-38.52-56-38.52-.24,0-8.63-.1-20.15,2.59,16.3,22.79,23.53,51.54,20.49,78.8Z"/>
    <path class="cls-5" d="M790.71,733.67c25.71-9.52,44.02-34.21,46.18-64.02l-56.17,43.26c4.5,6.34,7.9,13.32,9.99,20.76Z"/>
    <path class="cls-5" d="M764.27,725.58c4.07,6.1,7.15,12.64,8.97,19.43,2.42,9.04,3.12,17.64,2.08,25.57-.01.13-1.19,10.47-7.92,19.82.02.54.03,1.07.03,1.6,10.88-11.12,17.48-25.45,17.48-41.11,0-12.06-3.97-23.31-10.73-32.94l-9.91,7.63Z"/>
    <path class="cls-7" d="M452.47,528.09c-1.97.5-4.01.94-5.94,1.47-20.89,5.74-34.15,20.1-48.2,35.31-1.59,1.72-3.18,3.44-4.78,5.15-17.87,19.06-32.61,36.77-45.07,54.16-12.05,16.81-24.19,35.09-31.43,54.86-7.52,20.54-12.23,41.11,4.02,52.35,11.3,7.81,24.81,12.49,36.55,16.04,30.33,9.17,62.62,13.77,90.2,17.05,6.59.78,12.87,1.45,18.97,2.05-19.25-12.88-34.99-30.54-43.87-54.69-17.13-46.61,1.86-100.29,49.49-140.7.67-8.51,1.97-17.11,3.85-25.73-.95-.5-1.87-.95-2.84-1.48-2.96-1.63-13.08-7.52-20.96-15.83Z"/>
    <path class="cls-7" d="M505.15,679.63c.17.84.38,1.66.67,2.45,2.98,8.1,12.06,14.95,25.42,20.15-9.56-6.35-18.36-13.93-26.09-22.6Z"/>
    <path class="cls-8" d="M310.35,676.59c-5.31,14.52-16.37,44.73,6.66,60.66,1.92,1.33,3.91,2.55,5.92,3.71.59.34,1.19.67,1.78,1,4.98,2.75,10.13,5.05,15.26,7.02,3.2,1.23,6.37,2.34,9.47,3.35,2.07.67,4.11,1.32,6.1,1.92,30.86,9.33,63.53,13.99,91.42,17.31,12.19,1.45,23.56,2.57,34.17,3.41-4.96-2.55-9.75-5.37-14.36-8.45-6.11-.6-12.39-1.26-18.97-2.05-27.58-3.29-59.87-7.89-90.2-17.05-11.73-3.55-25.25-8.23-36.55-16.04-16.25-11.24-11.54-31.8-4.02-52.35,7.24-19.77,19.38-38.05,31.43-54.86,12.46-17.39,27.2-35.1,45.07-54.16,1.6-1.71,3.19-3.43,4.78-5.15,14.04-15.21,27.31-29.57,48.2-35.31,1.93-.53,3.97-.98,5.94-1.47,7.88,8.31,18,14.2,20.96,15.83.96.53,1.89.98,2.84,1.48,2.28,1.21,4.53,2.36,6.74,3.42,17.36,8.37,32.79,12.46,47.34,12.46,3.55,0,7.05-.24,10.51-.72,12.91-1.79,26.58-7.67,33.9-18.86,3.37-.11,7.05-.85,11.02-2.27,2.7-.97,5.32-2.34,7.79-4,2.88-1.94,5.49-4.3,7.8-6.93,3.39-3.85,6.07-8.26,7.54-12.89,1.93-6.04,1.76-11.9-.42-17.2-2.14,1.35-4.33,2.63-6.54,3.87,1.36,4.17.77,8.15-.16,11.06-2.62,8.24-10.25,16.08-18.53,19.05-1.45.52-3.08,1-4.75,1.35.88-2.8,1.46-5.8,1.6-9.09.05-1.24.03-3.08-.2-5.13,0-.34-.02-.66-.11-.99-.25-1.78-.68-3.68-1.39-5.54-2.29.81-4.62,1.52-6.95,2.23.4.95.7,1.98.92,3.05-1.77,1.87-6.52,5.92-14.91,6.1-2.06.04-3.7,1.75-3.65,3.81.04,2.04,1.71,3.66,3.73,3.66.03,0,.05,0,.08,0,6.52-.14,11.39-2.12,14.92-4.29-2.49,15.97-18.16,23.81-32.66,25.81-18.59,2.56-38.59-2.46-62.94-15.83-9.64-5.29-26.21-17.36-27.18-29-.16-1.9.17-3.72.91-5.48-2.15-1.16-4.27-2.36-6.36-3.62-1.45,3.05-2.06,6.29-1.77,9.7.38,4.55,2.28,8.86,4.97,12.82-.93.25-1.92.45-2.85.7-22.85,6.28-37.44,22.07-51.55,37.35-1.58,1.71-3.16,3.42-4.74,5.11-18.09,19.29-33.02,37.24-45.67,54.88-6.69,9.34-13.39,19.15-19.34,29.44-1.27,2.2-2.51,4.41-3.7,6.65-3.53,6.63-6.71,13.44-9.28,20.48Z"/>
    <path class="cls-9" d="M574.75,541.71c-7.32,11.19-20.99,17.08-33.9,18.86-3.46.48-6.96.72-10.51.72-14.55,0-29.97-4.1-47.34-12.46-1.44,6.93-2.53,13.85-3.16,20.69.15.13.33.21.46.37,1.46,1.77,1.21,4.38-.56,5.84-46.38,38.3-65.17,89.35-49.04,133.24,23.91,65.04,102.13,80.15,160.11,81.96-.74-7.63-.79-14.88-.2-21.26.21-2.28,2.26-3.93,4.52-3.74,2.28.21,3.96,2.24,3.74,4.52-2.2,23.55,5.17,58.27,23.52,79.05,9.97,11.29,21.91,17.23,35.49,17.65,4.45.17,8.54-.59,12.16-2.16,4.38-1.91,7.73-5.08,9.79-9.08-16.53-6.26-29.06-20.73-37.16-32.93-1.27-1.91-.75-4.48,1.16-5.75,1.91-1.27,4.49-.75,5.75,1.16,7.3,11,22.57,29.81,42.76,32.13,14.24,1.63,28.1-8.26,31.57-22.01-27.38-2.97-49.39-29.15-50.57-30.57-1.46-1.76-1.21-4.38.56-5.84,1.76-1.46,4.38-1.21,5.84.55.33.4,33.22,39.51,64.7,24.3.63-.34,18.87-10.41,13.85-32.05-5.18-22.31-25.51-27.95-26.37-28.18-1.82-.48-2.98-2.12-3.02-3.92l-4.64,3.58,3.09,2.85c3.09.6,5.04.63,5.1.63,2.25,0,4.08,1.83,4.08,4.08s-1.83,4.08-4.08,4.08c-.71,0-17.51-.16-33.06-14.04-16.04-14.32-13.9-29.55-13.8-30.19.34-2.22,2.43-3.74,4.65-3.41,2.21.34,3.73,2.4,3.41,4.62-.02.16-.15,1.32.02,3.16l2.76,2.55,33-25.41c-3.93-2.05-8.06-3.81-12.35-5.21-43.29-14.11-97.82,7.46-114.4,45.23-.9,2.06-3.3,2.99-5.36,2.09-2.06-.9-2.99-3.3-2.09-5.36,3.26-7.42,7.89-14.25,13.49-20.41-57.51.84-102.09-13.28-110.7-36.68-6.34-17.24,7.17-41.34,34.42-61.39,1.84-1.35,4.44-.96,5.8.88,1.36,1.85.96,4.44-.88,5.8-16.75,12.33-28.11,26.71-31.48,38.77,12.92,16.41,29.75,29.16,48.28,37.56-.48-1.53-1.05-3.01-1.47-4.58-7.54-28.23-4.16-59.18,9.52-87.13,7.31-14.95,17.07-28.07,28.98-39,10.35-9.5,22.03-16.88,34.28-22.01-6.35-1.7-12.57-4.05-18.42-7.66-5.18-3.2-9.67-6.85-13.51-10.74-2.46,1.66-5.08,3.03-7.79,4-3.96,1.42-7.65,2.16-11.02,2.27Z"/>
    <path class="cls-10" d="M326.49,300.78c-1.44.61-2.94.91-4.43.91-2.63,0-5.22-.93-7.31-2.73h0l-3.78-3.25c-.35,1.02-.56,2.09-.55,3.2.03,2.52,1.04,4.88,2.85,6.64,8.09,7.89,20.05,13.5,35.09,16.74-.37-4.1-.58-8.23-.47-12.39.07-2.37.2-4.64.34-6.88-6.62-1.76-12.13-4.11-16.53-6.94-1.19,2.04-2.95,3.72-5.23,4.69Z"/>
    <path class="cls-3" d="M331.71,296.08c4.4,2.82,9.91,5.18,16.53,6.94.2-2.99.45-5.9.8-8.69-6.61-1.87-11.85-4.41-15.49-7.54l-.24,4.27c-.1,1.83-.71,3.52-1.6,5.03Z"/>
    <path class="cls-3" d="M313.27,305.55c-1.8-1.76-2.82-4.12-2.85-6.64-.01-1.11.19-2.18.55-3.2l-6.72-5.78c-1.56,2.75-2.44,5.84-2.4,9.09.06,4.81,1.99,9.31,5.44,12.67,9.77,9.53,24.19,16.1,42.24,19.56-.53-2.96-.89-5.96-1.16-8.96-15.04-3.24-27-8.85-35.09-16.74Z"/>
    <path class="cls-7" d="M579.78,518.56c.09.33.11.65.11.99.23,2.05.25,3.89.2,5.13-.14,3.29-.72,6.29-1.6,9.09,1.67-.35,3.29-.83,4.75-1.35,8.29-2.97,15.91-10.81,18.53-19.05.93-2.91,1.52-6.89.16-11.06-7.5,4.2-15.36,7.8-23.55,10.72.71,1.86,1.14,3.76,1.39,5.54Z"/>
    <path class="cls-7" d="M493.05,518.57c-2.94-.62-5.83-1.35-8.71-2.13.45.93.55,2.03.09,3.05-.6,1.35-1.93,2.14-3.31,2.14-.5,0-1-.1-1.48-.32-6.52-2.92-10.81-6.96-13.67-11.08-5.25-2.13-10.37-4.51-15.32-7.17-.73,1.76-1.06,3.58-.91,5.48.97,11.65,17.54,23.71,27.18,29,24.35,13.37,44.35,18.38,62.94,15.83,14.5-2.01,30.17-9.84,32.66-25.81-3.52,2.17-8.4,4.15-14.92,4.29-.03,0-.05,0-.08,0-2.02,0-3.69-1.62-3.73-3.66-.04-2.06,1.59-3.77,3.65-3.81,8.4-.18,13.15-4.23,14.91-6.1-.22-1.07-.52-2.1-.92-3.05-14.43,4.38-29.63,6.83-45.26,6.83-10.91,0-22-1.13-33.13-3.5Z"/>
    <path class="cls-8" d="M479.63,521.32c.48.22.99.32,1.48.32,1.39,0,2.71-.8,3.31-2.14.46-1.02.36-2.12-.09-3.05-6.29-1.71-12.42-3.78-18.38-6.2,2.86,4.11,7.15,8.15,13.67,11.08Z"/>
    <path class="cls-7" d="M463.87,92.02l-3.66,2.45c-1.78-2.66-2.65-3.5-3.51-3.37-.13.03-1.2.27-1.12,2.13l1.32,32.63c2.8,2.18,5.09,4.96,6.54,8.3,2.29,5.26,2.39,11.1.28,16.44-1.21,3.08-3.14,5.71-5.5,7.89l3.27,81.03c28.85-11.98,60.91-14.97,92.48-8.3l-93.58-136.45,3.47-2.74Z"/>
    <path class="cls-8" d="M456.9,125.86l-1.32-32.63c-.08-1.86,1-2.09,1.12-2.13.85-.13,1.72.71,3.51,3.37l3.66-2.45-3.47,2.74,93.58,136.45c.07.01.13.02.2.04,4.35.93,8.61,2.06,12.79,3.32l-98.68-143.88-.75-1.12c-1.8-2.69-5.54-8.26-12.51-7.12-7.14,1.58-8.51,8.17-8.25,11.25l1.13,27.98c1.25.25,2.48.58,3.69,1.05,1.95.77,3.69,1.88,5.3,3.13Z"/>
    <path class="cls-8" d="M452.3,162.42c-.91.4-1.79.82-2.7,1.22l2.7,66.81c2.75,3.34,5.44,6.51,8.08,9.51.37-.16.74-.3,1.11-.45l-3.27-81.03c-1.74,1.6-3.69,2.97-5.92,3.94Z"/>
    <path class="cls-10" d="M636.63,277.86c2.17-3.29,4.32-6.7,6.46-10.36,7.84-13.43,14.93-28.59,21.09-45.06,1.48-3.96,2.29-9.08-2.23-11.05-.5-.22-1.13-.42-1.91-.42-1.26,0-2.93.52-5.13,2.31-2.24,1.82-4.45,3.67-6.66,5.51-4.33,3.61-8.8,7.35-13.43,10.87-11.27,8.56-21.19,15.56-30.53,21.6,12.09,7.45,22.94,16.43,32.35,26.59Z"/>
    <path class="cls-9" d="M665.44,407.36c-8.24,6.49-18.25,10.62-28.88,11.5,2.66,4.31,4.66,8.99,5.74,13.71.46,2.01-.8,4.01-2.81,4.47-.28.06-.56.09-.83.09-1.7,0-3.24-1.17-3.64-2.9-1.04-4.57-3.09-9.15-5.91-13.22-8.54-12.31-24.1-18.21-41.64-15.78-17.57,2.44-35.1,11.06-49.38,24.29-1.51,1.4-3.87,1.31-5.28-.2-1.4-1.51-1.31-3.87.2-5.28,4.7-4.36,9.77-8.19,15.05-11.58-22.58-6.88-39.07-27.89-39.07-52.69,0-1.78.1-3.54.27-5.28-2.27-2.78-5.37-7.76-6.05-14.83-.98-10.24,3.33-21.24,12.82-32.7,1.32-1.59,3.67-1.81,5.26-.49,1.59,1.32,1.81,3.67.49,5.26-16.9,20.4-10.65,33.08-7.07,37.68,10.66-6.36,50.64-26.52,99.8-5.7,1.97-1.14,5.59-3.92,5.48-8.98-.05-2.16-.53-4.07-1.3-5.1-1-1.35-2.56-2.62-4.64-3.78-4.62-2.58-10.3-4.52-17.86-6.1-2.71-.57-5.49-1-8.26-1.3-2.05-.22-3.53-2.06-3.32-4.11.22-2.05,2.08-3.55,4.11-3.32,3.02.32,6.05.8,9,1.42,5.46,1.14,10.01,2.51,14.04,4.13-.56-3.29-2.32-8.01-7.73-11.39-1.67-1.04-2.18-3.25-1.14-4.92,1.04-1.68,3.25-2.18,4.92-1.14,11.07,6.92,11.46,17.91,11.31,21.18,2.28,1.46,4.22,3.06,5.56,4.87,2.18,2.94,2.71,6.73,2.77,9.39.19,8.86-5.78,13.58-9.2,15.57.16.88.3,1.77.41,2.67,5.53.06,10.82.67,14.97,1.25,14.37,2.02,28.07,6.06,40.72,11.99,1.19.56,2.37,1.18,3.55,1.81,4.24,2.24,7.88,4.18,11.79,2.96,2.54-.79,4.51-2.75,5.39-5.38.93-2.75.49-5.78-1.16-8.09-1.41-1.97-3.7-3.74-7.02-5.42-2.11-1.07-4.33-1.91-6.69-2.81l-2.2-.84c-2.64-1.03-6.13-2.34-9.69-3.35-1.96-.56-3.11-2.6-2.55-4.56.56-1.97,2.6-3.11,4.56-2.55.82.23,1.63.49,2.44.74-7.11-12.15-19.4-20.97-34.22-22.82-2.21-.27-4.46-.4-6.7-.35-2.01.12-3.73-1.58-3.77-3.62-.04-2.04,1.58-3.73,3.62-3.77,2.61-.05,5.21.08,7.78.41,4.32.54,8.43,1.64,12.33,3.13-19.68-35.86-55.08-63.61-99.22-73-10.6-2.26-21.27-3.37-31.84-3.37-18.97,0-37.59,3.68-55.03,10.71.79.86,1.59,1.72,2.38,2.56,5.84,6.16,10.8,10.82,15.59,14.68,9.49,7.45,14.44,19.48,12.92,31.4-2.21,17.34-17.05,30.04-34.09,30.04-1.45,0-2.9-.09-4.37-.28-6.69-.85-12.93-3.63-18.04-8.03-5.12-3.43-9.39-8.85-12.84-13.67-4.66-6.48-8.77-13.85-12.41-22.16-5.29,5.62-10.05,11.65-14.27,18.04,2.27,3.07,4.7,6.1,7.43,9.06,3.5,3.78,7.52,7.32,11.42,10.74,4.27,3.75,8.69,7.63,12.61,11.98,7.78,8.65,14.13,19.95,18.87,33.58.71,2.04,1.37,4.1,1.9,6.19.51,2-.69,4.03-2.69,4.54-2,.51-4.03-.69-4.54-2.69-.48-1.88-1.08-3.75-1.72-5.59-4.41-12.69-10.26-23.13-17.37-31.04-3.62-4.03-7.68-7.59-11.98-11.37-4.04-3.55-8.22-7.22-11.98-11.29-7.71-8.35-13.76-17.2-17.97-26.28l-.33-.72c-3.15-6.81-6.41-13.85-11.66-19.2-.97-.98-2.14-1.57-3.13-1.57-5.86,0-8.23,7.66-10.15,15.5l-.39,1.59c-2.1,8.27-3.27,17.49-3.56,28.19-.36,12.92,1.82,25.59,6.48,37.68,3.62,9.38,8.59,18.17,14.79,26.13.74.94,5.81,6.96,7.31,8.41.43.24.82.56,1.13.97,1.26,1.63.97,3.97-.65,5.24,0,0-.02.01-.02.02-7.62,5.93-11.99,14.69-11.99,24.04,0,17.11,14.62,31.02,32.59,31.02,13.17,0,24.97-7.47,30.07-19.03.83-1.88,3.04-2.74,4.92-1.91,1.89.83,2.74,3.04,1.91,4.92-6.29,14.26-20.77,23.48-36.9,23.48-.6,0-1.19-.06-1.79-.09,21.42,30.89,53.8,52.28,91.38,60.28,77.7,16.54,153.82-29.99,170.84-103.91ZM554.03,461.93c.72-1.93,2.86-2.91,4.8-2.19,10.19,3.81,18.41-.14,22.72-3.15-13.28-5.89-20.93-16.36-21.06-16.55-1.19-1.68-.79-4,.89-5.2,1.67-1.19,4.01-.8,5.2.88.57.8,10.37,14.11,26.96,16.82,8.61-7.36,9.22-19.39,9.2-22.86-5.72-1.1-10.61-4.12-13.39-6.67-1.52-1.4-1.62-3.76-.22-5.28,1.39-1.51,3.74-1.62,5.27-.23.45.41,11.15,9.91,21.18,2.06,1.63-1.27,3.97-.98,5.24.64,1.27,1.62.99,3.97-.64,5.24-3.28,2.57-6.67,3.92-9.97,4.44,0,3.99-.66,14.24-6.82,22.9,4.7-.49,9.76-1.82,15.21-4.48,1.84-.92,4.08-.14,4.99,1.72.91,1.85.14,4.09-1.72,4.99-8.09,3.95-15.54,5.5-22.26,5.5-3.44,0-6.67-.44-9.72-1.14-1.88,1.87-10.24,9.44-22.52,9.44-3.44,0-7.18-.6-11.16-2.08-1.93-.72-2.91-2.87-2.19-4.8ZM445.66,401.25c-.49.01-.97.02-1.45.02-6.29,0-11.61-1.4-15.99-4.05,0,0,0,0,0,0-1.24-.47-7.56-2.41-11.41,5.25-.65,1.3-1.97,2.06-3.34,2.06-.57,0-1.14-.13-1.68-.4-1.84-.93-2.58-3.17-1.66-5.01,2.75-5.47,6.6-8.12,10.38-9.22-5.74-8.71-5.03-19.18-4.99-19.68.16-2.06,1.92-3.56,4.01-3.44,2.05.16,3.59,1.95,3.44,4-.01.19-.66,10.83,5.72,17.46,3.76,3.91,9.42,5.78,16.72,5.55,2.12-.04,3.78,1.55,3.85,3.61.06,2.06-1.55,3.78-3.61,3.85Z"/>
    <path class="cls-4" d="M465.96,510.24c5.95,2.42,12.08,4.5,18.38,6.2,2.87.78,5.77,1.51,8.71,2.13,11.13,2.37,22.22,3.5,33.13,3.5,15.63,0,30.83-2.45,45.26-6.83,2.33-.71,4.66-1.41,6.95-2.23,8.18-2.92,16.05-6.52,23.55-10.72,2.21-1.24,4.4-2.52,6.54-3.87,32.26-20.28,56.42-52.37,64.79-91.68.63-2.94,1.12-5.89,1.56-8.82,3.82-4.89,6.85-10.46,8.88-16.56.13-.37.27-.74.39-1.11.09-.29.16-.58.24-.87.11-.35.19-.7.29-1.05.85.14,1.7.28,2.59.28,1.5,0,3.07-.22,4.7-.73,4.83-1.5,8.55-5.18,10.2-10.07,1.68-4.99.88-10.51-2.15-14.74-2.11-2.96-5.28-5.49-9.69-7.72-2.46-1.25-4.98-2.21-7.42-3.13l-.06-.02c-4.02-10.01-10.87-18.62-19.67-24.71-5.56-12.12-12.75-23.51-21.39-33.83,2.62-3.89,5.22-8,7.78-12.39,8.05-13.8,15.33-29.34,21.64-46.21,3.53-9.44,1.14-17.3-6.25-20.51-3.31-1.44-8.54-2.1-14.74,2.95-2.26,1.85-4.49,3.71-6.73,5.57-4.26,3.56-8.67,7.24-13.16,10.65-12.42,9.43-23.18,16.96-33.28,23.33-9.38-5.11-19.44-9.3-30.04-12.48-4.19-1.26-8.44-2.39-12.79-3.32-.07-.01-.13-.02-.2-.04-31.58-6.68-63.63-3.68-92.48,8.3-.37.15-.74.29-1.11.45-2.64-3-5.33-6.17-8.08-9.51-5.02-6.09-10.26-12.79-15.89-20.31-3.38-4.51-6.6-9.26-9.71-13.86-1.63-2.41-3.27-4.82-4.93-7.21-3.09-4.45-6.48-6.22-9.46-6.77-4.95,2.79-9.78,5.63-14.47,8.54-.96,2.65-1.37,5.78-1.09,9.33,1.42,17.97,4.14,34.92,8.08,50.38,2.05,8.06,4.36,15.48,6.95,22.31-5.8,5.88-11.04,12.22-15.69,18.94-1.75-2.85-3.38-5.72-4.72-8.62l-.33-.72c-3.42-7.39-6.95-15.02-13.11-21.29-2.37-2.42-5.46-3.8-8.46-3.8-12.2,0-15.59,13.79-17.4,21.19l-.38,1.53c-1.14,4.48-2.01,9.21-2.64,14.24-.35,2.79-.6,5.7-.8,8.69-.15,2.24-.28,4.51-.34,6.88-.12,4.16.09,8.29.47,12.39.27,3,.63,6,1.16,8.96,1.17,6.52,2.93,12.95,5.35,19.22,3.88,10.07,9.22,19.5,15.87,28.03.08.1.14.18.22.28.17,4.01.55,8.01,1.06,11.99-4.56,6.35-7.08,13.9-7.08,21.82,0,17.28,11.92,31.93,28.27,36.78.98,1.57,1.97,3.13,3.01,4.68,12.64,18.6,29.03,33.99,48.05,45.41,2.09,1.25,4.21,2.46,6.36,3.62,4.95,2.66,10.07,5.04,15.32,7.17ZM631.34,411.96c-7.05-7.57-16.68-12.34-27.64-13.99,9.28-9.62,15.07-22.58,15.41-36.89.53.02,1.05.07,1.58.1,2.44,6.23,8.13,10.91,15.24,11.6,6.28.61,12.07-2.04,15.82-6.55,6.72,1.91,13.26,4.29,19.49,7.22,1.08.51,2.15,1.07,3.22,1.63,1.08.56,2.17,1.14,3.3,1.67-5.78,21.06-25.21,35.63-46.42,35.21ZM593.91,397.25c-2.45.05-4.94.24-7.46.59-9.92,1.38-19.8,4.59-29.18,9.33-23.2-3.33-41.12-23.28-41.12-47.4,0-.85.08-1.67.13-2.51.56-.38,19.78-13.18,48.14-14.91,1.15,8.89,8.67,15.79,17.87,15.79,7.82,0,14.37-5,16.88-11.95,3.91,1.12,7.89,2.53,11.93,4.21.6,3.03.93,6.16.93,9.37,0,15.16-7.1,28.68-18.12,37.47ZM634.81,229.67c4.63-3.52,9.1-7.25,13.43-10.87,2.21-1.84,4.42-3.69,6.66-5.51,2.2-1.79,3.87-2.31,5.13-2.31.78,0,1.41.2,1.91.42,4.53,1.97,3.71,7.09,2.23,11.05-6.16,16.47-13.25,31.63-21.09,45.06-2.13,3.66-4.29,7.07-6.46,10.36-9.41-10.16-20.26-19.14-32.35-26.59,9.34-6.04,19.27-13.04,30.53-21.6ZM404.21,199.58c-.33-4.21.3-9.36,5.19-10.01.22-.03.45-.05.71-.05,1.4,0,3.32.62,5.54,3.81,1.65,2.37,3.27,4.76,4.88,7.14,3.16,4.66,6.43,9.49,9.92,14.14,11.94,15.96,22.2,28.35,32.27,38.97,6.09,6.42,11.28,11.3,16.35,15.37l.04.03c7.56,5.92,11.35,15.11,10.14,24.59-1.88,14.73-15.39,25.18-30.12,23.3-5.23-.67-10.12-2.84-14.46-6.54-4.49-3.04-8.24-7.82-11.31-12.1-9.05-12.6-16.01-28.8-21.29-49.53-3.83-15.05-6.48-31.58-7.87-49.12ZM403.22,450.99c.6.03,1.18.09,1.79.09,16.13,0,30.61-9.22,36.9-23.48.83-1.89-.02-4.09-1.91-4.92-1.88-.83-4.09.02-4.92,1.91-5.1,11.56-16.9,19.03-30.07,19.03-17.97,0-32.59-13.91-32.59-31.02,0-9.35,4.37-18.11,11.99-24.04,0,0,.02-.01.02-.02,1.63-1.27,1.92-3.61.65-5.24-.32-.41-.71-.74-1.13-.97-1.5-1.45-6.57-7.48-7.31-8.41-6.2-7.95-11.18-16.74-14.79-26.13-4.66-12.08-6.84-24.76-6.48-37.68.3-10.7,1.46-19.92,3.56-28.19l.39-1.59c1.93-7.84,4.3-15.5,10.15-15.5,1,0,2.17.59,3.13,1.57,5.25,5.35,8.51,12.39,11.66,19.2l.33.72c4.21,9.09,10.25,17.93,17.97,26.28,3.76,4.07,7.94,7.74,11.98,11.29,4.3,3.77,8.36,7.34,11.98,11.37,7.11,7.9,12.95,18.35,17.37,31.04.64,1.85,1.24,3.71,1.72,5.59.51,2,2.54,3.2,4.54,2.69,2-.51,3.2-2.54,2.69-4.54-.53-2.09-1.19-4.15-1.9-6.19-4.74-13.64-11.09-24.94-18.87-33.58-3.92-4.35-8.34-8.23-12.61-11.98-3.9-3.42-7.92-6.96-11.42-10.74-2.73-2.96-5.16-6-7.43-9.06,4.22-6.38,8.98-12.41,14.27-18.04,3.64,8.31,7.76,15.68,12.41,22.16,3.45,4.81,7.72,10.23,12.84,13.67,5.12,4.4,11.35,7.17,18.04,8.03,1.47.19,2.93.28,4.37.28,17.04,0,31.88-12.7,34.09-30.04,1.52-11.92-3.43-23.95-12.92-31.4-4.79-3.85-9.75-8.52-15.59-14.68-.79-.83-1.59-1.7-2.38-2.56,17.44-7.03,36.06-10.71,55.03-10.71,10.57,0,21.24,1.12,31.84,3.37,44.14,9.39,79.53,37.14,99.22,73-3.9-1.49-8.01-2.59-12.33-3.13-2.57-.32-5.17-.45-7.78-.41-2.04.04-3.66,1.73-3.62,3.77.04,2.04,1.76,3.73,3.77,3.62,2.24-.05,4.49.07,6.7.35,14.82,1.85,27.11,10.67,34.22,22.82-.8-.26-1.61-.51-2.44-.74-1.97-.56-4.01.58-4.56,2.55-.56,1.96.58,4.01,2.55,4.56,3.55,1.01,7.04,2.32,9.69,3.35l2.2.84c2.36.89,4.58,1.74,6.69,2.81,3.32,1.68,5.61,3.46,7.02,5.42,1.65,2.31,2.08,5.34,1.16,8.09-.88,2.62-2.85,4.58-5.39,5.38-3.91,1.22-7.55-.72-11.79-2.96-1.19-.62-2.37-1.25-3.55-1.81-12.65-5.94-26.35-9.97-40.72-11.99-4.15-.58-9.43-1.19-14.97-1.25-.11-.9-.25-1.79-.41-2.67,3.43-1.99,9.39-6.7,9.2-15.57-.06-2.66-.58-6.45-2.77-9.39-1.34-1.81-3.29-3.41-5.56-4.87.15-3.28-.24-14.26-11.31-21.18-1.67-1.05-3.88-.54-4.92,1.14-1.04,1.67-.54,3.88,1.14,4.92,5.4,3.38,7.17,8.1,7.73,11.39-4.02-1.62-8.57-2.98-14.04-4.13-2.95-.62-5.98-1.1-9-1.42-2.03-.23-3.89,1.26-4.11,3.32-.22,2.05,1.27,3.89,3.32,4.11,2.77.3,5.55.73,8.26,1.3,7.56,1.58,13.24,3.52,17.86,6.1,2.08,1.16,3.64,2.43,4.64,3.78.77,1.03,1.25,2.94,1.3,5.1.11,5.06-3.52,7.84-5.48,8.98-49.16-20.83-89.14-.66-99.8,5.7-3.58-4.59-9.83-17.28,7.07-37.68,1.32-1.59,1.09-3.94-.49-5.26-1.59-1.32-3.94-1.09-5.26.49-9.49,11.45-13.8,22.45-12.82,32.7.68,7.07,3.77,12.05,6.05,14.83-.17,1.74-.27,3.49-.27,5.28,0,24.8,16.48,45.81,39.07,52.69-5.28,3.38-10.35,7.22-15.05,11.58-1.51,1.4-1.6,3.76-.2,5.28,1.4,1.52,3.76,1.6,5.28.2,14.28-13.23,31.81-21.85,49.38-24.29,17.54-2.43,33.1,3.47,41.64,15.78,2.83,4.07,4.87,8.64,5.91,13.22.4,1.73,1.93,2.9,3.64,2.9.27,0,.55-.03.83-.09,2.01-.46,3.27-2.46,2.81-4.47-1.08-4.72-3.08-9.4-5.74-13.71,10.63-.89,20.64-5.01,28.88-11.5-17.02,73.92-93.13,120.45-170.84,103.91-37.58-8-69.97-29.39-91.38-60.28Z"/>
    <path class="cls-10" d="M671.25,373.44c-6.24-2.93-12.78-5.31-19.49-7.22-3.75,4.51-9.54,7.16-15.82,6.55-7.12-.69-12.81-5.38-15.24-11.6-.53-.03-1.05-.08-1.58-.1-.33,14.31-6.13,27.27-15.41,36.89,10.96,1.65,20.59,6.42,27.64,13.99,21.21.42,40.64-14.15,46.42-35.21-1.13-.54-2.22-1.11-3.3-1.67-1.07-.56-2.14-1.13-3.22-1.63Z"/>
    <path class="cls-10" d="M599.17,346.2c-2.51,6.95-9.06,11.95-16.88,11.95-9.2,0-16.72-6.89-17.87-15.79-28.36,1.73-47.58,14.53-48.14,14.91-.04.84-.13,1.66-.13,2.51,0,24.11,17.91,44.07,41.12,47.4,9.38-4.74,19.26-7.96,29.18-9.33,2.52-.35,5.02-.54,7.46-.59,11.02-8.79,18.12-22.31,18.12-37.47,0-3.21-.33-6.34-.93-9.37-4.04-1.69-8.02-3.09-11.93-4.21Z"/>
    <path class="cls-10" d="M433.36,298.24c3.07,4.28,6.81,9.06,11.31,12.1,4.34,3.7,9.23,5.87,14.46,6.54,14.72,1.88,28.24-8.58,30.12-23.3,1.21-9.47-2.58-18.67-10.14-24.59l-.04-.03c-5.07-4.07-10.26-8.96-16.35-15.37-10.08-10.62-20.33-23.01-32.27-38.97-3.48-4.65-6.75-9.47-9.92-14.14-1.62-2.38-3.23-4.77-4.88-7.14-2.22-3.19-4.14-3.81-5.54-3.81-.25,0-.49.02-.71.05-4.89.65-5.52,5.8-5.19,10.01,1.39,17.55,4.04,34.07,7.87,49.12,5.28,20.73,12.24,36.93,21.29,49.53Z"/>
    <path class="cls-4" d="M556.22,466.73c3.98,1.49,7.72,2.08,11.16,2.08,12.28,0,20.64-7.57,22.52-9.44,3.04.7,6.27,1.14,9.72,1.14,6.72,0,14.18-1.55,22.26-5.5,1.85-.9,2.62-3.14,1.72-4.99-.91-1.86-3.15-2.63-4.99-1.72-5.44,2.66-10.51,3.99-15.21,4.48,6.16-8.67,6.82-18.91,6.82-22.9,3.3-.51,6.69-1.86,9.97-4.44,1.63-1.27,1.91-3.62.64-5.24-1.27-1.62-3.61-1.91-5.24-.64-10.04,7.84-20.73-1.65-21.18-2.06-1.52-1.38-3.87-1.28-5.27.23-1.4,1.52-1.29,3.88.22,5.28,2.77,2.55,7.67,5.57,13.39,6.67.02,3.47-.59,15.49-9.2,22.86-16.6-2.71-26.39-16.02-26.96-16.82-1.2-1.68-3.53-2.06-5.2-.88-1.68,1.19-2.07,3.52-.89,5.2.13.19,7.78,10.66,21.06,16.55-4.31,3.01-12.53,6.96-22.72,3.15-1.94-.72-4.08.26-4.8,2.19-.72,1.93.26,4.08,2.19,4.8Z"/>
    <path class="cls-11" d="M323.47,293.69c1.27-.54,2.08-1.69,2.15-3.07l.93-16.48c.21-3.7,2.22-7.05,5.38-8.98l14.1-8.58c1.18-.72,1.81-1.97,1.69-3.35-.12-1.38-.96-2.5-2.25-3l-15.39-5.97c-3.45-1.34-6.02-4.29-6.88-7.9l-3.81-16.06c-.32-1.35-1.31-2.33-2.66-2.64-1.34-.3-2.67.14-3.54,1.22l-10.44,12.79c-2.34,2.87-5.92,4.42-9.63,4.1l-16.45-1.35c-1.38-.1-2.62.53-3.33,1.71-.71,1.19-.69,2.59.06,3.75l8.94,13.88c2.01,3.11,2.35,7.01.92,10.43l-6.36,15.23c-.53,1.27-.31,2.66.6,3.7.91,1.04,2.25,1.45,3.58,1.1l15.96-4.21c3.59-.94,7.4-.07,10.2,2.35l12.52,10.76c1.05.9,2.44,1.11,3.71.57Z"/>
    <path class="cls-1" d="M314.75,298.96h0c2.09,1.8,4.68,2.73,7.31,2.73,1.49,0,3-.3,4.43-.91,2.28-.97,4.03-2.66,5.23-4.69.88-1.51,1.49-3.19,1.6-5.03l.24-4.27.69-12.21c.07-1.17.7-2.23,1.7-2.83l14.1-8.58c3.69-2.24,5.74-6.3,5.36-10.6-.38-4.3-3.11-7.94-7.14-9.5l-15.39-5.97c-1.09-.42-1.9-1.35-2.17-2.49l-3.81-16.06c-1-4.2-4.22-7.41-8.43-8.37-4.21-.96-8.51.51-11.24,3.85l-10.44,12.79c-.74.9-1.89,1.37-3.04,1.29l-16.45-1.35c-4.3-.38-8.35,1.73-10.56,5.43-2.22,3.7-2.14,8.25.19,11.88l8.94,13.88c.63.98.74,2.21.29,3.29l-6.36,15.23c-1.66,3.98-.94,8.48,1.9,11.73,2.83,3.25,7.18,4.59,11.36,3.49l15.96-4.21c1.13-.3,2.33-.02,3.22.74l2.02,1.74,6.72,5.78,3.78,3.25ZM297.04,280.01l-15.96,4.21c-1.33.35-2.68-.06-3.58-1.1-.91-1.04-1.13-2.43-.6-3.7l6.36-15.23c1.43-3.42,1.08-7.32-.92-10.43l-8.94-13.88c-.75-1.16-.77-2.56-.06-3.75.71-1.19,1.95-1.82,3.33-1.71l16.45,1.35c3.72.32,7.29-1.23,9.63-4.1l10.44-12.79c.87-1.07,2.21-1.52,3.54-1.22,1.35.31,2.34,1.3,2.66,2.64l3.81,16.06c.85,3.6,3.42,6.56,6.88,7.9l15.39,5.97c1.29.5,2.13,1.62,2.25,3,.12,1.38-.51,2.63-1.69,3.35l-14.1,8.58c-3.16,1.93-5.18,5.28-5.38,8.98l-.93,16.48c-.08,1.38-.88,2.53-2.15,3.07-1.27.54-2.65.33-3.71-.57l-12.52-10.76c-2.81-2.42-6.62-3.29-10.2-2.35Z"/>
    <path class="cls-11" d="M548.55,107.38c2.01,3.11,2.35,7.01.92,10.43l-6.36,15.23c-.53,1.27-.31,2.66.6,3.7.91,1.04,2.25,1.46,3.58,1.1l15.96-4.21c3.58-.95,7.39-.07,10.2,2.34l12.52,10.76c1.05.9,2.44,1.12,3.71.57,1.27-.54,2.08-1.69,2.15-3.07l.93-16.48c.21-3.7,2.22-7.06,5.38-8.98l14.1-8.58c1.18-.72,1.81-1.97,1.69-3.35-.12-1.38-.96-2.5-2.25-3l-15.39-5.97c-3.45-1.34-6.02-4.29-6.88-7.9l-3.81-16.06c-.32-1.35-1.31-2.33-2.66-2.64-1.34-.3-2.67.14-3.54,1.22l-10.44,12.79c-2.34,2.87-5.93,4.43-9.63,4.1l-16.45-1.35c-1.39-.08-2.62.53-3.33,1.71-.71,1.19-.69,2.59.06,3.75l8.94,13.88Z"/>
    <path class="cls-1" d="M542.08,111.56c.63.98.74,2.21.29,3.29l-6.36,15.23c-1.66,3.98-.94,8.48,1.9,11.73,2.83,3.25,7.19,4.59,11.36,3.49l15.96-4.21c1.13-.29,2.33-.02,3.22.74l12.52,10.76h0c2.09,1.8,4.68,2.73,7.31,2.73,1.49,0,3-.3,4.43-.91,3.97-1.69,6.58-5.41,6.82-9.72l.93-16.48c.07-1.17.7-2.23,1.7-2.83l14.1-8.58c3.69-2.24,5.74-6.3,5.36-10.6-.38-4.3-3.11-7.94-7.14-9.5l-15.39-5.97c-1.09-.42-1.9-1.35-2.17-2.49l-3.81-16.06c-1-4.2-4.22-7.41-8.43-8.37-4.2-.96-8.51.51-11.24,3.85l-10.44,12.79c-.74.9-1.88,1.37-3.04,1.29l-16.45-1.35c-4.28-.38-8.35,1.73-10.56,5.43-2.22,3.7-2.14,8.25.19,11.88l8.94,13.88ZM539.55,89.76c.71-1.18,1.95-1.8,3.33-1.71l16.45,1.35c3.7.33,7.29-1.23,9.63-4.1l10.44-12.79c.87-1.07,2.21-1.52,3.54-1.22,1.35.31,2.34,1.3,2.66,2.64l3.81,16.06c.85,3.6,3.42,6.56,6.88,7.9l15.39,5.97c1.29.5,2.13,1.62,2.25,3,.12,1.38-.51,2.63-1.69,3.35l-14.1,8.58c-3.16,1.92-5.18,5.28-5.38,8.98l-.93,16.48c-.08,1.38-.88,2.53-2.15,3.07-1.27.55-2.65.33-3.71-.57l-12.52-10.76c-2.81-2.41-6.62-3.29-10.2-2.34l-15.96,4.21c-1.33.36-2.68-.06-3.58-1.1-.91-1.04-1.13-2.43-.6-3.7l6.36-15.23c1.43-3.42,1.08-7.32-.92-10.43l-8.94-13.88c-.75-1.16-.77-2.56-.06-3.75Z"/>
    <path class="cls-1" d="M445.42,393.78c-7.3.23-12.95-1.64-16.72-5.55-6.38-6.64-5.74-17.28-5.72-17.46.15-2.05-1.38-3.84-3.44-4-2.09-.12-3.85,1.38-4.01,3.44-.04.5-.75,10.97,4.99,19.68-3.78,1.1-7.63,3.75-10.38,9.22-.93,1.84-.19,4.09,1.66,5.01.54.27,1.11.4,1.68.4,1.37,0,2.68-.75,3.34-2.06,3.85-7.66,10.17-5.72,11.41-5.25,0,0,0,0,0,0,4.38,2.64,9.7,4.05,15.99,4.05.48,0,.96,0,1.45-.02,2.06-.07,3.68-1.79,3.61-3.85-.07-2.06-1.73-3.65-3.85-3.61Z"/>
    <path class="cls-10" d="M455.75,147.45c1.26-3.21,1.21-6.71-.17-9.87-1.38-3.17-3.9-5.6-7.11-6.87-1.53-.6-3.12-.9-4.72-.9-1.75,0-3.49.36-5.14,1.08-35.71,15.51-68.29,34.73-94.22,55.58-5.54,4.46-6.43,12.6-1.97,18.14,2.34,2.91,5.83,4.66,9.56,4.81h0c3.08.07,6.15-.89,8.57-2.84,24.16-19.42,54.71-37.41,88.34-52.03,3.16-1.37,5.6-3.9,6.86-7.1Z"/>
    <path class="cls-3" d="M449.61,163.64c.91-.4,1.79-.82,2.7-1.22,2.23-.97,4.18-2.34,5.92-3.94,2.37-2.17,4.29-4.81,5.5-7.89,2.1-5.34,2-11.18-.28-16.44-1.45-3.34-3.74-6.12-6.54-8.3-1.61-1.26-3.35-2.36-5.3-3.13-1.21-.48-2.45-.8-3.69-1.05-4.26-.85-8.67-.42-12.73,1.34-36.39,15.81-69.65,35.44-96.18,56.76-9.23,7.42-10.7,20.97-3.28,30.2,3.9,4.85,9.7,7.77,15.92,8,.28,0,.55.01.83.01,4.88,0,9.63-1.66,13.45-4.74,9.65-7.75,20.39-15.26,31.93-22.42,4.69-2.91,9.52-5.76,14.47-8.54,11.81-6.65,24.29-12.91,37.29-18.66ZM360.55,206.59c-2.42,1.95-5.49,2.91-8.57,2.84h0c-3.74-.14-7.23-1.89-9.56-4.81-4.46-5.55-3.57-13.68,1.97-18.14,25.94-20.85,58.52-40.07,94.22-55.58,1.65-.72,3.39-1.08,5.14-1.08,1.59,0,3.19.3,4.72.9,3.21,1.26,5.74,3.7,7.11,6.87,1.37,3.16,1.43,6.67.17,9.87-1.26,3.21-3.7,5.73-6.86,7.1-33.63,14.62-64.18,32.61-88.34,52.03Z"/>
    <path class="cls-5" d="M764.81,678.04c5.58-28.94-1.83-60.78-20.5-84.63-10.9-13.91-25.41-25.02-41.97-32.12-7.31-3.14-14.91-5.4-22.56-6.74-4.74-.83-9.57-1.23-14.42-1.23-24.16,0-49.08,10.05-68.92,28.25-11.2,10.28-20.37,22.62-27.26,36.7-12.85,26.27-16.04,55.29-8.99,81.72.96,3.59,2.13,7.05,3.42,10.41,16.1,2.46,34.55,3.42,54.15,2.64,26.61-22.17,67.48-31.9,101.83-20.71,5.92,1.93,11.56,4.5,16.84,7.55l28.36-21.84Z"/>
    <path class="cls-9" d="M765.38,747.11c-1.54-5.77-4.14-11.34-7.55-16.57l-23.63,18.2c1.93.52,23,6.71,30.79,29.38,1.76-4.46,2.21-8.07,2.26-8.47.91-6.99.27-14.53-1.86-22.54Z"/>
    <path class="cls-9" d="M913.35,605.43l15.67-12.07c5.42,6.73,10.51,12.9,14.31,17.23.4.48.78.95,1.18,1.43l1.52,1.79c1.6,1.89,3.2,3.79,4.84,5.64,14.28,16.15,30.02,24.33,46.78,24.33,10.21,0,18.88-3.12,24.37-5.75l.9-.44c18.72-9.34,29.67-27.2,38.46-41.56l1.45-2.37c9.76-15.85,20.97-29.18,34.29-40.74,3.18-2.76,5.09-6.6,5.39-10.8.3-4.2-1.06-8.27-3.82-11.44-5.7-6.56-15.69-7.26-22.24-1.57-15.77,13.69-29,29.4-40.46,48.02l-1.49,2.43c-7.39,12.05-15.02,24.51-25.44,29.71l-.62.3c-5.13,2.44-17.03,8.11-33.95-11.03-.63-.71-1.24-1.45-1.86-2.18l-17.92-22.79,102.78-79.16c3.18-2.45,5.21-5.98,5.73-9.95.52-3.98-.55-7.91-2.99-11.09-2.95-3.83-7.41-5.84-11.91-5.84-3.2,0-6.42,1.01-9.14,3.11l-103.02,79.34-23.18-29.47c-11.25-18.38-3.77-27.68-.46-31.79,7.9-9.48,21.76-14.04,35.16-18.45l2.78-.91c20.74-6.85,39.07-16.11,56.05-28.31,7.06-5.07,8.68-14.94,3.6-22.01-3.08-4.28-7.92-6.56-12.83-6.56-3.19,0-6.4.96-9.18,2.96-14.33,10.3-29.88,18.14-47.55,23.98l-2.67.88c-15.99,5.26-35.89,11.8-49.3,27.88l-.63.77c-9.97,12.38-23.03,38.41,1.72,73.49,2.78,3.94,5.66,7.8,8.58,11.63h-.02s5.15,6.72,12.17,15.73l-15.37,11.84c-3.18,2.45-5.21,5.98-5.73,9.96-.52,3.97.55,7.91,2.99,11.09,4.89,6.35,14.66,7.65,21.05,2.73Z"/>
  </g>
</svg>