<?xml version="1.0" encoding="UTF-8"?>
<svg id="_레이어_1" data-name="레이어 1" xmlns="http://www.w3.org/2000/svg" version="1.1" viewBox="0 0 1554 94.9">
  <defs>
    <style>
      .cls-1 {
        stroke-width: 7.4px;
      }

      .cls-1, .cls-2, .cls-3, .cls-4 {
        stroke: #232323;
        stroke-miterlimit: 10;
      }

      .cls-1, .cls-2, .cls-3, .cls-4, .cls-5 {
        fill: #ef5261;
      }

      .cls-2 {
        stroke-width: 5.2px;
      }

      .cls-3 {
        stroke-width: 5.4px;
      }

      .cls-4 {
        stroke-width: 6.3px;
      }

      .cls-5 {
        stroke-width: 0px;
      }
    </style>
  </defs>
  <rect class="cls-5" x="-295" y="0" width="2145" height="94.9"/>
  <rect class="cls-1" x="-1162.9" y="1154.7" width="1338.2" height="1209.4"/>
  <rect class="cls-2" x="-296.6" y="0" width="79.4" height="46.2"/>
  <rect class="cls-2" x="-217.1" y="0" width="79.4" height="46.2"/>
  <rect class="cls-2" x="-137.6" y="0" width="79.4" height="46.2"/>
  <rect class="cls-2" x="-258" y="46.3" width="79.4" height="46.2"/>
  <rect class="cls-2" x="-178.6" y="46.3" width="79.4" height="46.2"/>
  <rect class="cls-2" x="-99.2" y="46.3" width="79.4" height="46.2"/>
  <rect class="cls-2" x="20.7" y="0" width="79.4" height="46.2"/>
  <rect class="cls-2" x="100.2" y="0" width="79.4" height="46.2"/>
  <rect class="cls-2" x="179.7" y="0" width="79.4" height="46.2"/>
  <rect class="cls-2" x="259.2" y="0" width="79.4" height="46.2"/>
  <rect class="cls-2" x="338.7" y="0" width="79.4" height="46.2"/>
  <rect class="cls-2" x="418.3" y="0" width="79.4" height="46.2"/>
  <rect class="cls-2" x="-19.8" y="46.3" width="79.4" height="46.2"/>
  <rect class="cls-2" x="59.7" y="46.3" width="79.4" height="46.2"/>
  <rect class="cls-2" x="139.1" y="46.3" width="79.4" height="46.2"/>
  <rect class="cls-2" x="218.4" y="46.3" width="79.4" height="46.2"/>
  <rect class="cls-2" x="297.9" y="46.3" width="79.4" height="46.2"/>
  <rect class="cls-2" x="377.3" y="46.3" width="79.4" height="46.2"/>
  <rect class="cls-2" x="456.6" y="46.3" width="79.4" height="46.2"/>
  <rect class="cls-2" x="-59.5" y="0" width="79.4" height="46.2"/>
  <rect class="cls-2" x="1091.9" y="46.3" width="79.4" height="46.2"/>
  <rect class="cls-2" x="1132.8" y="0" width="79.4" height="46.2"/>
  <rect class="cls-2" x="1172.5" y="46.3" width="79.4" height="46.2"/>
  <rect class="cls-2" x="1053.5" y="0" width="79.4" height="46.2"/>
  <rect class="cls-2" x="933.6" y="46.3" width="79.4" height="46.2"/>
  <rect class="cls-2" x="854.1" y="46.3" width="79.4" height="46.2"/>
  <rect class="cls-2" x="774.6" y="46.3" width="79.4" height="46.2"/>
  <rect class="cls-2" x="695.1" y="46.3" width="79.4" height="46.2"/>
  <rect class="cls-2" x="615.6" y="46.3" width="79.4" height="46.2"/>
  <rect class="cls-2" x="536" y="46.3" width="79.4" height="46.2"/>
  <rect class="cls-2" x="974.1" y="0" width="79.4" height="46.2"/>
  <rect class="cls-2" x="894.6" y="0" width="79.4" height="46.2"/>
  <rect class="cls-2" x="815.2" y="0" width="79.4" height="46.2"/>
  <rect class="cls-2" x="735.9" y="0" width="79.4" height="46.2"/>
  <rect class="cls-2" x="656.4" y="0" width="79.4" height="46.2"/>
  <rect class="cls-2" x="577" y="0" width="79.4" height="46.2"/>
  <rect class="cls-2" x="497.6" y="0" width="79.4" height="46.2"/>
  <rect class="cls-2" x="1013.8" y="46.3" width="79.4" height="46.2"/>
  <rect class="cls-2" x="1251.1" y="46.2" width="79.4" height="46.2"/>
  <rect class="cls-2" x="1291.6" width="79.4" height="46.2"/>
  <rect class="cls-2" x="1212.2" width="79.4" height="46.2"/>
  <rect class="cls-2" x="1647.8" y="46.3" width="79.4" height="46.2"/>
  <rect class="cls-2" x="1688.8" y="0" width="79.4" height="46.2"/>
  <rect class="cls-2" x="1728.4" y="46.3" width="79.4" height="46.2"/>
  <rect class="cls-2" x="1609.4" y="0" width="79.4" height="46.2"/>
  <rect class="cls-2" x="1489.5" y="46.3" width="79.4" height="46.2"/>
  <rect class="cls-2" x="1410" y="46.3" width="79.4" height="46.2"/>
  <rect class="cls-2" x="1330.5" y="46.3" width="79.4" height="46.2"/>
  <rect class="cls-2" x="1530" y="0" width="79.4" height="46.2"/>
  <rect class="cls-2" x="1450.6" y="0" width="79.4" height="46.2"/>
  <rect class="cls-2" x="1371.1" y="0" width="79.4" height="46.2"/>
  <rect class="cls-2" x="1569.7" y="46.3" width="79.4" height="46.2"/>
  <rect class="cls-2" x="1768.1" y="0" width="79.4" height="46.2"/>
  <line class="cls-3" x1="-298" y1="92.4" x2="-260.6" y2="92.4"/>
  <line class="cls-4" x1="1331.4" y1="93" x2="1374.9" y2="93"/>
  <line class="cls-2" x1="1778.3" y1="92.5" x2="1850" y2="92.5"/>
</svg>