<?xml version="1.0" encoding="UTF-8"?>
<svg id="_레이어_1" data-name=" 레이어 1" xmlns="http://www.w3.org/2000/svg" version="1.1" viewBox="0 0 1315.2 1783.6">
  <defs>
    <style>
      .cls-1 {
        fill: #308ac5;
      }

      .cls-1, .cls-2 {
        stroke-width: 0px;
      }

      .cls-3 {
        stroke: #232323;
        stroke-linecap: round;
        stroke-linejoin: round;
        stroke-width: 11.4px;
      }

      .cls-3, .cls-2 {
        fill: #ef5261;
      }
    </style>
  </defs>
  <rect class="cls-1" x="-57.9" y="1455.7" width="1457.6" height="327.9"/>
  <rect class="cls-2" x="-57.9" y="1359.7" width="1357.7" height="116.6"/>
  <g>
    <rect class="cls-3" x="554" y="1418" width="84.5" height="56.6"/>
    <rect class="cls-3" x="469.4" y="1418" width="84.5" height="56.6"/>
    <rect class="cls-3" x="511.7" y="1361.4" width="84.5" height="56.6"/>
    <rect class="cls-3" x="427.1" y="1361.4" width="84.5" height="56.6"/>
    <rect class="cls-3" x="342.5" y="1361.4" width="84.5" height="56.6"/>
    <rect class="cls-3" x="258" y="1361.4" width="84.5" height="56.6"/>
    <rect class="cls-3" x="173.3" y="1361.4" width="84.5" height="56.6"/>
    <rect class="cls-3" x="88.7" y="1361.4" width="84.5" height="56.6"/>
    <rect class="cls-3" x="4.1" y="1361.4" width="84.5" height="56.6"/>
    <rect class="cls-3" x="-80.5" y="1361.4" width="84.5" height="56.6"/>
    <rect class="cls-3" x="-165" y="1361.4" width="84.5" height="56.6"/>
    <rect class="cls-3" x="-249.8" y="1361.4" width="84.5" height="56.6"/>
    <rect class="cls-3" x="-334.3" y="1361.4" width="84.5" height="56.6"/>
    <rect class="cls-3" x="384.9" y="1418" width="84.5" height="56.6"/>
    <rect class="cls-3" x="300.2" y="1418" width="84.5" height="56.6"/>
    <rect class="cls-3" x="215.6" y="1418" width="84.5" height="56.6"/>
    <rect class="cls-3" x="131" y="1418" width="84.5" height="56.6"/>
    <rect class="cls-3" x="46.4" y="1418" width="84.5" height="56.6"/>
    <rect class="cls-3" x="-38.2" y="1418" width="84.5" height="56.6"/>
    <rect class="cls-3" x="-122.7" y="1418" width="84.5" height="56.6"/>
    <rect class="cls-3" x="-207.4" y="1418" width="84.5" height="56.6"/>
    <rect class="cls-3" x="-292" y="1418" width="84.5" height="56.6"/>
    <rect class="cls-3" x="-376.6" y="1418" width="84.5" height="56.6"/>
  </g>
  <g>
    <rect class="cls-3" x="596.2" y="1361.4" width="84.5" height="56.6"/>
    <rect class="cls-3" x="680.8" y="1361.4" width="84.5" height="56.6"/>
    <rect class="cls-3" x="638.5" y="1418" width="84.5" height="56.6"/>
    <rect class="cls-3" x="723.1" y="1418" width="84.5" height="56.6"/>
    <rect class="cls-3" x="807.8" y="1418" width="84.5" height="56.6"/>
    <rect class="cls-3" x="892.3" y="1418" width="84.5" height="56.6"/>
    <rect class="cls-3" x="976.9" y="1418" width="84.5" height="56.6"/>
    <rect class="cls-3" x="1061.5" y="1418" width="84.5" height="56.6"/>
    <rect class="cls-3" x="1146.1" y="1418" width="84.5" height="56.6"/>
    <rect class="cls-3" x="1230.7" y="1418" width="84.5" height="56.6"/>
    <rect class="cls-3" x="1315.3" y="1418" width="84.5" height="56.6"/>
    <rect class="cls-3" x="1400" y="1418" width="84.5" height="56.6"/>
    <rect class="cls-3" x="1484.5" y="1418" width="84.5" height="56.6"/>
    <rect class="cls-3" x="765.3" y="1361.4" width="84.5" height="56.6"/>
    <rect class="cls-3" x="850.1" y="1361.4" width="84.5" height="56.6"/>
    <rect class="cls-3" x="934.6" y="1361.4" width="84.5" height="56.6"/>
    <rect class="cls-3" x="1019.2" y="1361.4" width="84.5" height="56.6"/>
    <rect class="cls-3" x="1103.8" y="1361.4" width="84.5" height="56.6"/>
    <rect class="cls-3" x="1188.4" y="1361.4" width="84.5" height="56.6"/>
    <rect class="cls-3" x="1273" y="1361.4" width="84.5" height="56.6"/>
    <rect class="cls-3" x="1357.7" y="1361.4" width="84.5" height="56.6"/>
    <rect class="cls-3" x="1442.2" y="1361.4" width="84.5" height="56.6"/>
    <rect class="cls-3" x="1526.8" y="1361.4" width="84.5" height="56.6"/>
  </g>
</svg>