<?xml version="1.0" encoding="UTF-8"?>
<svg xmlns="http://www.w3.org/2000/svg" version="1.1" viewBox="0 0 1526.8 2528">
  <defs>
    <style>
      .cls-1 {
        stroke: #232323;
        stroke-linecap: round;
        stroke-linejoin: round;
        stroke-width: 11.4px;
      }

      .cls-1, .cls-2 {
        fill: #ef5261;
      }

      .cls-3 {
        fill: #308ac5;
      }
    </style>
  </defs>
  <!-- Generator: Adobe Illustrator 28.6.0, SVG Export Plug-In . SVG Version: 1.2.0 Build 709)  -->
  <g>
    <g id="_레이어_1" data-name="레이어_1">
      <g id="_레이어_1-2" data-name="_레이어_1">
        <rect class="cls-3" x="-188.1" y="1943" width="1837.6" height="626"/>
        <rect class="cls-2" x="64.8" y="1847" width="1357.7" height="116.6"/>
        <g>
          <rect class="cls-1" x="676.7" y="1905.3" width="84.5" height="56.6"/>
          <rect class="cls-1" x="592.1" y="1905.3" width="84.5" height="56.6"/>
          <rect class="cls-1" x="634.4" y="1848.7" width="84.5" height="56.6"/>
          <rect class="cls-1" x="549.8" y="1848.7" width="84.5" height="56.6"/>
          <rect class="cls-1" x="465.2" y="1848.7" width="84.5" height="56.6"/>
          <rect class="cls-1" x="380.7" y="1848.7" width="84.5" height="56.6"/>
          <rect class="cls-1" x="296" y="1848.7" width="84.5" height="56.6"/>
          <rect class="cls-1" x="211.4" y="1848.7" width="84.5" height="56.6"/>
          <rect class="cls-1" x="126.8" y="1848.7" width="84.5" height="56.6"/>
          <rect class="cls-1" x="42.2" y="1848.7" width="84.5" height="56.6"/>
          <rect class="cls-1" x="-42.3" y="1848.7" width="84.5" height="56.6"/>
          <rect class="cls-1" x="-127.1" y="1848.7" width="84.5" height="56.6"/>
          <rect class="cls-1" x="-211.6" y="1848.7" width="84.5" height="56.6"/>
          <rect class="cls-1" x="507.6" y="1905.3" width="84.5" height="56.6"/>
          <rect class="cls-1" x="422.9" y="1905.3" width="84.5" height="56.6"/>
          <rect class="cls-1" x="338.3" y="1905.3" width="84.5" height="56.6"/>
          <rect class="cls-1" x="253.7" y="1905.3" width="84.5" height="56.6"/>
          <rect class="cls-1" x="169.1" y="1905.3" width="84.5" height="56.6"/>
          <rect class="cls-1" x="84.5" y="1905.3" width="84.5" height="56.6"/>
          <rect class="cls-1" y="1905.3" width="84.5" height="56.6"/>
          <rect class="cls-1" x="-84.7" y="1905.3" width="84.5" height="56.6"/>
          <rect class="cls-1" x="-169.3" y="1905.3" width="84.5" height="56.6"/>
          <rect class="cls-1" x="-253.9" y="1905.3" width="84.5" height="56.6"/>
        </g>
        <g>
          <rect class="cls-1" x="718.9" y="1848.7" width="84.5" height="56.6"/>
          <rect class="cls-1" x="803.5" y="1848.7" width="84.5" height="56.6"/>
          <rect class="cls-1" x="761.2" y="1905.3" width="84.5" height="56.6"/>
          <rect class="cls-1" x="845.8" y="1905.3" width="84.5" height="56.6"/>
          <rect class="cls-1" x="930.5" y="1905.3" width="84.5" height="56.6"/>
          <rect class="cls-1" x="1015" y="1905.3" width="84.5" height="56.6"/>
          <rect class="cls-1" x="1099.6" y="1905.3" width="84.5" height="56.6"/>
          <rect class="cls-1" x="1184.2" y="1905.3" width="84.5" height="56.6"/>
          <rect class="cls-1" x="1268.8" y="1905.3" width="84.5" height="56.6"/>
          <rect class="cls-1" x="1353.4" y="1905.3" width="84.5" height="56.6"/>
          <rect class="cls-1" x="1438" y="1905.3" width="84.5" height="56.6"/>
          <rect class="cls-1" x="1522.7" y="1905.3" width="84.5" height="56.6"/>
          <rect class="cls-1" x="1607.2" y="1905.3" width="84.5" height="56.6"/>
          <rect class="cls-1" x="888" y="1848.7" width="84.5" height="56.6"/>
          <rect class="cls-1" x="972.8" y="1848.7" width="84.5" height="56.6"/>
          <rect class="cls-1" x="1057.3" y="1848.7" width="84.5" height="56.6"/>
          <rect class="cls-1" x="1141.9" y="1848.7" width="84.5" height="56.6"/>
          <rect class="cls-1" x="1226.5" y="1848.7" width="84.5" height="56.6"/>
          <rect class="cls-1" x="1311.1" y="1848.7" width="84.5" height="56.6"/>
          <rect class="cls-1" x="1395.7" y="1848.7" width="84.5" height="56.6"/>
          <rect class="cls-1" x="1480.4" y="1848.7" width="84.5" height="56.6"/>
          <rect class="cls-1" x="1564.9" y="1848.7" width="84.5" height="56.6"/>
          <rect class="cls-1" x="1649.5" y="1848.7" width="84.5" height="56.6"/>
        </g>
      </g>
    </g>
  </g>
</svg>