<?xml version="1.0" encoding="UTF-8"?>
<svg id="_레이어_1" data-name=" 레이어 1" xmlns="http://www.w3.org/2000/svg" version="1.1" viewBox="0 0 1440 1236">
  <defs>
    <style>
      .cls-1 {
        stroke-width: 7.1px;
      }

      .cls-1, .cls-2 {
        fill: #ef5261;
        stroke: #232323;
        stroke-miterlimit: 10;
      }

      .cls-2 {
        stroke-width: 7.4px;
      }
    </style>
  </defs>
  <rect class="cls-2" x="3.6" width="1338.2" height="1209.4"/>
  <rect class="cls-1" x="-51.7" y="1171.5" width="110.5" height="61.6"/>
  <rect class="cls-1" x="59" y="1171.5" width="110.5" height="61.6"/>
  <rect class="cls-1" x="4.8" y="1109.9" width="110.5" height="61.6"/>
  <rect class="cls-1" x="115.5" y="1109.9" width="110.5" height="61.6"/>
  <rect class="cls-1" x="226.2" y="1109.9" width="110.5" height="61.6"/>
  <rect class="cls-1" x="336.9" y="1109.9" width="110.5" height="61.6"/>
  <rect class="cls-1" x="447.6" y="1109.9" width="110.5" height="61.6"/>
  <rect class="cls-1" x="558.3" y="1109.9" width="110.5" height="61.6"/>
  <rect class="cls-1" x="4.8" y="986.5" width="110.5" height="61.6"/>
  <rect class="cls-1" x="115.5" y="986.5" width="110.5" height="61.6"/>
  <rect class="cls-1" x="226.2" y="986.5" width="110.5" height="61.6"/>
  <rect class="cls-1" x="336.9" y="986.5" width="110.5" height="61.6"/>
  <rect class="cls-1" x="447.6" y="986.5" width="110.5" height="61.6"/>
  <rect class="cls-1" x="558.3" y="986.5" width="110.5" height="61.6"/>
  <rect class="cls-1" x="4.8" y="863.2" width="110.5" height="61.6"/>
  <rect class="cls-1" x="115.5" y="863.2" width="110.5" height="61.6"/>
  <rect class="cls-1" x="226.2" y="863.2" width="110.5" height="61.6"/>
  <rect class="cls-1" x="336.9" y="863.2" width="110.5" height="61.6"/>
  <rect class="cls-1" x="447.6" y="863.2" width="110.5" height="61.6"/>
  <rect class="cls-1" x="558.3" y="863.2" width="110.5" height="61.6"/>
  <rect class="cls-1" x="4.8" y="739.9" width="110.5" height="61.6"/>
  <rect class="cls-1" x="115.5" y="739.9" width="110.5" height="61.6"/>
  <rect class="cls-1" x="226.2" y="739.9" width="110.5" height="61.6"/>
  <rect class="cls-1" x="336.9" y="739.9" width="110.5" height="61.6"/>
  <rect class="cls-1" x="447.6" y="739.9" width="110.5" height="61.6"/>
  <rect class="cls-1" x="558.3" y="739.9" width="110.5" height="61.6"/>
  <rect class="cls-1" x="4.8" y="616.6" width="110.5" height="61.6"/>
  <rect class="cls-1" x="115.5" y="616.6" width="110.5" height="61.6"/>
  <rect class="cls-1" x="226.2" y="616.6" width="110.5" height="61.6"/>
  <rect class="cls-1" x="336.9" y="616.6" width="110.5" height="61.6"/>
  <rect class="cls-1" x="447.6" y="616.6" width="110.5" height="61.6"/>
  <rect class="cls-1" x="558.3" y="616.6" width="110.5" height="61.6"/>
  <rect class="cls-1" x="4.8" y="493.3" width="110.5" height="61.6"/>
  <rect class="cls-1" x="115.5" y="493.3" width="110.5" height="61.6"/>
  <rect class="cls-1" x="226.2" y="493.3" width="110.5" height="61.6"/>
  <rect class="cls-1" x="336.9" y="493.3" width="110.5" height="61.6"/>
  <rect class="cls-1" x="447.6" y="493.3" width="110.5" height="61.6"/>
  <rect class="cls-1" x="558.3" y="493.3" width="110.5" height="61.6"/>
  <rect class="cls-1" x="4.8" y="369.9" width="110.5" height="61.6"/>
  <rect class="cls-1" x="115.5" y="369.9" width="110.5" height="61.6"/>
  <rect class="cls-1" x="226.2" y="369.9" width="110.5" height="61.6"/>
  <rect class="cls-1" x="336.9" y="369.9" width="110.5" height="61.6"/>
  <rect class="cls-1" x="447.6" y="369.9" width="110.5" height="61.6"/>
  <rect class="cls-1" x="558.3" y="369.9" width="110.5" height="61.6"/>
  <rect class="cls-1" x="4.8" y="246.6" width="110.5" height="61.6"/>
  <rect class="cls-1" x="115.5" y="246.6" width="110.5" height="61.6"/>
  <rect class="cls-1" x="226.2" y="246.6" width="110.5" height="61.6"/>
  <rect class="cls-1" x="336.9" y="246.6" width="110.5" height="61.6"/>
  <rect class="cls-1" x="447.6" y="246.6" width="110.5" height="61.6"/>
  <rect class="cls-1" x="558.3" y="246.6" width="110.5" height="61.6"/>
  <rect class="cls-1" x="4.8" y="123.2" width="110.5" height="61.6"/>
  <rect class="cls-1" x="115.5" y="123.2" width="110.5" height="61.6"/>
  <rect class="cls-1" x="226.2" y="123.2" width="110.5" height="61.6"/>
  <rect class="cls-1" x="336.9" y="123.2" width="110.5" height="61.6"/>
  <rect class="cls-1" x="447.6" y="123.2" width="110.5" height="61.6"/>
  <rect class="cls-1" x="558.3" y="123.2" width="110.5" height="61.6"/>
  <rect class="cls-1" x="4.8" width="110.5" height="61.6"/>
  <rect class="cls-1" x="115.5" width="110.5" height="61.6"/>
  <rect class="cls-1" x="226.2" width="110.5" height="61.6"/>
  <rect class="cls-1" x="336.9" width="110.5" height="61.6"/>
  <rect class="cls-1" x="447.6" width="110.5" height="61.6"/>
  <rect class="cls-1" x="558.3" width="110.5" height="61.6"/>
  <rect class="cls-1" x="169.5" y="1171.5" width="110.5" height="61.6"/>
  <rect class="cls-1" x="280.1" y="1171.5" width="110.5" height="61.6"/>
  <rect class="cls-1" x="390.7" y="1171.5" width="110.5" height="61.6"/>
  <rect class="cls-1" x="501.3" y="1171.5" width="110.5" height="61.6"/>
  <rect class="cls-1" x="611.8" y="1171.5" width="110.5" height="61.6"/>
  <rect class="cls-1" x="-51.7" y="1048.2" width="110.5" height="61.6"/>
  <rect class="cls-1" x="59" y="1048.2" width="110.5" height="61.6"/>
  <rect class="cls-1" x="169.5" y="1048.2" width="110.5" height="61.6"/>
  <rect class="cls-1" x="280.1" y="1048.2" width="110.5" height="61.6"/>
  <rect class="cls-1" x="390.7" y="1048.2" width="110.5" height="61.6"/>
  <rect class="cls-1" x="501.3" y="1048.2" width="110.5" height="61.6"/>
  <rect class="cls-1" x="611.8" y="1048.2" width="110.5" height="61.6"/>
  <rect class="cls-1" x="-51.7" y="924.9" width="110.5" height="61.6"/>
  <rect class="cls-1" x="59" y="924.9" width="110.5" height="61.6"/>
  <rect class="cls-1" x="169.5" y="924.9" width="110.5" height="61.6"/>
  <rect class="cls-1" x="280.1" y="924.9" width="110.5" height="61.6"/>
  <rect class="cls-1" x="390.7" y="924.9" width="110.5" height="61.6"/>
  <rect class="cls-1" x="501.3" y="924.9" width="110.5" height="61.6"/>
  <rect class="cls-1" x="611.8" y="924.9" width="110.5" height="61.6"/>
  <rect class="cls-1" x="-51.7" y="801.6" width="110.5" height="61.6"/>
  <rect class="cls-1" x="59" y="801.6" width="110.5" height="61.6"/>
  <rect class="cls-1" x="169.5" y="801.6" width="110.5" height="61.6"/>
  <rect class="cls-1" x="280.1" y="801.6" width="110.5" height="61.6"/>
  <rect class="cls-1" x="390.7" y="801.6" width="110.5" height="61.6"/>
  <rect class="cls-1" x="501.3" y="801.6" width="110.5" height="61.6"/>
  <rect class="cls-1" x="611.8" y="801.6" width="110.5" height="61.6"/>
  <rect class="cls-1" x="-51.7" y="678.2" width="110.5" height="61.6"/>
  <rect class="cls-1" x="59" y="678.2" width="110.5" height="61.6"/>
  <rect class="cls-1" x="169.5" y="678.2" width="110.5" height="61.6"/>
  <rect class="cls-1" x="280.1" y="678.2" width="110.5" height="61.6"/>
  <rect class="cls-1" x="390.7" y="678.2" width="110.5" height="61.6"/>
  <rect class="cls-1" x="501.3" y="678.2" width="110.5" height="61.6"/>
  <rect class="cls-1" x="611.8" y="678.2" width="110.5" height="61.6"/>
  <rect class="cls-1" x="-51.7" y="554.9" width="110.5" height="61.6"/>
  <rect class="cls-1" x="59" y="554.9" width="110.5" height="61.6"/>
  <rect class="cls-1" x="169.5" y="554.9" width="110.5" height="61.6"/>
  <rect class="cls-1" x="280.1" y="554.9" width="110.5" height="61.6"/>
  <rect class="cls-1" x="390.7" y="554.9" width="110.5" height="61.6"/>
  <rect class="cls-1" x="501.3" y="554.9" width="110.5" height="61.6"/>
  <rect class="cls-1" x="611.8" y="554.9" width="110.5" height="61.6"/>
  <rect class="cls-1" x="-51.7" y="431.6" width="110.5" height="61.6"/>
  <rect class="cls-1" x="59" y="431.6" width="110.5" height="61.6"/>
  <rect class="cls-1" x="169.5" y="431.6" width="110.5" height="61.6"/>
  <rect class="cls-1" x="280.1" y="431.6" width="110.5" height="61.6"/>
  <rect class="cls-1" x="390.7" y="431.6" width="110.5" height="61.6"/>
  <rect class="cls-1" x="501.3" y="431.6" width="110.5" height="61.6"/>
  <rect class="cls-1" x="611.8" y="431.6" width="110.5" height="61.6"/>
  <rect class="cls-1" x="-51.7" y="308.4" width="110.5" height="61.6"/>
  <rect class="cls-1" x="59" y="308.4" width="110.5" height="61.6"/>
  <rect class="cls-1" x="169.5" y="308.4" width="110.5" height="61.6"/>
  <rect class="cls-1" x="280.1" y="308.4" width="110.5" height="61.6"/>
  <rect class="cls-1" x="390.7" y="308.4" width="110.5" height="61.6"/>
  <rect class="cls-1" x="501.3" y="308.4" width="110.5" height="61.6"/>
  <rect class="cls-1" x="611.8" y="308.4" width="110.5" height="61.6"/>
  <rect class="cls-1" x="-51.7" y="185" width="110.5" height="61.6"/>
  <rect class="cls-1" x="59" y="185" width="110.5" height="61.6"/>
  <rect class="cls-1" x="169.5" y="185" width="110.5" height="61.6"/>
  <rect class="cls-1" x="280.1" y="185" width="110.5" height="61.6"/>
  <rect class="cls-1" x="390.7" y="185" width="110.5" height="61.6"/>
  <rect class="cls-1" x="501.3" y="185" width="110.5" height="61.6"/>
  <rect class="cls-1" x="611.8" y="185" width="110.5" height="61.6"/>
  <rect class="cls-1" x="-51.7" y="61.7" width="110.5" height="61.6"/>
  <rect class="cls-1" x="59" y="61.7" width="110.5" height="61.6"/>
  <rect class="cls-1" x="169.5" y="61.7" width="110.5" height="61.6"/>
  <rect class="cls-1" x="280.1" y="61.7" width="110.5" height="61.6"/>
  <rect class="cls-1" x="390.7" y="61.7" width="110.5" height="61.6"/>
  <rect class="cls-1" x="501.3" y="61.7" width="110.5" height="61.6"/>
  <rect class="cls-1" x="611.8" y="61.7" width="110.5" height="61.6"/>
  <rect class="cls-1" x="722.3" y="1171.5" width="110.5" height="61.6"/>
  <rect class="cls-1" x="833" y="1171.5" width="110.5" height="61.6"/>
  <rect class="cls-1" x="778.8" y="1109.8" width="110.5" height="61.6"/>
  <rect class="cls-1" x="889.5" y="1109.8" width="110.5" height="61.6"/>
  <rect class="cls-1" x="1000.2" y="1109.8" width="110.5" height="61.6"/>
  <rect class="cls-1" x="1110.9" y="1109.8" width="110.5" height="61.6"/>
  <rect class="cls-1" x="1221.6" y="1109.8" width="110.5" height="61.6"/>
  <rect class="cls-1" x="1332.4" y="1109.8" width="110.5" height="61.6"/>
  <rect class="cls-1" x="778.8" y="986.5" width="110.5" height="61.6"/>
  <rect class="cls-1" x="889.5" y="986.5" width="110.5" height="61.6"/>
  <rect class="cls-1" x="1000.2" y="986.5" width="110.5" height="61.6"/>
  <rect class="cls-1" x="1110.9" y="986.5" width="110.5" height="61.6"/>
  <rect class="cls-1" x="1221.6" y="986.5" width="110.5" height="61.6"/>
  <rect class="cls-1" x="1332.4" y="986.5" width="110.5" height="61.6"/>
  <rect class="cls-1" x="778.8" y="863.2" width="110.5" height="61.6"/>
  <rect class="cls-1" x="889.5" y="863.2" width="110.5" height="61.6"/>
  <rect class="cls-1" x="1000.2" y="863.2" width="110.5" height="61.6"/>
  <rect class="cls-1" x="1110.9" y="863.2" width="110.5" height="61.6"/>
  <rect class="cls-1" x="1221.6" y="863.2" width="110.5" height="61.6"/>
  <rect class="cls-1" x="1332.4" y="863.2" width="110.5" height="61.6"/>
  <rect class="cls-1" x="778.8" y="739.9" width="110.5" height="61.6"/>
  <rect class="cls-1" x="889.5" y="739.9" width="110.5" height="61.6"/>
  <rect class="cls-1" x="1000.2" y="739.9" width="110.5" height="61.6"/>
  <rect class="cls-1" x="1110.9" y="739.9" width="110.5" height="61.6"/>
  <rect class="cls-1" x="1221.6" y="739.9" width="110.5" height="61.6"/>
  <rect class="cls-1" x="1332.4" y="739.9" width="110.5" height="61.6"/>
  <rect class="cls-1" x="778.8" y="616.6" width="110.5" height="61.6"/>
  <rect class="cls-1" x="889.5" y="616.6" width="110.5" height="61.6"/>
  <rect class="cls-1" x="1000.2" y="616.6" width="110.5" height="61.6"/>
  <rect class="cls-1" x="1110.9" y="616.6" width="110.5" height="61.6"/>
  <rect class="cls-1" x="1221.6" y="616.6" width="110.5" height="61.6"/>
  <rect class="cls-1" x="1332.4" y="616.6" width="110.5" height="61.6"/>
  <rect class="cls-1" x="778.8" y="493.2" width="110.5" height="61.6"/>
  <rect class="cls-1" x="889.5" y="493.2" width="110.5" height="61.6"/>
  <rect class="cls-1" x="1000.2" y="493.2" width="110.5" height="61.6"/>
  <rect class="cls-1" x="1110.9" y="493.2" width="110.5" height="61.6"/>
  <rect class="cls-1" x="1221.6" y="493.2" width="110.5" height="61.6"/>
  <rect class="cls-1" x="1332.4" y="493.2" width="110.5" height="61.6"/>
  <rect class="cls-1" x="778.8" y="369.9" width="110.5" height="61.6"/>
  <rect class="cls-1" x="889.5" y="369.9" width="110.5" height="61.6"/>
  <rect class="cls-1" x="1000.2" y="369.9" width="110.5" height="61.6"/>
  <rect class="cls-1" x="1110.9" y="369.9" width="110.5" height="61.6"/>
  <rect class="cls-1" x="1221.6" y="369.9" width="110.5" height="61.6"/>
  <rect class="cls-1" x="1332.4" y="369.9" width="110.5" height="61.6"/>
  <rect class="cls-1" x="778.8" y="246.6" width="110.5" height="61.6"/>
  <rect class="cls-1" x="889.5" y="246.6" width="110.5" height="61.6"/>
  <rect class="cls-1" x="1000.2" y="246.6" width="110.5" height="61.6"/>
  <rect class="cls-1" x="1110.9" y="246.6" width="110.5" height="61.6"/>
  <rect class="cls-1" x="1221.6" y="246.6" width="110.5" height="61.6"/>
  <rect class="cls-1" x="1332.4" y="246.6" width="110.5" height="61.6"/>
  <rect class="cls-1" x="778.8" y="123.1" width="110.5" height="61.6"/>
  <rect class="cls-1" x="889.5" y="123.1" width="110.5" height="61.6"/>
  <rect class="cls-1" x="1000.2" y="123.1" width="110.5" height="61.6"/>
  <rect class="cls-1" x="1110.9" y="123.1" width="110.5" height="61.6"/>
  <rect class="cls-1" x="1221.6" y="123.1" width="110.5" height="61.6"/>
  <rect class="cls-1" x="1332.4" y="123.1" width="110.5" height="61.6"/>
  <rect class="cls-1" x="778.8" width="110.5" height="61.6"/>
  <rect class="cls-1" x="889.5" width="110.5" height="61.6"/>
  <rect class="cls-1" x="1000.2" width="110.5" height="61.6"/>
  <rect class="cls-1" x="1110.9" width="110.5" height="61.6"/>
  <rect class="cls-1" x="1221.6" width="110.5" height="61.6"/>
  <rect class="cls-1" x="1332.4" width="110.5" height="61.6"/>
  <rect class="cls-1" x="943.6" y="1171.5" width="110.5" height="61.6"/>
  <rect class="cls-1" x="1054.1" y="1171.5" width="110.5" height="61.6"/>
  <rect class="cls-1" x="1164.7" y="1171.5" width="110.5" height="61.6"/>
  <rect class="cls-1" x="1275.3" y="1171.5" width="110.5" height="61.6"/>
  <rect class="cls-1" x="1385.8" y="1171.5" width="110.5" height="61.6"/>
  <rect class="cls-1" x="722.3" y="1048.2" width="110.5" height="61.6"/>
  <rect class="cls-1" x="833" y="1048.2" width="110.5" height="61.6"/>
  <rect class="cls-1" x="943.6" y="1048.2" width="110.5" height="61.6"/>
  <rect class="cls-1" x="1054.1" y="1048.2" width="110.5" height="61.6"/>
  <rect class="cls-1" x="1164.7" y="1048.2" width="110.5" height="61.6"/>
  <rect class="cls-1" x="1275.3" y="1048.2" width="110.5" height="61.6"/>
  <rect class="cls-1" x="1385.8" y="1048.2" width="110.5" height="61.6"/>
  <rect class="cls-1" x="722.3" y="924.9" width="110.5" height="61.6"/>
  <rect class="cls-1" x="833" y="924.9" width="110.5" height="61.6"/>
  <rect class="cls-1" x="943.6" y="924.9" width="110.5" height="61.6"/>
  <rect class="cls-1" x="1054.1" y="924.9" width="110.5" height="61.6"/>
  <rect class="cls-1" x="1164.7" y="924.9" width="110.5" height="61.6"/>
  <rect class="cls-1" x="1275.3" y="924.9" width="110.5" height="61.6"/>
  <rect class="cls-1" x="1385.8" y="924.9" width="110.5" height="61.6"/>
  <rect class="cls-1" x="722.3" y="801.6" width="110.5" height="61.6"/>
  <rect class="cls-1" x="833" y="801.6" width="110.5" height="61.6"/>
  <rect class="cls-1" x="943.6" y="801.6" width="110.5" height="61.6"/>
  <rect class="cls-1" x="1054.1" y="801.6" width="110.5" height="61.6"/>
  <rect class="cls-1" x="1164.7" y="801.6" width="110.5" height="61.6"/>
  <rect class="cls-1" x="1275.3" y="801.6" width="110.5" height="61.6"/>
  <rect class="cls-1" x="1385.8" y="801.6" width="110.5" height="61.6"/>
  <rect class="cls-1" x="722.3" y="678.2" width="110.5" height="61.6"/>
  <rect class="cls-1" x="833" y="678.2" width="110.5" height="61.6"/>
  <rect class="cls-1" x="943.6" y="678.2" width="110.5" height="61.6"/>
  <rect class="cls-1" x="1054.1" y="678.2" width="110.5" height="61.6"/>
  <rect class="cls-1" x="1164.7" y="678.2" width="110.5" height="61.6"/>
  <rect class="cls-1" x="1275.3" y="678.2" width="110.5" height="61.6"/>
  <rect class="cls-1" x="1385.8" y="678.2" width="110.5" height="61.6"/>
  <rect class="cls-1" x="722.3" y="554.9" width="110.5" height="61.6"/>
  <rect class="cls-1" x="833" y="554.9" width="110.5" height="61.6"/>
  <rect class="cls-1" x="943.6" y="554.9" width="110.5" height="61.6"/>
  <rect class="cls-1" x="1054.1" y="554.9" width="110.5" height="61.6"/>
  <rect class="cls-1" x="1164.7" y="554.9" width="110.5" height="61.6"/>
  <rect class="cls-1" x="1275.3" y="554.9" width="110.5" height="61.6"/>
  <rect class="cls-1" x="1385.8" y="554.9" width="110.5" height="61.6"/>
  <rect class="cls-1" x="722.3" y="431.6" width="110.5" height="61.6"/>
  <rect class="cls-1" x="833" y="431.6" width="110.5" height="61.6"/>
  <rect class="cls-1" x="943.6" y="431.6" width="110.5" height="61.6"/>
  <rect class="cls-1" x="1054.1" y="431.6" width="110.5" height="61.6"/>
  <rect class="cls-1" x="1164.7" y="431.6" width="110.5" height="61.6"/>
  <rect class="cls-1" x="1275.3" y="431.6" width="110.5" height="61.6"/>
  <rect class="cls-1" x="1385.8" y="431.6" width="110.5" height="61.6"/>
  <rect class="cls-1" x="722.3" y="308.4" width="110.5" height="61.6"/>
  <rect class="cls-1" x="833" y="308.4" width="110.5" height="61.6"/>
  <rect class="cls-1" x="943.6" y="308.4" width="110.5" height="61.6"/>
  <rect class="cls-1" x="1054.1" y="308.4" width="110.5" height="61.6"/>
  <rect class="cls-1" x="1164.7" y="308.4" width="110.5" height="61.6"/>
  <rect class="cls-1" x="1275.3" y="308.4" width="110.5" height="61.6"/>
  <rect class="cls-1" x="1385.8" y="308.4" width="110.5" height="61.6"/>
  <rect class="cls-1" x="722.3" y="185" width="110.5" height="61.6"/>
  <rect class="cls-1" x="833" y="185" width="110.5" height="61.6"/>
  <rect class="cls-1" x="943.6" y="185" width="110.5" height="61.6"/>
  <rect class="cls-1" x="1054.1" y="185" width="110.5" height="61.6"/>
  <rect class="cls-1" x="1164.7" y="185" width="110.5" height="61.6"/>
  <rect class="cls-1" x="1275.3" y="185" width="110.5" height="61.6"/>
  <rect class="cls-1" x="1385.8" y="185" width="110.5" height="61.6"/>
  <rect class="cls-1" x="722.3" y="61.7" width="110.5" height="61.6"/>
  <rect class="cls-1" x="833" y="61.7" width="110.5" height="61.6"/>
  <rect class="cls-1" x="943.6" y="61.7" width="110.5" height="61.6"/>
  <rect class="cls-1" x="1054.1" y="61.7" width="110.5" height="61.6"/>
  <rect class="cls-1" x="1164.7" y="61.7" width="110.5" height="61.6"/>
  <rect class="cls-1" x="1275.3" y="61.7" width="110.5" height="61.6"/>
  <rect class="cls-1" x="1385.8" y="61.7" width="110.5" height="61.6"/>
</svg>