<?xml version="1.0" encoding="UTF-8"?>
<svg id="_레이어_1" data-name=" 레이어 1" xmlns="http://www.w3.org/2000/svg" version="1.1" viewBox="0 0 4045.8 2113.2">
  <defs>
    <style>
      .cls-1, .cls-2 {
        stroke-width: 12.5px;
      }

      .cls-1, .cls-2, .cls-3 {
        stroke: #232323;
        stroke-miterlimit: 10;
      }

      .cls-1, .cls-3 {
        fill: none;
      }

      .cls-2, .cls-4 {
        fill: #ef5261;
      }

      .cls-3 {
        stroke-width: 12.7px;
      }

      .cls-4 {
        stroke-width: 0px;
      }
    </style>
  </defs>
  <rect class="cls-4" width="4051.7" height="2107.2"/>
  <rect class="cls-2" y="2002.1" width="101.4" height="104.9"/>
  <rect class="cls-2" y="2002.1" width="202.4" height="104.9"/>
  <g>
    <rect class="cls-2" x="98" y="1897.1" width="202.4" height="104.9"/>
    <rect class="cls-2" x="300.3" y="1897.1" width="202.4" height="104.9"/>
    <rect class="cls-2" x="502.9" y="1897.1" width="202.4" height="104.9"/>
    <rect class="cls-2" x="705.2" y="1897.1" width="202.4" height="104.9"/>
    <rect class="cls-2" x="907.9" y="1897.1" width="202.4" height="104.9"/>
    <rect class="cls-2" x="1110.3" y="1897.1" width="202.4" height="104.9"/>
    <rect class="cls-2" x="1312.9" y="1897.1" width="202.4" height="104.9"/>
    <rect class="cls-2" x="1515.4" y="1897.1" width="202.4" height="104.9"/>
    <rect class="cls-2" x="1717.8" y="1897.1" width="202.4" height="104.9"/>
    <rect class="cls-2" x="1920.4" y="1897.1" width="202.4" height="104.9"/>
    <rect class="cls-2" x="2122.9" y="1897.1" width="202.4" height="104.9"/>
    <rect class="cls-2" x="2326.1" y="1897.1" width="202.4" height="104.9"/>
    <rect class="cls-2" x="2529.2" y="1897.1" width="202.4" height="104.9"/>
  </g>
  <g>
    <rect class="cls-2" x="201.8" y="2002.1" width="202.4" height="104.9"/>
    <rect class="cls-2" x="404.6" y="2002.1" width="202.4" height="104.9"/>
    <rect class="cls-2" x="607.3" y="2002.1" width="202.4" height="104.9"/>
    <rect class="cls-2" x="809.7" y="2002.1" width="202.4" height="104.9"/>
    <rect class="cls-2" x="1012.1" y="2002.1" width="202.4" height="104.9"/>
    <rect class="cls-2" x="1214.4" y="2002.1" width="202.4" height="104.9"/>
    <rect class="cls-2" x="1417" y="2002.1" width="202.4" height="104.9"/>
    <rect class="cls-2" x="1619.4" y="2002.1" width="202.4" height="104.9"/>
    <rect class="cls-2" x="1822.2" y="2002.1" width="202.4" height="104.9"/>
    <rect class="cls-2" x="2024.6" y="2002.1" width="202.4" height="104.9"/>
    <rect class="cls-2" x="2226.9" y="2002.1" width="202.4" height="104.9"/>
    <rect class="cls-2" x="2430" y="2002.1" width="202.4" height="104.9"/>
  </g>
  <rect class="cls-2" y="1792" width="101.4" height="104.9"/>
  <rect class="cls-2" y="1792" width="202.4" height="104.9"/>
  <g>
    <rect class="cls-2" x="98" y="1686.9" width="202.4" height="104.9"/>
    <rect class="cls-2" x="300.3" y="1686.9" width="202.4" height="104.9"/>
    <rect class="cls-2" x="502.9" y="1686.9" width="202.4" height="104.9"/>
    <rect class="cls-2" x="705.2" y="1686.9" width="202.4" height="104.9"/>
    <rect class="cls-2" x="907.9" y="1686.9" width="202.4" height="104.9"/>
    <rect class="cls-2" x="1110.3" y="1686.9" width="202.4" height="104.9"/>
    <rect class="cls-2" x="1312.9" y="1686.9" width="202.4" height="104.9"/>
    <rect class="cls-2" x="1515.4" y="1686.9" width="202.4" height="104.9"/>
    <rect class="cls-2" x="1717.8" y="1686.9" width="202.4" height="104.9"/>
    <rect class="cls-2" x="1920.4" y="1686.9" width="202.4" height="104.9"/>
    <rect class="cls-2" x="2122.9" y="1686.9" width="202.4" height="104.9"/>
    <rect class="cls-2" x="2326.1" y="1686.9" width="202.4" height="104.9"/>
    <rect class="cls-2" x="2529.2" y="1686.9" width="202.4" height="104.9"/>
  </g>
  <g>
    <rect class="cls-2" x="201.8" y="1792" width="202.4" height="104.9"/>
    <rect class="cls-2" x="404.6" y="1792" width="202.4" height="104.9"/>
    <rect class="cls-2" x="607.3" y="1792" width="202.4" height="104.9"/>
    <rect class="cls-2" x="809.7" y="1792" width="202.4" height="104.9"/>
    <rect class="cls-2" x="1012.1" y="1792" width="202.4" height="104.9"/>
    <rect class="cls-2" x="1214.4" y="1792" width="202.4" height="104.9"/>
    <rect class="cls-2" x="1417" y="1792" width="202.4" height="104.9"/>
    <rect class="cls-2" x="1619.4" y="1792" width="202.4" height="104.9"/>
    <rect class="cls-2" x="1822.2" y="1792" width="202.4" height="104.9"/>
    <rect class="cls-2" x="2024.6" y="1792" width="202.4" height="104.9"/>
    <rect class="cls-2" x="2226.9" y="1792" width="202.4" height="104.9"/>
    <rect class="cls-2" x="2430" y="1792" width="202.4" height="104.9"/>
  </g>
  <rect class="cls-2" y="1581.9" width="101.4" height="104.9"/>
  <rect class="cls-2" y="1581.9" width="202.4" height="104.9"/>
  <g>
    <rect class="cls-2" x="98" y="1476.8" width="202.4" height="104.9"/>
    <rect class="cls-2" x="300.3" y="1476.8" width="202.4" height="104.9"/>
    <rect class="cls-2" x="502.9" y="1476.8" width="202.4" height="104.9"/>
    <rect class="cls-2" x="705.2" y="1476.8" width="202.4" height="104.9"/>
    <rect class="cls-2" x="907.9" y="1476.8" width="202.4" height="104.9"/>
    <rect class="cls-2" x="1110.3" y="1476.8" width="202.4" height="104.9"/>
    <rect class="cls-2" x="1312.9" y="1476.8" width="202.4" height="104.9"/>
    <rect class="cls-2" x="1515.4" y="1476.8" width="202.4" height="104.9"/>
    <rect class="cls-2" x="1717.8" y="1476.8" width="202.4" height="104.9"/>
    <rect class="cls-2" x="1920.4" y="1476.8" width="202.4" height="104.9"/>
    <rect class="cls-2" x="2122.9" y="1476.8" width="202.4" height="104.9"/>
    <rect class="cls-2" x="2326.1" y="1476.8" width="202.4" height="104.9"/>
    <rect class="cls-2" x="2529.2" y="1476.8" width="202.4" height="104.9"/>
  </g>
  <g>
    <rect class="cls-2" x="201.8" y="1581.9" width="202.4" height="104.9"/>
    <rect class="cls-2" x="404.6" y="1581.9" width="202.4" height="104.9"/>
    <rect class="cls-2" x="607.3" y="1581.9" width="202.4" height="104.9"/>
    <rect class="cls-2" x="809.7" y="1581.9" width="202.4" height="104.9"/>
    <rect class="cls-2" x="1012.1" y="1581.9" width="202.4" height="104.9"/>
    <rect class="cls-2" x="1214.4" y="1581.9" width="202.4" height="104.9"/>
    <rect class="cls-2" x="1417" y="1581.9" width="202.4" height="104.9"/>
    <rect class="cls-2" x="1619.4" y="1581.9" width="202.4" height="104.9"/>
    <rect class="cls-2" x="1822.2" y="1581.9" width="202.4" height="104.9"/>
    <rect class="cls-2" x="2024.6" y="1581.9" width="202.4" height="104.9"/>
    <rect class="cls-2" x="2226.9" y="1581.9" width="202.4" height="104.9"/>
    <rect class="cls-2" x="2430" y="1581.9" width="202.4" height="104.9"/>
  </g>
  <rect class="cls-2" x="2628.6" y="2002.1" width="202.4" height="104.9"/>
  <rect class="cls-2" x="2831.3" y="2002.1" width="202.4" height="104.9"/>
  <rect class="cls-2" x="2732" y="1897.1" width="202.4" height="104.9"/>
  <rect class="cls-2" x="2934.7" y="1897.1" width="202.4" height="104.9"/>
  <rect class="cls-2" x="3137.4" y="1897.1" width="202.4" height="104.9"/>
  <rect class="cls-2" x="3340.1" y="1897.1" width="202.4" height="104.9"/>
  <rect class="cls-2" x="3542.8" y="1897.1" width="202.4" height="104.9"/>
  <rect class="cls-2" x="3745.6" y="1897.1" width="202.4" height="104.9"/>
  <rect class="cls-2" x="2732" y="1686.9" width="202.4" height="104.9"/>
  <rect class="cls-2" x="2934.7" y="1686.9" width="202.4" height="104.9"/>
  <rect class="cls-2" x="3137.4" y="1686.9" width="202.4" height="104.9"/>
  <rect class="cls-2" x="3340.1" y="1686.9" width="202.4" height="104.9"/>
  <rect class="cls-2" x="3542.8" y="1686.9" width="202.4" height="104.9"/>
  <rect class="cls-2" x="3745.6" y="1686.9" width="202.4" height="104.9"/>
  <rect class="cls-2" x="2732" y="1476.8" width="202.4" height="104.9"/>
  <rect class="cls-2" x="2934.7" y="1476.8" width="202.4" height="104.9"/>
  <rect class="cls-2" x="3137.4" y="1476.8" width="202.4" height="104.9"/>
  <rect class="cls-2" x="3340.1" y="1476.8" width="202.4" height="104.9"/>
  <rect class="cls-2" x="3542.8" y="1476.8" width="202.4" height="104.9"/>
  <rect class="cls-2" x="3745.6" y="1476.8" width="202.4" height="104.9"/>
  <rect class="cls-2" x="2732" y="1266.7" width="202.4" height="104.9"/>
  <rect class="cls-2" x="2934.7" y="1266.7" width="202.4" height="104.9"/>
  <rect class="cls-2" x="3137.4" y="1266.7" width="202.4" height="104.9"/>
  <rect class="cls-2" x="3340.1" y="1266.7" width="202.4" height="104.9"/>
  <rect class="cls-2" x="3542.8" y="1266.7" width="202.4" height="104.9"/>
  <rect class="cls-2" x="3745.6" y="1266.7" width="202.4" height="104.9"/>
  <rect class="cls-2" x="2732" y="1056.6" width="202.4" height="104.9"/>
  <rect class="cls-2" x="2934.7" y="1056.6" width="202.4" height="104.9"/>
  <rect class="cls-2" x="3137.4" y="1056.6" width="202.4" height="104.9"/>
  <rect class="cls-2" x="3340.1" y="1056.6" width="202.4" height="104.9"/>
  <rect class="cls-2" x="3542.8" y="1056.6" width="202.4" height="104.9"/>
  <rect class="cls-2" x="3745.6" y="1056.6" width="202.4" height="104.9"/>
  <rect class="cls-2" x="2732" y="846.5" width="202.4" height="104.9"/>
  <rect class="cls-2" x="2934.7" y="846.5" width="202.4" height="104.9"/>
  <rect class="cls-2" x="3137.4" y="846.5" width="202.4" height="104.9"/>
  <rect class="cls-2" x="3340.1" y="846.5" width="202.4" height="104.9"/>
  <rect class="cls-2" x="3542.8" y="846.5" width="202.4" height="104.9"/>
  <rect class="cls-2" x="3745.6" y="846.5" width="202.4" height="104.9"/>
  <rect class="cls-2" x="2732" y="636.4" width="202.4" height="104.8"/>
  <rect class="cls-2" x="2934.7" y="636.4" width="202.4" height="104.8"/>
  <rect class="cls-2" x="3137.4" y="636.4" width="202.4" height="104.8"/>
  <rect class="cls-2" x="3340.1" y="636.4" width="202.4" height="104.8"/>
  <rect class="cls-2" x="3542.8" y="636.4" width="202.4" height="104.8"/>
  <rect class="cls-2" x="3745.6" y="636.4" width="202.4" height="104.8"/>
  <rect class="cls-2" x="2732" y="426.3" width="202.4" height="104.8"/>
  <rect class="cls-2" x="2934.7" y="426.3" width="202.4" height="104.8"/>
  <rect class="cls-2" x="3137.4" y="426.3" width="202.4" height="104.8"/>
  <rect class="cls-2" x="3340.1" y="426.3" width="202.4" height="104.8"/>
  <rect class="cls-2" x="3542.8" y="426.3" width="202.4" height="104.8"/>
  <rect class="cls-2" x="3745.6" y="426.3" width="202.4" height="104.8"/>
  <rect class="cls-2" x="2732" y="215.9" width="202.4" height="104.8"/>
  <rect class="cls-2" x="2934.7" y="215.9" width="202.4" height="104.8"/>
  <rect class="cls-2" x="3137.4" y="215.9" width="202.4" height="104.8"/>
  <rect class="cls-2" x="3340.1" y="215.9" width="202.4" height="104.8"/>
  <rect class="cls-2" x="3542.8" y="215.9" width="202.4" height="104.8"/>
  <rect class="cls-2" x="3745.6" y="215.9" width="202.4" height="104.8"/>
  <rect class="cls-2" x="2732" y="6.1" width="202.4" height="104.9"/>
  <rect class="cls-2" x="2934.7" y="6.1" width="202.4" height="104.9"/>
  <rect class="cls-2" x="3137.4" y="6.1" width="202.4" height="104.9"/>
  <rect class="cls-2" x="3340.1" y="6.1" width="202.4" height="104.9"/>
  <rect class="cls-2" x="3542.8" y="6.1" width="202.4" height="104.9"/>
  <rect class="cls-2" x="3745.6" y="6.1" width="202.4" height="104.9"/>
  <rect class="cls-2" x="3033.7" y="2002.1" width="202.4" height="104.9"/>
  <rect class="cls-2" x="3236.1" y="2002.1" width="202.4" height="104.9"/>
  <rect class="cls-2" x="3438.6" y="2002.1" width="202.4" height="104.9"/>
  <rect class="cls-2" x="3641.1" y="2002.1" width="202.4" height="104.9"/>
  <rect class="cls-2" x="3843.5" y="2002.1" width="202.4" height="104.9"/>
  <rect class="cls-2" x="2628.6" y="1792" width="202.4" height="104.9"/>
  <rect class="cls-2" x="2831.3" y="1792" width="202.4" height="104.9"/>
  <rect class="cls-2" x="3033.7" y="1792" width="202.4" height="104.9"/>
  <rect class="cls-2" x="3236.1" y="1792" width="202.4" height="104.9"/>
  <rect class="cls-2" x="3438.6" y="1792" width="202.4" height="104.9"/>
  <rect class="cls-2" x="3641.1" y="1792" width="202.4" height="104.9"/>
  <rect class="cls-2" x="3843.5" y="1792" width="202.4" height="104.9"/>
  <rect class="cls-2" x="2628.6" y="1581.9" width="202.4" height="104.9"/>
  <rect class="cls-2" x="2831.3" y="1581.9" width="202.4" height="104.9"/>
  <rect class="cls-2" x="3033.7" y="1581.9" width="202.4" height="104.9"/>
  <rect class="cls-2" x="3236.1" y="1581.9" width="202.4" height="104.9"/>
  <rect class="cls-2" x="3438.6" y="1581.9" width="202.4" height="104.9"/>
  <rect class="cls-2" x="3641.1" y="1581.9" width="202.4" height="104.9"/>
  <rect class="cls-2" x="3843.5" y="1581.9" width="202.4" height="104.9"/>
  <rect class="cls-2" x="2628.6" y="1371.8" width="202.4" height="104.9"/>
  <rect class="cls-2" x="2831.3" y="1371.8" width="202.4" height="104.9"/>
  <rect class="cls-2" x="3033.7" y="1371.8" width="202.4" height="104.9"/>
  <rect class="cls-2" x="3236.1" y="1371.8" width="202.4" height="104.9"/>
  <rect class="cls-2" x="3438.6" y="1371.8" width="202.4" height="104.9"/>
  <rect class="cls-2" x="3641.1" y="1371.8" width="202.4" height="104.9"/>
  <rect class="cls-2" x="3843.5" y="1371.8" width="202.4" height="104.9"/>
  <rect class="cls-2" x="2628.6" y="1161.6" width="202.4" height="104.9"/>
  <rect class="cls-2" x="2831.3" y="1161.6" width="202.4" height="104.9"/>
  <rect class="cls-2" x="3033.7" y="1161.6" width="202.4" height="104.9"/>
  <rect class="cls-2" x="3236.1" y="1161.6" width="202.4" height="104.9"/>
  <rect class="cls-2" x="3438.6" y="1161.6" width="202.4" height="104.9"/>
  <rect class="cls-2" x="3641.1" y="1161.6" width="202.4" height="104.9"/>
  <rect class="cls-2" x="3843.5" y="1161.6" width="202.4" height="104.9"/>
  <rect class="cls-2" x="2628.6" y="951.5" width="202.4" height="104.9"/>
  <rect class="cls-2" x="2831.3" y="951.5" width="202.4" height="104.9"/>
  <rect class="cls-2" x="3033.7" y="951.5" width="202.4" height="104.9"/>
  <rect class="cls-2" x="3236.1" y="951.5" width="202.4" height="104.9"/>
  <rect class="cls-2" x="3438.6" y="951.5" width="202.4" height="104.9"/>
  <rect class="cls-2" x="3641.1" y="951.5" width="202.4" height="104.9"/>
  <rect class="cls-2" x="3843.5" y="951.5" width="202.4" height="104.9"/>
  <rect class="cls-2" x="2628.6" y="741.4" width="202.4" height="104.9"/>
  <rect class="cls-2" x="2831.3" y="741.4" width="202.4" height="104.9"/>
  <rect class="cls-2" x="3033.7" y="741.4" width="202.4" height="104.9"/>
  <rect class="cls-2" x="3236.1" y="741.4" width="202.4" height="104.9"/>
  <rect class="cls-2" x="3438.6" y="741.4" width="202.4" height="104.9"/>
  <rect class="cls-2" x="3641.1" y="741.4" width="202.4" height="104.9"/>
  <rect class="cls-2" x="3843.5" y="741.4" width="202.4" height="104.9"/>
  <rect class="cls-2" x="2628.6" y="531.5" width="202.4" height="104.8"/>
  <rect class="cls-2" x="2831.3" y="531.5" width="202.4" height="104.8"/>
  <rect class="cls-2" x="3033.7" y="531.5" width="202.4" height="104.8"/>
  <rect class="cls-2" x="3236.1" y="531.5" width="202.4" height="104.8"/>
  <rect class="cls-2" x="3438.6" y="531.5" width="202.4" height="104.8"/>
  <rect class="cls-2" x="3641.1" y="531.5" width="202.4" height="104.8"/>
  <rect class="cls-2" x="3843.5" y="531.5" width="202.4" height="104.8"/>
  <rect class="cls-2" x="2628.6" y="321.2" width="202.4" height="104.8"/>
  <rect class="cls-2" x="2831.3" y="321.2" width="202.4" height="104.8"/>
  <rect class="cls-2" x="3033.7" y="321.2" width="202.4" height="104.8"/>
  <rect class="cls-2" x="3236.1" y="321.2" width="202.4" height="104.8"/>
  <rect class="cls-2" x="3438.6" y="321.2" width="202.4" height="104.8"/>
  <rect class="cls-2" x="3641.1" y="321.2" width="202.4" height="104.8"/>
  <rect class="cls-2" x="3843.5" y="321.2" width="202.4" height="104.8"/>
  <rect class="cls-2" x="2628.6" y="111.1" width="202.4" height="104.8"/>
  <rect class="cls-2" x="2831.3" y="111.1" width="202.4" height="104.8"/>
  <rect class="cls-2" x="3033.7" y="111.1" width="202.4" height="104.8"/>
  <rect class="cls-2" x="3236.1" y="111.1" width="202.4" height="104.8"/>
  <rect class="cls-2" x="3438.6" y="111.1" width="202.4" height="104.8"/>
  <rect class="cls-2" x="3641.1" y="111.1" width="202.4" height="104.8"/>
  <rect class="cls-2" x="3843.5" y="111.1" width="202.4" height="104.8"/>
  <rect class="cls-2" y="1371.8" width="101.4" height="104.9"/>
  <rect class="cls-2" y="1371.8" width="202.4" height="104.9"/>
  <g>
    <rect class="cls-2" x="98" y="1266.8" width="202.4" height="104.9"/>
    <rect class="cls-2" x="300.3" y="1266.8" width="202.4" height="104.9"/>
    <rect class="cls-2" x="502.9" y="1266.8" width="202.4" height="104.9"/>
    <rect class="cls-2" x="705.2" y="1266.8" width="202.4" height="104.9"/>
    <rect class="cls-2" x="907.9" y="1266.8" width="202.4" height="104.9"/>
    <rect class="cls-2" x="1110.3" y="1266.8" width="202.4" height="104.9"/>
    <rect class="cls-2" x="1312.9" y="1266.8" width="202.4" height="104.9"/>
    <rect class="cls-2" x="1515.4" y="1266.8" width="202.4" height="104.9"/>
    <rect class="cls-2" x="1717.8" y="1266.8" width="202.4" height="104.9"/>
    <rect class="cls-2" x="1920.4" y="1266.8" width="202.4" height="104.9"/>
    <rect class="cls-2" x="2122.9" y="1266.8" width="202.4" height="104.9"/>
    <rect class="cls-2" x="2326.1" y="1266.8" width="202.4" height="104.9"/>
    <rect class="cls-2" x="2529.2" y="1266.8" width="202.4" height="104.9"/>
  </g>
  <g>
    <rect class="cls-2" x="201.8" y="1371.8" width="202.4" height="104.9"/>
    <rect class="cls-2" x="404.6" y="1371.8" width="202.4" height="104.9"/>
    <rect class="cls-2" x="607.3" y="1371.8" width="202.4" height="104.9"/>
    <rect class="cls-2" x="809.7" y="1371.8" width="202.4" height="104.9"/>
    <rect class="cls-2" x="1012.1" y="1371.8" width="202.4" height="104.9"/>
    <rect class="cls-2" x="1214.4" y="1371.8" width="202.4" height="104.9"/>
    <rect class="cls-2" x="1417" y="1371.8" width="202.4" height="104.9"/>
    <rect class="cls-2" x="1619.4" y="1371.8" width="202.4" height="104.9"/>
    <rect class="cls-2" x="1822.2" y="1371.8" width="202.4" height="104.9"/>
    <rect class="cls-2" x="2024.6" y="1371.8" width="202.4" height="104.9"/>
    <rect class="cls-2" x="2226.9" y="1371.8" width="202.4" height="104.9"/>
    <rect class="cls-2" x="2430" y="1371.8" width="202.4" height="104.9"/>
  </g>
  <rect class="cls-2" y="1161.6" width="101.4" height="104.9"/>
  <rect class="cls-2" y="1161.6" width="202.4" height="104.9"/>
  <g>
    <rect class="cls-2" x="98" y="1056.6" width="202.4" height="104.9"/>
    <rect class="cls-2" x="300.3" y="1056.6" width="202.4" height="104.9"/>
    <rect class="cls-2" x="502.9" y="1056.6" width="202.4" height="104.9"/>
    <rect class="cls-2" x="705.2" y="1056.6" width="202.4" height="104.9"/>
    <rect class="cls-2" x="907.9" y="1056.6" width="202.4" height="104.9"/>
    <rect class="cls-2" x="1110.3" y="1056.6" width="202.4" height="104.9"/>
    <rect class="cls-2" x="1312.9" y="1056.6" width="202.4" height="104.9"/>
    <rect class="cls-2" x="1515.4" y="1056.6" width="202.4" height="104.9"/>
    <rect class="cls-2" x="1717.8" y="1056.6" width="202.4" height="104.9"/>
    <rect class="cls-2" x="1920.4" y="1056.6" width="202.4" height="104.9"/>
    <rect class="cls-2" x="2122.9" y="1056.6" width="202.4" height="104.9"/>
    <rect class="cls-2" x="2326.1" y="1056.6" width="202.4" height="104.9"/>
    <rect class="cls-2" x="2529.2" y="1056.6" width="202.4" height="104.9"/>
  </g>
  <g>
    <rect class="cls-2" x="201.8" y="1161.6" width="202.4" height="104.9"/>
    <rect class="cls-2" x="404.6" y="1161.6" width="202.4" height="104.9"/>
    <rect class="cls-2" x="607.3" y="1161.6" width="202.4" height="104.9"/>
    <rect class="cls-2" x="809.7" y="1161.6" width="202.4" height="104.9"/>
    <rect class="cls-2" x="1012.1" y="1161.6" width="202.4" height="104.9"/>
    <rect class="cls-2" x="1214.4" y="1161.6" width="202.4" height="104.9"/>
    <rect class="cls-2" x="1417" y="1161.6" width="202.4" height="104.9"/>
    <rect class="cls-2" x="1619.4" y="1161.6" width="202.4" height="104.9"/>
    <rect class="cls-2" x="1822.2" y="1161.6" width="202.4" height="104.9"/>
    <rect class="cls-2" x="2024.6" y="1161.6" width="202.4" height="104.9"/>
    <rect class="cls-2" x="2226.9" y="1161.6" width="202.4" height="104.9"/>
    <rect class="cls-2" x="2430" y="1161.6" width="202.4" height="104.9"/>
  </g>
  <rect class="cls-2" y="951.5" width="101.4" height="104.9"/>
  <rect class="cls-2" y="951.5" width="202.4" height="104.9"/>
  <g>
    <rect class="cls-2" x="98" y="846.6" width="202.4" height="104.9"/>
    <rect class="cls-2" x="300.3" y="846.6" width="202.4" height="104.9"/>
    <rect class="cls-2" x="502.9" y="846.6" width="202.4" height="104.9"/>
    <rect class="cls-2" x="705.2" y="846.6" width="202.4" height="104.9"/>
    <rect class="cls-2" x="907.9" y="846.6" width="202.4" height="104.9"/>
    <rect class="cls-2" x="1110.3" y="846.6" width="202.4" height="104.9"/>
    <rect class="cls-2" x="1312.9" y="846.6" width="202.4" height="104.9"/>
    <rect class="cls-2" x="1515.4" y="846.6" width="202.4" height="104.9"/>
    <rect class="cls-2" x="1717.8" y="846.6" width="202.4" height="104.9"/>
    <rect class="cls-2" x="1920.4" y="846.6" width="202.4" height="104.9"/>
    <rect class="cls-2" x="2122.9" y="846.6" width="202.4" height="104.9"/>
    <rect class="cls-2" x="2326.1" y="846.6" width="202.4" height="104.9"/>
    <rect class="cls-2" x="2529.2" y="846.6" width="202.4" height="104.9"/>
  </g>
  <g>
    <rect class="cls-2" x="201.8" y="951.5" width="202.4" height="104.9"/>
    <rect class="cls-2" x="404.6" y="951.5" width="202.4" height="104.9"/>
    <rect class="cls-2" x="607.3" y="951.5" width="202.4" height="104.9"/>
    <rect class="cls-2" x="809.7" y="951.5" width="202.4" height="104.9"/>
    <rect class="cls-2" x="1012.1" y="951.5" width="202.4" height="104.9"/>
    <rect class="cls-2" x="1214.4" y="951.5" width="202.4" height="104.9"/>
    <rect class="cls-2" x="1417" y="951.5" width="202.4" height="104.9"/>
    <rect class="cls-2" x="1619.4" y="951.5" width="202.4" height="104.9"/>
    <rect class="cls-2" x="1822.2" y="951.5" width="202.4" height="104.9"/>
    <rect class="cls-2" x="2024.6" y="951.5" width="202.4" height="104.9"/>
    <rect class="cls-2" x="2226.9" y="951.5" width="202.4" height="104.9"/>
    <rect class="cls-2" x="2430" y="951.5" width="202.4" height="104.9"/>
  </g>
  <rect class="cls-2" y="741.4" width="101.4" height="104.9"/>
  <rect class="cls-2" y="741.4" width="202.4" height="104.9"/>
  <g>
    <rect class="cls-2" x="98" y="636.4" width="202.4" height="104.8"/>
    <rect class="cls-2" x="300.3" y="636.4" width="202.4" height="104.8"/>
    <rect class="cls-2" x="502.9" y="636.4" width="202.4" height="104.8"/>
    <rect class="cls-2" x="705.2" y="636.4" width="202.4" height="104.8"/>
    <rect class="cls-2" x="907.9" y="636.4" width="202.4" height="104.8"/>
    <rect class="cls-2" x="1110.3" y="636.4" width="202.4" height="104.8"/>
    <rect class="cls-2" x="1312.9" y="636.4" width="202.4" height="104.8"/>
    <rect class="cls-2" x="1515.4" y="636.4" width="202.4" height="104.8"/>
    <rect class="cls-2" x="1717.8" y="636.4" width="202.4" height="104.8"/>
    <rect class="cls-2" x="1920.4" y="636.4" width="202.4" height="104.8"/>
    <rect class="cls-2" x="2122.9" y="636.4" width="202.4" height="104.8"/>
    <rect class="cls-2" x="2326.1" y="636.4" width="202.4" height="104.8"/>
    <rect class="cls-2" x="2529.2" y="636.4" width="202.4" height="104.8"/>
  </g>
  <g>
    <rect class="cls-2" x="201.8" y="741.4" width="202.4" height="104.9"/>
    <rect class="cls-2" x="404.6" y="741.4" width="202.4" height="104.9"/>
    <rect class="cls-2" x="607.3" y="741.4" width="202.4" height="104.9"/>
    <rect class="cls-2" x="809.7" y="741.4" width="202.4" height="104.9"/>
    <rect class="cls-2" x="1012.1" y="741.4" width="202.4" height="104.9"/>
    <rect class="cls-2" x="1214.4" y="741.4" width="202.4" height="104.9"/>
    <rect class="cls-2" x="1417" y="741.4" width="202.4" height="104.9"/>
    <rect class="cls-2" x="1619.4" y="741.4" width="202.4" height="104.9"/>
    <rect class="cls-2" x="1822.2" y="741.4" width="202.4" height="104.9"/>
    <rect class="cls-2" x="2024.6" y="741.4" width="202.4" height="104.9"/>
    <rect class="cls-2" x="2226.9" y="741.4" width="202.4" height="104.9"/>
    <rect class="cls-2" x="2430" y="741.4" width="202.4" height="104.9"/>
  </g>
  <rect class="cls-2" y="531.5" width="101.4" height="104.8"/>
  <rect class="cls-2" y="531.5" width="202.4" height="104.8"/>
  <g>
    <rect class="cls-2" x="98" y="426.3" width="202.4" height="104.8"/>
    <rect class="cls-2" x="300.3" y="426.3" width="202.4" height="104.8"/>
    <rect class="cls-2" x="502.9" y="426.3" width="202.4" height="104.8"/>
    <rect class="cls-2" x="705.2" y="426.3" width="202.4" height="104.8"/>
    <rect class="cls-2" x="907.9" y="426.3" width="202.4" height="104.8"/>
    <rect class="cls-2" x="1110.3" y="426.3" width="202.4" height="104.8"/>
    <rect class="cls-2" x="1312.9" y="426.3" width="202.4" height="104.8"/>
    <rect class="cls-2" x="1515.4" y="426.3" width="202.4" height="104.8"/>
    <rect class="cls-2" x="1717.8" y="426.3" width="202.4" height="104.8"/>
    <rect class="cls-2" x="1920.4" y="426.3" width="202.4" height="104.8"/>
    <rect class="cls-2" x="2122.9" y="426.3" width="202.4" height="104.8"/>
    <rect class="cls-2" x="2326.1" y="426.3" width="202.4" height="104.8"/>
    <rect class="cls-2" x="2529.2" y="426.3" width="202.4" height="104.8"/>
  </g>
  <g>
    <rect class="cls-2" x="201.8" y="531.5" width="202.4" height="104.8"/>
    <rect class="cls-2" x="404.6" y="531.5" width="202.4" height="104.8"/>
    <rect class="cls-2" x="607.3" y="531.5" width="202.4" height="104.8"/>
    <rect class="cls-2" x="809.7" y="531.5" width="202.4" height="104.8"/>
    <rect class="cls-2" x="1012.1" y="531.5" width="202.4" height="104.8"/>
    <rect class="cls-2" x="1214.4" y="531.5" width="202.4" height="104.8"/>
    <rect class="cls-2" x="1417" y="531.5" width="202.4" height="104.8"/>
    <rect class="cls-2" x="1619.4" y="531.5" width="202.4" height="104.8"/>
    <rect class="cls-2" x="1822.2" y="531.5" width="202.4" height="104.8"/>
    <rect class="cls-2" x="2024.6" y="531.5" width="202.4" height="104.8"/>
    <rect class="cls-2" x="2226.9" y="531.5" width="202.4" height="104.8"/>
    <rect class="cls-2" x="2430" y="531.5" width="202.4" height="104.8"/>
  </g>
  <rect class="cls-2" y="321.2" width="101.4" height="104.8"/>
  <rect class="cls-2" y="321.2" width="202.4" height="104.8"/>
  <g>
    <rect class="cls-2" x="98" y="215.9" width="202.4" height="104.8"/>
    <rect class="cls-2" x="300.3" y="215.9" width="202.4" height="104.8"/>
    <rect class="cls-2" x="502.9" y="215.9" width="202.4" height="104.8"/>
    <rect class="cls-2" x="705.2" y="215.9" width="202.4" height="104.8"/>
    <rect class="cls-2" x="907.9" y="215.9" width="202.4" height="104.8"/>
    <rect class="cls-2" x="1110.3" y="215.9" width="202.4" height="104.8"/>
    <rect class="cls-2" x="1312.9" y="215.9" width="202.4" height="104.8"/>
    <rect class="cls-2" x="1515.4" y="215.9" width="202.4" height="104.8"/>
    <rect class="cls-2" x="1717.8" y="215.9" width="202.4" height="104.8"/>
    <rect class="cls-2" x="1920.4" y="215.9" width="202.4" height="104.8"/>
    <rect class="cls-2" x="2122.9" y="215.9" width="202.4" height="104.8"/>
    <rect class="cls-2" x="2326.1" y="215.9" width="202.4" height="104.8"/>
    <rect class="cls-2" x="2529.2" y="215.9" width="202.4" height="104.8"/>
  </g>
  <g>
    <rect class="cls-2" x="201.8" y="321.2" width="202.4" height="104.8"/>
    <rect class="cls-2" x="404.6" y="321.2" width="202.4" height="104.8"/>
    <rect class="cls-2" x="607.3" y="321.2" width="202.4" height="104.8"/>
    <rect class="cls-2" x="809.7" y="321.2" width="202.4" height="104.8"/>
    <rect class="cls-2" x="1012.1" y="321.2" width="202.4" height="104.8"/>
    <rect class="cls-2" x="1214.4" y="321.2" width="202.4" height="104.8"/>
    <rect class="cls-2" x="1417" y="321.2" width="202.4" height="104.8"/>
    <rect class="cls-2" x="1619.4" y="321.2" width="202.4" height="104.8"/>
    <rect class="cls-2" x="1822.2" y="321.2" width="202.4" height="104.8"/>
    <rect class="cls-2" x="2024.6" y="321.2" width="202.4" height="104.8"/>
    <rect class="cls-2" x="2226.9" y="321.2" width="202.4" height="104.8"/>
    <rect class="cls-2" x="2430" y="321.2" width="202.4" height="104.8"/>
  </g>
  <rect class="cls-2" y="111.1" width="101.4" height="104.8"/>
  <rect class="cls-2" y="111.1" width="202.4" height="104.8"/>
  <g>
    <rect class="cls-2" x="98" y="6.1" width="202.4" height="104.9"/>
    <rect class="cls-2" x="300.3" y="6.1" width="202.4" height="104.9"/>
    <rect class="cls-2" x="502.9" y="6.1" width="202.4" height="104.9"/>
    <rect class="cls-2" x="705.2" y="6.1" width="202.4" height="104.9"/>
    <rect class="cls-2" x="907.9" y="6.1" width="202.4" height="104.9"/>
    <rect class="cls-2" x="1110.3" y="6.1" width="202.4" height="104.9"/>
    <rect class="cls-2" x="1312.9" y="6.1" width="202.4" height="104.9"/>
    <rect class="cls-2" x="1515.4" y="6.1" width="202.4" height="104.9"/>
    <rect class="cls-2" x="1717.8" y="6.1" width="202.4" height="104.9"/>
    <rect class="cls-2" x="1920.4" y="6.1" width="202.4" height="104.9"/>
    <rect class="cls-2" x="2122.9" y="6.1" width="202.4" height="104.9"/>
    <rect class="cls-2" x="2326.1" y="6.1" width="202.4" height="104.9"/>
    <rect class="cls-2" x="2529.2" y="6.1" width="202.4" height="104.9"/>
  </g>
  <g>
    <rect class="cls-2" x="201.8" y="111.1" width="202.4" height="104.8"/>
    <rect class="cls-2" x="404.6" y="111.1" width="202.4" height="104.8"/>
    <rect class="cls-2" x="607.3" y="111.1" width="202.4" height="104.8"/>
    <rect class="cls-2" x="809.7" y="111.1" width="202.4" height="104.8"/>
    <rect class="cls-2" x="1012.1" y="111.1" width="202.4" height="104.8"/>
    <rect class="cls-2" x="1214.4" y="111.1" width="202.4" height="104.8"/>
    <rect class="cls-2" x="1417" y="111.1" width="202.4" height="104.8"/>
    <rect class="cls-2" x="1619.4" y="111.1" width="202.4" height="104.8"/>
    <rect class="cls-2" x="1822.2" y="111.1" width="202.4" height="104.8"/>
    <rect class="cls-2" x="2024.6" y="111.1" width="202.4" height="104.8"/>
    <rect class="cls-2" x="2226.9" y="111.1" width="202.4" height="104.8"/>
    <rect class="cls-2" x="2430" y="111.1" width="202.4" height="104.8"/>
  </g>
  <line class="cls-1" x1="3948" y1="6.1" x2="4051.7" y2="6.1"/>
  <line class="cls-3" x1="98" y1="6.1" x2="-6.1" y2="6.1"/>
</svg>