<?xml version="1.0" encoding="UTF-8"?>
<svg id="_레이어_1" data-name=" 레이어 1" xmlns="http://www.w3.org/2000/svg" version="1.1" viewBox="0 0 3840 2206.7">
  <defs>
    <style>
      .cls-1 {
        stroke-width: 16px;
      }

      .cls-1, .cls-2, .cls-3, .cls-4 {
        fill: #ef5261;
        stroke: #232323;
      }

      .cls-1, .cls-2, .cls-3, .cls-4, .cls-5 {
        stroke-linecap: round;
        stroke-linejoin: round;
      }

      .cls-2 {
        stroke-width: 16px;
      }

      .cls-3 {
        stroke-width: 17.3px;
      }

      .cls-6 {
        fill: #000;
      }

      .cls-6, .cls-7, .cls-8, .cls-9, .cls-10, .cls-11, .cls-12, .cls-13, .cls-14, .cls-5, .cls-15 {
        stroke: #000;
      }

      .cls-6, .cls-7, .cls-8, .cls-9, .cls-10, .cls-11, .cls-12, .cls-13, .cls-14, .cls-16, .cls-15 {
        stroke-miterlimit: 10;
        stroke-width: 3.9px;
      }

      .cls-7 {
        fill: #057eba;
      }

      .cls-17 {
        fill: #308ac5;
      }

      .cls-17, .cls-18 {
        stroke-width: 0px;
      }

      .cls-4 {
        stroke-width: 15.6px;
      }

      .cls-8 {
        fill: #262626;
      }

      .cls-9 {
        fill: #303030;
      }

      .cls-10 {
        fill: #ff7122;
      }

      .cls-11, .cls-5 {
        fill: #fff;
      }

      .cls-12 {
        fill: #fdd227;
      }

      .cls-18 {
        fill: #266894;
      }

      .cls-13, .cls-16 {
        fill: #2b2b2b;
      }

      .cls-14 {
        fill: #9462e8;
      }

      .cls-5 {
        stroke-width: 20px;
      }

      .cls-16 {
        stroke: #1a1a1a;
      }

      .cls-15 {
        fill: none;
      }
    </style>
  </defs>
  <rect class="cls-17" x="-31.4" y="1689" width="3887.3" height="528.1"/>
  <rect class="cls-4" x="-73.7" y="6.1" width="285.5" height="141.6"/>
  <rect class="cls-1" x="-73.7" y="301.3" width="285.5" height="149.7"/>
  <rect class="cls-1" x="-73.7" y="600.6" width="285.5" height="149.7"/>
  <rect class="cls-1" x="-73.7" y="900" width="285.5" height="149.7"/>
  <rect class="cls-1" x="-73.7" y="1199.3" width="285.5" height="149.7"/>
  <rect class="cls-3" x="-73.7" y="1498.6" width="333.3" height="149.7"/>
  <rect class="cls-1" x="-73.7" y="151.7" width="142.7" height="149.7"/>
  <rect class="cls-1" x="69" y="151.7" width="142.8" height="149.7"/>
  <rect class="cls-1" x="-73.7" y="451" width="142.7" height="149.7"/>
  <rect class="cls-1" x="69" y="451" width="142.8" height="149.7"/>
  <rect class="cls-1" x="-73.7" y="750.3" width="142.7" height="149.7"/>
  <rect class="cls-1" x="69" y="750.3" width="142.8" height="149.7"/>
  <rect class="cls-1" x="-73.7" y="1049.6" width="142.7" height="149.7"/>
  <rect class="cls-1" x="69" y="1049.6" width="142.8" height="149.7"/>
  <rect class="cls-1" x="-73.7" y="1348.9" width="142.7" height="149.7"/>
  <rect class="cls-3" x="-73.7" y="1648.3" width="166.6" height="149.7"/>
  <rect class="cls-3" x="3759.1" y="1648.3" width="166.6" height="149.7"/>
  <rect class="cls-1" x="69" y="1348.9" width="142.8" height="149.7"/>
  <rect class="cls-2" x="3640.2" y="301.4" width="285.6" height="149.7"/>
  <rect class="cls-2" x="3640.2" y="600.8" width="285.6" height="149.7"/>
  <rect class="cls-2" x="3640.2" y="900.1" width="285.6" height="149.7"/>
  <rect class="cls-2" x="3640.2" y="1199.4" width="285.6" height="149.7"/>
  <rect class="cls-2" x="3640.2" y="151.8" width="142.8" height="149.7"/>
  <rect class="cls-2" x="3782.9" y="151.8" width="142.8" height="149.7"/>
  <rect class="cls-2" x="3640.2" y="451.1" width="142.8" height="149.7"/>
  <rect class="cls-2" x="3782.9" y="451.1" width="142.8" height="149.7"/>
  <rect class="cls-2" x="3640.2" y="750.4" width="142.8" height="149.7"/>
  <rect class="cls-2" x="3782.9" y="750.4" width="142.8" height="149.7"/>
  <rect class="cls-2" x="3640.2" y="1049.7" width="142.8" height="149.7"/>
  <rect class="cls-2" x="3782.9" y="1049.7" width="142.8" height="149.7"/>
  <rect class="cls-2" x="3640.2" y="1349.1" width="142.8" height="149.7"/>
  <rect class="cls-2" x="3782.9" y="1349.1" width="142.8" height="149.7"/>
  <rect class="cls-4" x="211.8" y="6.1" width="285.5" height="141.6"/>
  <rect class="cls-4" x="497.4" y="6.1" width="285.5" height="141.6"/>
  <rect class="cls-4" x="782.9" y="6.1" width="285.5" height="141.6"/>
  <rect class="cls-4" x="1068.4" y="6.1" width="285.5" height="141.6"/>
  <rect class="cls-4" x="1353.9" y="6.1" width="285.5" height="141.6"/>
  <rect class="cls-4" x="1639.5" y="6.1" width="285.5" height="141.6"/>
  <rect class="cls-4" x="1925" y="6.1" width="285.5" height="141.6"/>
  <rect class="cls-4" x="2210.6" y="6.1" width="285.5" height="141.6"/>
  <rect class="cls-4" x="2496.1" y="6.1" width="285.5" height="141.6"/>
  <rect class="cls-4" x="2781.7" y="6.1" width="285.5" height="141.6"/>
  <rect class="cls-4" x="3067.2" y="6.1" width="285.5" height="141.6"/>
  <rect class="cls-4" x="3353.7" y="6.1" width="285.5" height="141.6"/>
  <rect class="cls-4" x="3640.2" y="6.1" width="285.5" height="141.6"/>
  <rect class="cls-3" x="259.6" y="1498.6" width="333.3" height="149.7"/>
  <rect class="cls-3" x="92.9" y="1648.3" width="333.3" height="149.7"/>
  <rect class="cls-3" x="426.2" y="1648.3" width="333.3" height="149.7"/>
  <rect class="cls-3" x="759.5" y="1648.3" width="333.3" height="149.7"/>
  <rect class="cls-3" x="1092.8" y="1648.3" width="333.3" height="149.7"/>
  <rect class="cls-3" x="1426.1" y="1648.3" width="333.3" height="149.7"/>
  <rect class="cls-3" x="1759.4" y="1648.3" width="333.3" height="149.7"/>
  <rect class="cls-3" x="2092.7" y="1648.3" width="333.3" height="149.7"/>
  <rect class="cls-3" x="2426" y="1648.3" width="333.3" height="149.7"/>
  <rect class="cls-3" x="2759.3" y="1648.3" width="333.3" height="149.7"/>
  <rect class="cls-3" x="3092.6" y="1648.3" width="333.3" height="149.7"/>
  <rect class="cls-3" x="3425.9" y="1648.3" width="333.3" height="149.7"/>
  <rect class="cls-3" x="592.9" y="1498.6" width="333.3" height="149.7"/>
  <rect class="cls-3" x="926.2" y="1498.6" width="333.3" height="149.7"/>
  <rect class="cls-3" x="1259.4" y="1498.6" width="333.3" height="149.7"/>
  <rect class="cls-3" x="1592.7" y="1498.6" width="333.3" height="149.7"/>
  <rect class="cls-3" x="1926" y="1498.6" width="333.3" height="149.7"/>
  <rect class="cls-3" x="2259.3" y="1498.6" width="333.3" height="149.7"/>
  <rect class="cls-3" x="2592.6" y="1498.6" width="333.3" height="149.7"/>
  <rect class="cls-3" x="2925.9" y="1498.6" width="333.3" height="149.7"/>
  <rect class="cls-3" x="3259.2" y="1498.6" width="333.3" height="149.7"/>
  <rect class="cls-3" x="3592.5" y="1498.6" width="333.3" height="149.7"/>
  <path class="cls-5" d="M3578.3,437c6.7,0,13.2.9,19.5,2.4,17.6-41.8,58.9-71.1,107.1-71.1s21.8,1.6,31.9,4.5c25.7-53.4,80.2-90.2,143.4-90.2s159,71.2,159,159,0,3.8-.1,5.6c11.8-6.6,25.4-10.4,39.9-10.4,41.8,0,76.3,31.4,81.2,71.9h42.3c25.4,0,46,20.6,46,46s-20.6,46-46,46h-624.1c-45.2,0-81.9-36.7-81.9-81.9s36.7-81.9,81.9-81.9h0Z"/>
  <path class="cls-5" d="M418,1438.1c-8.6,0-16.8,1.1-24.8,3.1-22.4-53.1-75-90.4-136.2-90.4-14.1,0-27.7,2.1-40.6,5.8-32.6-67.9-102-114.7-182.4-114.7-111.7,0-202.3,90.6-202.3,202.3,0,2.4,0,4.8.2,7.2-15-8.4-32.3-13.2-50.7-13.2-53.2,0-97,39.9-103.3,91.4h-53.8c-32.3,0-58.5,26.2-58.5,58.5,0,32.3,26.2,58.5,58.5,58.5H418c57.5,0,104.2-46.6,104.2-104.2,0-57.5-46.6-104.2-104.2-104.2Z"/>
  <g>
    <ellipse class="cls-18" cx="2783.1" cy="2010" rx="797.2" ry="121.3"/>
    <g>
      <path class="cls-15" d="M2681.5,1644c-4.2-4.7-8-9.9-11.5-15.2l-146.8,113.1c40.8-5.8,115.9-24.2,176.2-81.7-6.3-4.5-12.3-9.8-17.9-16.1Z"/>
      <path class="cls-15" d="M2272.8,1486.1c-3.1-.9-6.3-2-9.6-3,.4,2.8.5,5.7.3,8.6,0,1.2-8,124,61.4,201.1,14.5,16.1,31.6,29.2,51.3,39.4,16.7-25.2,49.1-42.8,79.6-30.3,4.7,1.9,9.1,4.6,13.3,7.8l177.7-136.8c-1.3-5.4-2.4-10.8-3.3-16.2-54.1-1.6-119.8-10.3-173.7-38.1-16.7-1.3-34.5-3.1-53.6-5.4-43.7-5.2-95-12.5-143.4-27.1Z"/>
      <path class="cls-15" d="M2361.9,589.2c4.7.9,10,3.6,14.8,10.6,2.6,3.8,5.2,7.5,7.7,11.3,4.9,7.2,9.9,14.7,15.2,21.7,8.8,11.8,17,22.3,24.9,31.9l-4.2-104.8c-20.4,9-40,18.8-58.5,29.3Z"/>
      <path class="cls-10" d="M2783.3,1160.9c12.9,2.3,25.7,6.1,38.1,11.4,17,7.3,32.8,17.2,46.7,29.1,60.6-36.3,102.6-94.7,125.2-174-2.1,0-4.2.1-6.1.1-11.9,0-19.9-1.1-20.2-1.2-3.3-.5-5.6-3.6-5.1-6.9.5-3.3,3.6-5.6,6.9-5.1,3.7.5,80.2,11.1,110.4-39.9-4.3,1.6-8.8,2.9-13.3,3.5-2,.2-4,.4-5.9.4-10.5,0-20.2-3.6-28.4-10.6-6.8-5.9-10.6-13.7-10.2-21.1.1-2.1.6-4.6,1.9-7.3-2.3-.2-4.6-.5-6.9-1.1-15.5-3.8-29.6-17.1-26.6-35.3.5-2.8,1.3-5.4,2.3-8-4-2.1-7.5-4.5-10.5-7.4,0,7.7-1.4,16.4-5.2,26.3-10.4,27.1-33.6,34.5-53.1,34.5-7.9,0-15.2-1.2-20.7-2.9-3.2-1-5-4.3-4.1-7.6,1-3.2,4.4-5.1,7.6-4.1,1.8.5,44.7,12.7,58.9-24.3,11.4-29.6-2-46.1-8.5-51.8-9.9,6.6-20.6,7.9-27.1,7.9s-5.8-.4-6.2-.4c-3.3-.5-5.6-3.7-5-7,.5-3.3,3.7-5.6,7-5,1,.1,23.4,3.3,35.2-17,1.4-2.5,4.3-3.4,6.9-2.7,2.7.4,4.9,2.4,5.2,5.2,1.3,11,6.5,37.5,27.4,46.5,16.3,7,35.2.3,42.9-15.3,5.8-11.7,2.3-17.1-5.4-28.9-7.9-12-8.1-23.7-8.2-34.9-.1-7.9-.3-15.4-3-22.5-3.4-8.8-11.6-13.1-23.7-17.1-17.9-5.9-38.5-6.4-58.2-1.4-40.1,10.3-72.8,45.9-83.4,90.9-23.2,98.9,63.4,138.7,67.1,140.3,3.1,1.4,4.5,5,3.1,8-1,2.3-3.2,3.6-5.6,3.6s-1.7-.2-2.5-.5c-.3-.1-7.5-3.4-17.4-10.2-16,59.1-45.1,101.4-86.6,125.8-50.5,29.5-110.3,29.1-150.4,23.9,1.5,1,2.9,2.1,4.5,3.1,13.3,8.2,28.1,11.8,43.8,14.5,22-6,44.6-7.4,66.3-3.6Z"/>
      <path class="cls-10" d="M3045.7,934.6s0,0,0,0c-.2,0-.3.2-.5.2,0,0,0,0,0,0-1.7.9-3.4,1.7-5.2,2.4-.5.2-1.1.3-1.6.4-.4.7-.9,1.4-1.6,1.9-3,2.1-4.6,4.6-4.7,7.5-.2,4,2.3,8.8,6.5,12.5,7.4,6.4,16.2,9,26.1,7.8,19.1-2.4,38.4-18.5,48.2-32.5,10.9-15.6,18.2-38.1,9.8-53-2.9-5.2-8-9.3-14.9-12.2-1.9,4.6-3.9,8.8-5.8,12.2-13.4,24.8-33.3,43.5-56.2,52.8Z"/>
      <path class="cls-10" d="M3053.7,875.3c-9.5,19.2-31.2,28.5-51.7,23.3-.8,1.9-1.4,3.9-1.8,6-2.1,12.3,8.2,20.7,18.6,23.2,6.1,1.5,12.3,1.3,17.3-.6,1.5-.6,3-1.2,4.4-2l1-.6c.3-.1.5-.2.8-.3,20.3-8.5,38-25.4,50.1-47.7,7.7-14.3,18.8-41,6-58.8-1.9-2.6-4.2-4.8-6.9-6.7-6.5-4.4-14.7-6-23-5.5-1,4.8-2.5,9.6-4.5,14-3.1,6.7-7.6,13.6-12.9,20.2,6.3,10.4,10.1,20.3,2.6,35.4Z"/>
      <path class="cls-10" d="M3037.5,779.3c3.5,9.1,3.6,18.1,3.8,26.7.1,8.6.3,16.8,4,24.4,3.7-5,6.8-10.1,9.1-15.1,9.7-21,6-50.2-16.9-60.9-10.2-4.7-21.4-3.8-31.3.6,0,0,0,0,0,0,13.1,4.3,25.9,10.3,31.3,24.3Z"/>
      <path class="cls-10" d="M2221.9,1465.5c0,0-.1-.2-.2-.3-3.2-1.8-6.3-3.7-9.3-5.8-36.1-25-18.8-72.4-10.4-95.1,4-11,9-21.7,14.6-32.1-23.6-7.6-52.9-10-78.2-9.1-27.8,1-53.8,6.7-77.3,17l-2.1.9c-13.6,5.9-32.3,14.1-33.5,28.6-.8,9.6,8,13.1,21.5,17.4,1.8.6,3.6,1.1,5.2,1.7,20.8,7.2,35.8,18.6,44.4,33.8,1.9,3.4,3.4,7,4.5,10.1,2.2,5.7,3.9,11.9,5.7,18.4,4.7,16.9,9.6,34.3,22.3,43.3,20.4,14.4,54-5.6,70.3-23.6,2.2-2.4,5.9-2.6,8.3-.4,2.4,2.2,2.6,5.9.4,8.3-4.1,4.6-9.2,9.1-14.8,13.4-.9,22-1.5,104.1,35.9,182,19.6,1.1,38.4,6.1,54.7,15.2,21.4,11.9,36.5,30.3,46.3,51.7,8.7-2.3,17.5-4,26.2-4.9-15.2-9.5-28.9-21-40.9-34.3-73-81.2-64.8-209.5-64.7-210.8.3-4.6-.5-8.9-2.1-12.9-8-3.1-16.1-6.7-23.9-11-.9-.2-1.8-.6-2.6-1.3Z"/>
      <path class="cls-13" d="M2224.5,1466.8c-.9-.5-1.9-1-2.8-1.6,0,0,.1.2.2.3.8.7,1.7,1.1,2.6,1.3Z"/>
      <path class="cls-11" d="M2377.9,1852.9c-4.1,2-8.4,3-12.8,3-8.8,0-17.4-3.9-23.2-11.4-.6-.8-1-1.7-1.5-2.5-2.2,12-5.5,23.7-9.9,34.7-1,2.5-3.8,3.7-6.3,2.7-2.5-1-3.7-3.8-2.7-6.3,24.3-61.1,15-143.4-42.5-175.6-28-15.7-64.1-18.7-98.9-8.3-36.9,11-67.1,34.8-83,65.4-21,40.4-16.7,87.1-9.4,119.2,1.6,6.9,41.5,169.2,270.7,141.6.2,0,.3,0,.5,0,24.9-4.7,49.2-15.4,70.7-31.7,23.7-18,41.1-40.8,51.9-65.2-2.9.3-5.8.5-8.6.5-40.3,0-76-29.3-94.9-66.1Z"/>
      <path class="cls-11" d="M2347.2,1803.5l14.6-11.2c-.8-15.1.9-31.7,7.6-47.5-11.8.2-23.8,1.8-35.7,4.9,6.7,17.9,9.8,37.5,9.8,57.3,1.1-1.2,2.3-2.4,3.7-3.5Z"/>
      <path class="cls-10" d="M2806,1650.3c-2.2,0-4.4-.1-6.5-.4-1.8-.2-3.6-.5-5.4-.9-4.4,10-12.5,18.1-22.9,22.6-6.9,3-14.5,4.5-22.6,4.5s-1.4,0-2.1,0c-12.9-.4-24.9-3.5-36-9.1-75.5,73.6-174.4,87.1-206.4,89.6l-9.2,7.1c-.1,3-.4,6-.7,8.8-.4,3.6-1,7.1-1.5,10.6-1.4,9.3-2.8,18.2-2,27.1,1.4,17.1,11.4,32.2,29.7,44.7.1,0,.2.2.3.3,32.6-3.4,91.9-13.4,154.1-43.2,68.3-32.7,150.7-94.7,195.7-210.2-2.3.4-4.5.7-6.8.9-5.3,27.5-30,47.6-57.7,47.6Z"/>
      <path class="cls-11" d="M2452,1710.9c-5.5-2.3-11.2-3.3-16.8-3.3-23,0-45.6,17.1-55.6,38-6.1,12.8-8.3,26.5-8.3,39.3l89.7-69.1c-2.9-2-5.9-3.7-9-5Z"/>
      <path class="cls-11" d="M2514.9,1862.9c-20.8-14.3-32.2-31.8-33.9-52-.8-10.1.7-19.9,2.1-29.4.5-3.3,1-6.6,1.4-9.9l-98.5,75.9c20.6,41,63.2,72.2,108.5,58.6,8.8-2.6,21.2-7.2,26.2-16.6,4.7-8.7,1.9-21.4-5.8-26.7Z"/>
      <path class="cls-11" d="M3455,1974.1c44.9-30.5,76-87.7,77.4-142.4.8-30.4-7-73.3-48.8-105.1-27.3-20.7-61.1-30.3-90.5-25.5-16.5,2.6-31.1,9.8-43.2,20.7,6.7,26.7,1.2,56.3-15.9,77.8-18.8,23.7-51.1,37.9-86.2,37.9h0c-3.3,0-5.9-2.6-5.9-5.9,0-3.3,2.6-5.9,5.9-5.9,31.6,0,60.3-12.5,77-33.4,18.4-23.2,21.3-59,6.8-85.3-8.6-15.6-24-27.5-46-35.6-.5,8.7-1.1,17.5-2,26.5,0,.6-.2,1.1-.2,1.7.9-.3,1.8-.5,2.8-.8,3.4-1.1,7.1.8,8.2,4.2,1.1,3.4-.8,7.1-4.2,8.2-25.6,8.2-48.4,11.2-67.8,11.2-49.9,0-78.5-19.6-80.2-20.7-2.9-2.1-3.6-6.1-1.6-9.1,2.1-2.9,6.1-3.6,9.1-1.6,0,0,1,.7,2.7,1.6,0-2.6,0-5.2.3-7.8.7-6.6,1.3-14.3,1.7-22.9-24.4,4.7-42.6,14.4-53.8,29.3-18.1,23.9-20.4,59.8-5.5,85.3,13.4,23.1,40.1,39.5,71.4,44.1,3.2.5,5.5,3.5,5,6.7-.4,2.9-3,5.1-5.8,5.1s-.6,0-.9,0c-26.8-3.9-50.6-15.9-67.1-33.1-23.4,27.5-36.7,62.7-35.5,96.1,1.2,32.7,15.8,60.5,42.2,80.4,39.1,29.4,90.7,37.5,136,41.5,61.1,5.4,148,2.4,214.8-43Z"/>
      <path class="cls-16" d="M3284.1,2029.8c56.4,0,122.8-10.1,176.9-46.9,0,0,0,0,0,0,47.6-32.3,80.6-93,82.1-150.9,1.2-46.5-17.6-86.9-53-113.8-29.5-22.4-66.5-32.7-98.7-27.6-17,2.7-32.2,9.6-45.1,20.2-1.3-3.2-2.7-6.4-4.4-9.5-10.5-19-29.3-33.1-55.8-42.1,5.6-149.8-45.8-270.5-144.3-334.4-14.7-9.6-29.9-17.5-45.3-24.3l41.1-31.7c6.1-.8,11.9-3.1,16.9-6.9l16.1-12.4c5.4,6.9,11.2,14,17.3,21.4.3.4.6.7,1.2,1.3l.9,1.1c2.6,3,5.1,6.1,7.8,9.1,24.7,27.9,52.2,42,81.9,42s33.5-5.5,43.2-10.1l1.5-.7c32.3-16.1,50.5-45.7,65-69.5l2.3-3.7c14.7-23.8,31.5-43.9,51.5-61.2,7.3-6.3,11.7-15.1,12.4-24.8.7-9.6-2.4-19-8.8-26.3h0c-13.1-15.1-36-16.7-51.1-3.6-25.6,22.2-47.1,47.7-65.7,78l-2.3,3.8c-10.7,17.5-21.8,35.6-35.2,42.3l-.9.4c-6.6,3.1-18.8,9-39.6-14.6-2.8-3.2-5.6-6.5-8.3-9.7l-15.5-19.6,152.3-117.3c7.4-5.7,12.2-14,13.4-23.2,1.2-9.3-1.3-18.5-7-25.9-11.8-15.3-33.8-18.1-49.1-6.4l-152.7,117.6-17.9-22.6c-1-1.3-2.2-2.5-3.4-3.6l-1.3-1.7c-.8-1.1-1.6-2.1-2.3-3.2-18.1-25.7-9.6-36.3-4.7-42.3,9.8-11.8,30-18.4,49.5-24.8l4.3-1.4c33.6-11.1,63.4-26.2,91-46,16.2-11.6,19.9-34.3,8.3-50.5-11.7-16.2-34.3-19.9-50.5-8.3-21.5,15.5-44.9,27.2-71.5,36l-4.2,1.4c-26.5,8.7-59.4,19.5-82.6,47.3l-1,1.3c-17.7,21.9-40.9,67.9,2.2,129.1,8.3,11.7,17,23,25.9,34.2l-15.1,11.6c-5.9,4.5-10,10.7-12.1,17.7l-70.5,54.3c-1.6-.4-3.2-.7-4.8-1-19.9-37.1-55.5-62-96.3-62-1.4,0-18.4-.4-40.7,5.7-3-3.6-6.2-7-9.5-10.4,62.9-38.9,106.3-100.7,129.1-184.2,31.9-3.4,73.8-16.8,89.8-61.4,10-6.9,18.7-15.7,24.6-24.2,11.9-17,21.7-44,10.4-64.2-4.1-7.4-11.1-13.1-20.4-17.1,4.7-15.4,6.2-33.3-4.2-47.8-2.6-3.6-5.8-6.7-9.6-9.3-7.9-5.4-17.8-7.6-27.7-7.3.9-20.3-7.6-40.9-27.9-50.3-17.7-8.2-36.4-3.7-50.8,6.4-16.1-2.8-33.4-2.1-49.9,2.1-44.4,11.4-80.6,50.6-92.2,100-16.4,69.8,18.3,113.3,45.5,135.7-14.8,58.4-42.4,99.7-82,123-52.2,30.5-116.8,26.4-154.3,20.2-3.6,4.1-7.7,7.8-12.2,10.9,6,6.1,13.1,11.8,21.2,16.8,9.2,5.7,18.9,9.3,28.9,12-19.2,8-37.5,19.6-53.8,34.5-18.7,17.1-34,37.7-45.4,61.2-21.4,43.8-26.7,92.3-14.9,136.6.7,2.5,1.5,4.8,2.3,7.2-29.1-13.2-55.5-33.2-75.7-58.9,5.3-18.9,23.1-41.5,49.4-60.8,2.9-2.1,3.5-6.2,1.4-9.1-2.1-2.9-6.2-3.5-9.1-1.4-42.7,31.4-63.9,69.2-54,96.3,13.5,36.7,83.4,58.8,173.6,57.5-8.8,9.7-16,20.4-21.2,32-1.4,3.2,0,7,3.3,8.4,3.2,1.4,7,0,8.4-3.3,26-59.2,111.5-93,179.4-70.9,6.7,2.2,13.2,5,19.4,8.2l-51.7,39.8-4.3-4c-.3-2.9,0-4.7,0-4.9.5-3.5-1.9-6.7-5.4-7.2-3.5-.5-6.8,1.9-7.3,5.3-.2,1-3.5,24.9,21.6,47.3,24.4,21.8,50.7,22,51.8,22,3.5,0,6.4-2.9,6.4-6.4s-2.9-6.4-6.4-6.4-3.1,0-8-1l-4.8-4.5,7.3-5.6c0,2.8,1.9,5.4,4.7,6.1,1.4.4,33.2,9.2,41.3,44.2,7.9,33.9-20.7,49.7-21.7,50.3-49.4,23.9-100.9-37.5-101.4-38.1-2.3-2.8-6.4-3.2-9.2-.9-2.8,2.3-3.2,6.4-.9,9.2,1.8,2.2,36.4,43.3,79.3,47.9-5.4,21.6-27.2,37.1-49.5,34.5-31.7-3.6-55.6-33.1-67.1-50.4-2-3-6-3.8-9-1.8-3,2-3.8,6-1.8,9,12.7,19.1,32.3,41.8,58.3,51.6-3.2,6.3-8.5,11.2-15.4,14.2-5.7,2.5-12.1,3.7-19.1,3.4-21.3-.7-40-10-55.7-27.7-28.8-32.6-40.3-87-36.9-123.9.3-3.6-2.3-6.7-5.9-7.1-3.5-.3-6.7,2.3-7.1,5.9-.9,10-.9,21.4.3,33.3-90.9-2.8-213.6-26.5-251.1-128.5-25.3-68.8,4.2-148.9,76.9-208.9,2.8-2.3,3.2-6.4.9-9.2-.2-.2-.5-.4-.7-.6,1-10.7,2.7-21.6,4.9-32.4-3.5-1.7-7-3.5-10.6-5.4-3,13.5-5,27-6,40.4-74.7,63.4-104.5,147.5-77.6,220.6,13.9,37.9,38.6,65.6,68.8,85.8,7.2,4.8,14.7,9.2,22.5,13.2,53.9,27.7,119.6,36.5,173.7,38.1.9,5.4,1.9,10.8,3.3,16.2l-177.7,136.8c-4.2-3.2-8.6-5.9-13.3-7.8-30.4-12.5-62.8,5.1-79.6,30.3-19.6-10.1-36.8-23.2-51.3-39.4-69.4-77.2-61.5-199.9-61.4-201.1.2-2.9.1-5.8-.3-8.6-4.9-1.6-9.8-3.3-14.9-5.2,1.6,4,2.5,8.3,2.1,12.9,0,1.3-8.3,129.6,64.7,210.8,12,13.4,25.7,24.8,40.9,34.3-8.7.9-17.5,2.6-26.2,4.9-9.8-21.4-24.9-39.7-46.3-51.7-16.3-9.1-35-14.1-54.7-15.2-37.4-78-36.8-160.1-35.9-182,5.6-4.2,10.7-8.8,14.8-13.4,2.2-2.4,2-6.1-.4-8.3-2.4-2.2-6.1-2-8.3.4-16.3,18-49.9,38-70.3,23.6-12.7-9-17.6-26.4-22.3-43.3-1.8-6.5-3.5-12.6-5.7-18.4-1.2-3-2.6-6.6-4.5-10.1-8.6-15.2-23.5-26.6-44.4-33.8-1.6-.6-3.4-1.1-5.2-1.7-13.5-4.2-22.3-7.8-21.5-17.4,1.2-14.5,19.9-22.7,33.5-28.6l2.1-.9c23.5-10.3,49.5-16,77.3-17,25.3-.9,54.6,1.5,78.2,9.1,1.9-3.5,3.8-7,5.8-10.4-32-10.9-70-10.9-84.4-10.4-29.3,1-56.8,7.1-81.6,18l-2.1.9c-15.4,6.7-38.7,16.9-40.5,38.4-1.6,19.7,17.2,25.6,29.6,29.5,1.7.5,3.4,1.1,4.9,1.6,18.1,6.2,30.8,15.8,38,28.5,1.6,2.8,2.8,5.8,3.8,8.4,2,5.2,3.6,11.1,5.4,17.4,5.1,18,10.8,38.3,26.9,49.7,7,4.9,14.8,7,23,7s23.6-4.1,34.6-10.2c-.4,30.7,2.7,102.9,34.7,173.2-12.4.5-25,2.5-37.5,6.2-39.4,11.8-71.7,37.3-88.8,70.2-22.4,43-17.9,92.2-10.2,125.9.2,1.1,16.2,66.2,81.8,110.9,34.4,23.5,82.5,41.3,149.1,41.3s9.7-.3,14.7-.5c2.4.1,4.7.2,7.1.2,36.6,0,73.4-12.8,104.6-36.5,2.6-2,5-4.1,7.5-6.3,23-19.5,39.9-43.3,49.9-68.7,1.5-.4,3-.7,4.5-1.2,10.5-3.1,25.2-8.8,32-21.3,4.5-8.3,4.3-18.9.5-27.5,34.7-4.2,91.3-15.1,150.4-43.4,72.4-34.7,160-101,205.4-226,1-.4,1.9-.7,2.9-1.2,8.3-4.4,20.3-14.7,26.4-30.3,27-20.7,44.1-51.1,44.1-84.9s-.5-9.6-1.1-14.2c27.2-9.6,49.8-28.6,64.6-53.5,17,5.5,33,12.7,47.5,22.1,75.3,48.9,86.2,149.9,84.6,214.7-28.7,5-50.2,16.4-63.7,34.2-21.2,28-23.8,68.5-6.3,98.5,1.7,3,3.7,5.8,5.8,8.6-25.7,29.7-40.4,68.1-39.1,104.6,1.3,36,17.4,66.7,46.5,88.5,1,.7,2,1.4,2.9,2.1,40.8,29.3,92.8,37.5,138.6,41.5,13.8,1.2,28.9,2,44.8,2ZM3109.8,1231c.8-6.2,4-11.8,9-15.6l24.1-18.6c-11-14.1-19.1-24.7-19.1-24.7h0c-4.6-6-9.1-12.1-13.5-18.3-38.8-55-18.3-95.8-2.7-115.2l1-1.2c21-25.2,52.2-35.5,77.3-43.7l4.2-1.4c27.7-9.2,52.1-21.5,74.6-37.6,4.4-3.1,9.4-4.6,14.4-4.6,7.7,0,15.3,3.6,20.1,10.3,8,11.1,5.4,26.6-5.7,34.5-26.6,19.1-55.4,33.6-87.9,44.4l-4.4,1.4c-21,6.9-42.7,14.1-55.1,28.9-5.2,6.5-16.9,21,.7,49.9l36.3,46.2,161.5-124.4c4.3-3.3,9.3-4.9,14.3-4.9s14,3.2,18.7,9.2c3.8,5,5.5,11.2,4.7,17.4-.8,6.2-4,11.8-9,15.6l-161.2,124.1,28.1,35.7c1,1.1,1.9,2.3,2.9,3.4,26.5,30,45.2,21.1,53.2,17.3l1-.5c16.3-8.1,28.3-27.7,39.9-46.6l2.3-3.8c18-29.2,38.7-53.8,63.4-75.3,10.3-8.9,25.9-7.8,34.9,2.5,4.3,5,6.5,11.4,6,17.9-.5,6.6-3.5,12.6-8.4,16.9-20.9,18.1-38.5,39-53.8,63.9l-2.3,3.7c-13.8,22.5-30.9,50.5-60.3,65.2l-1.4.7c-8.6,4.1-22.2,9-38.2,9-26.3,0-51-12.8-73.4-38.2-2.6-2.9-5.1-5.9-7.6-8.9l-2.4-2.8c-.6-.7-1.2-1.5-1.8-2.2-6-6.8-13.9-16.5-22.4-27l-24.6,18.9c-10,7.7-25.3,5.7-33-4.3-3.8-5-5.5-11.2-4.7-17.4ZM2508.5,1372.9c-.5-1.2-.8-2.5-1.1-3.8,12.1,13.6,25.9,25.5,40.9,35.4-20.9-8.2-35.2-18.9-39.9-31.6ZM2670,1628.8c3.5,5.4,7.3,10.5,11.5,15.2,5.6,6.3,11.6,11.6,17.9,16.1-60.4,57.6-135.5,75.9-176.2,81.7l146.8-113.1ZM2379.7,1745.6c10-20.9,32.6-38,55.6-38s11.3,1,16.8,3.3c3.1,1.3,6.1,2.9,9,5l-89.7,69.1c0-12.9,2.2-26.5,8.3-39.3ZM2369.5,1744.7c-6.8,15.8-8.4,32.5-7.6,47.5l-14.6,11.2c-1.4,1.1-2.5,2.2-3.7,3.5,0-19.8-3.2-39.4-9.8-57.3,11.9-3.1,23.9-4.7,35.7-4.9ZM2429.5,1983.8c-21.5,16.3-45.8,27-70.7,31.7-.2,0-.3,0-.5,0-229.2,27.6-269.1-134.7-270.7-141.6-7.3-32.1-11.6-78.9,9.4-119.2,15.9-30.5,46.1-54.3,83-65.4,34.9-10.4,70.9-7.4,98.9,8.3,57.5,32.2,66.8,114.5,42.5,175.6-1,2.5.2,5.3,2.7,6.3,2.5,1,5.3-.2,6.3-2.7,4.4-11,7.6-22.7,9.9-34.7.5.8.9,1.7,1.5,2.5,5.8,7.5,14.4,11.4,23.2,11.4s8.7-1,12.8-3c19,36.9,54.6,66.1,94.9,66.1s5.7-.2,8.6-.5c-10.8,24.4-28.2,47.2-51.9,65.2ZM2520.8,1889.5c-5.1,9.3-17.4,13.9-26.2,16.6-45.3,13.6-87.9-17.6-108.5-58.6l98.5-75.9c-.4,3.3-.9,6.6-1.4,9.9-1.5,9.5-3,19.3-2.1,29.4,1.7,20.2,13.1,37.7,33.9,52,7.7,5.3,10.5,18,5.8,26.7ZM2674.8,1811.9c-62.2,29.8-121.5,39.8-154.1,43.2-.1,0-.2-.2-.3-.3-18.3-12.5-28.3-27.6-29.7-44.7-.7-9,.6-17.8,2-27.1.5-3.5,1.1-7.1,1.5-10.6.3-2.8.6-5.7.7-8.8l9.2-7.1c32-2.4,130.9-15.9,206.4-89.6,11.1,5.6,23.1,8.7,36,9.1.7,0,1.4,0,2.1,0,8.1,0,15.7-1.5,22.6-4.5,10.4-4.5,18.4-12.6,22.9-22.6,1.8.3,3.6.7,5.4.9,2.2.3,4.4.4,6.5.4,27.7,0,52.4-20.1,57.7-47.6,2.2-.2,4.5-.5,6.8-.9-44.9,115.5-127.3,177.4-195.7,210.2ZM2927.9,1228.2c37.8,0,70.8,24.4,87.8,60.4l-87.3,67.2c4.8-42.7-6.6-87.8-32.1-123.6,18.1-4.2,31.2-4,31.6-4.1ZM3107.7,869.5c6.9,3,11.9,7,14.9,12.2,8.4,14.9,1.1,37.4-9.8,53-9.8,14-29.1,30.2-48.2,32.5-9.9,1.2-18.7-1.4-26.1-7.8-4.3-3.7-6.8-8.5-6.5-12.5.2-2.9,1.8-5.4,4.7-7.5.7-.5,1.2-1.2,1.6-1.9.5-.2,1.1-.2,1.6-.4,1.8-.7,3.6-1.5,5.2-2.4,0,0,0,0,0,0,.2,0,.3-.2.5-.2,0,0,0,0,0,0,22.9-9.3,42.8-28.1,56.2-52.8,1.9-3.5,3.9-7.7,5.8-12.2ZM3068.6,805.8c8.3-.6,16.6,1.1,23,5.5,2.7,1.9,5.1,4.1,6.9,6.7,12.8,17.9,1.7,44.5-6,58.8-12.1,22.3-29.8,39.2-50.1,47.7-.3.1-.5.1-.8.3l-1,.6c-1.4.8-2.9,1.5-4.4,2-5,1.9-11.2,2.1-17.3.6-10.4-2.5-20.7-10.9-18.6-23.2.3-2.1,1-4.1,1.8-6,20.4,5.2,42.1-4.1,51.7-23.3,7.5-15.1,3.7-25-2.6-35.4,5.4-6.6,9.8-13.6,12.9-20.2,2-4.4,3.5-9.1,4.5-14ZM3037.5,754.4c22.9,10.7,26.6,39.9,16.9,60.9-2.3,5-5.4,10.1-9.1,15.1-3.7-7.6-3.8-15.8-4-24.4-.1-8.6-.3-17.5-3.8-26.7-5.4-14.1-18.2-20-31.3-24.3,0,0,0,0,0,0,9.9-4.3,21.1-5.3,31.3-.6ZM2673.3,1150c-1.6-1-3-2-4.5-3.1,40.1,5.2,99.9,5.7,150.4-23.9,41.6-24.3,70.6-66.6,86.6-125.8,9.9,6.8,17.1,10.1,17.4,10.2.8.4,1.6.5,2.5.5,2.3,0,4.6-1.4,5.6-3.6,1.4-3.1,0-6.7-3.1-8-3.7-1.6-90.3-41.4-67.1-140.3,10.5-45,43.3-80.7,83.4-90.9,19.6-5,40.3-4.5,58.2,1.4,12.2,4,20.4,8.3,23.7,17.1,2.7,7.1,2.9,14.6,3,22.5.2,11.3.4,22.9,8.2,34.9,7.7,11.8,11.2,17.2,5.4,28.9-7.7,15.6-26.6,22.3-42.9,15.3-21-9-26.1-35.5-27.4-46.5-.3-2.8-2.5-4.8-5.2-5.2-2.6-.8-5.5.2-6.9,2.7-11.7,20.4-34.2,17.2-35.2,17-3.3-.6-6.4,1.7-7,5-.5,3.3,1.7,6.5,5,7,.3,0,2.6.4,6.2.4,6.5,0,17.2-1.3,27.1-7.9,6.4,5.8,19.8,22.2,8.5,51.8-14.2,37-57.1,24.9-58.9,24.3-3.2-1-6.6.9-7.6,4.1-1,3.2.9,6.6,4.1,7.6,5.5,1.7,12.8,2.9,20.7,2.9,19.4,0,42.7-7.5,53.1-34.5,3.8-9.9,5.2-18.6,5.2-26.3,3.1,2.8,6.6,5.3,10.5,7.4-1,2.5-1.8,5.2-2.3,8-3,18.2,11.1,31.5,26.6,35.3,2.3.6,4.6.9,6.9,1.1-1.3,2.6-1.8,5.2-1.9,7.3-.4,7.3,3.4,15.2,10.2,21.1,8.1,7,17.8,10.6,28.4,10.6,2,0,3.9-.1,5.9-.4,4.5-.6,8.9-1.9,13.3-3.5-30.2,51-106.7,40.5-110.4,39.9-3.3-.5-6.4,1.8-6.9,5.1-.5,3.3,1.8,6.4,5.1,6.9.3,0,8.2,1.2,20.2,1.2s4,0,6.1-.1c-22.6,79.3-64.6,137.7-125.2,174-13.9-11.9-29.6-21.8-46.7-29.1-12.3-5.3-25.1-9.1-38.1-11.4-21.7-3.8-44.3-2.4-66.3,3.6-15.6-2.7-30.4-6.3-43.8-14.5ZM2843.7,1389c-53.9-17.5-118-2.3-159.7,32.5-30.7,1.2-59.7-.3-84.9-4.1-2-5.3-3.9-10.7-5.4-16.3-11.1-41.4-6.1-86.9,14.1-128.1,10.8-22.1,25.2-41.4,42.7-57.5,31.1-28.5,70.2-44.3,108.1-44.3s15.2.6,22.6,1.9c12,2.1,23.9,5.6,35.4,10.6,26,11.1,48.7,28.5,65.8,50.4,29.3,37.4,40.9,87.3,32.1,132.7l-44.5,34.3c-8.3-4.8-17.1-8.8-26.4-11.8ZM2914.8,1523.5c-12.2-35.5-45.3-45.3-48.3-46.1l37-28.5c5.3,8.2,9.4,16.9,11.8,26,3.4,12.6,4.3,24.4,2.9,35.3,0,.6-.8,6.3-3.5,13.3ZM2918.7,1545.2c0-.8,0-1.7,0-2.5,10.5-14.7,12.4-30.9,12.4-31.1,1.6-12.4.5-25.9-3.3-40.1-2.8-10.6-7.7-20.9-14.1-30.5l15.5-12c10.6,15.1,16.8,32.7,16.8,51.6s-10.3,47-27.4,64.5ZM2955.2,1453.8c-3.3-11.7-8.6-22.6-15.7-32.6l88.1-67.8c-3.4,46.7-32.1,85.4-72.4,100.4ZM3078,1422.9c-15.1-9.8-31.5-17.3-48.8-23,7.5-16.9,11.8-35.7,11.8-55.7s0-.7,0-1l42.3-32.6c17.3,7.1,34.3,15.8,50.6,26.4,102.1,66.3,151.3,197.3,135.2,359.4-.3,2.5-.7,5-1.3,7.4-46.3,10.7-80.8,3.1-100.2-4.2-.7-4.4-.9-8.8-.5-13.4,5.8-58,8.7-199.8-89-263.3ZM3062,1895.3c-1.2-33.4,12.1-68.6,35.5-96.1,16.5,17.2,40.3,29.2,67.1,33.1.3,0,.6,0,.9,0,2.9,0,5.4-2.1,5.8-5.1.5-3.2-1.8-6.2-5-6.7-31.2-4.5-57.9-21-71.4-44.1-14.9-25.6-12.6-61.5,5.5-85.3,11.3-14.8,29.4-24.6,53.8-29.3-.4,8.6-1,16.3-1.7,22.9-.3,2.6-.3,5.2-.3,7.8-1.7-1-2.6-1.6-2.7-1.6-2.9-2.1-7-1.4-9.1,1.6-2.1,2.9-1.4,7,1.6,9.1,1.6,1.2,30.2,20.7,80.2,20.7s42.2-3,67.8-11.2c3.4-1.1,5.3-4.8,4.2-8.2-1.1-3.4-4.7-5.3-8.2-4.2-.9.3-1.8.5-2.8.8,0-.6.2-1.1.2-1.7.9-8.9,1.5-17.7,2-26.5,21.9,8.1,37.3,20,46,35.6,14.5,26.2,11.6,62.1-6.8,85.3-16.6,20.9-45.4,33.4-77,33.4-3.3,0-5.9,2.7-5.9,5.9,0,3.3,2.7,5.9,5.9,5.9h0c35.1,0,67.4-14.2,86.2-37.9,17-21.5,22.6-51.1,15.9-77.8,12.1-10.9,26.7-18,43.2-20.7,29.4-4.7,63.3,4.8,90.5,25.5,41.8,31.8,49.6,74.7,48.8,105.1-1.4,54.7-32.5,111.9-77.4,142.4-66.8,45.4-153.7,48.5-214.8,43-45.3-4-96.9-12.1-136-41.5-26.4-19.9-41-47.7-42.2-80.4Z"/>
      <path class="cls-10" d="M3167,1686.2c-.5,4.5-.3,9,.5,13.4,19.4,7.3,53.8,14.9,100.2,4.2.6-2.4,1.1-4.8,1.3-7.4,16.2-162.1-33.1-293.1-135.2-359.4-16.3-10.6-33.3-19.3-50.6-26.4l-42.3,32.6c0,.3,0,.7,0,1,0,20-4.3,38.8-11.8,55.7,17.3,5.8,33.7,13.2,48.8,23,97.7,63.5,94.8,205.3,89,263.3Z"/>
      <path class="cls-14" d="M2928.5,1355.8l87.3-67.2c-17-36-50-60.4-87.8-60.4-.4,0-13.5-.1-31.6,4.1,25.6,35.7,36.9,80.8,32.1,123.6Z"/>
      <path class="cls-14" d="M2955.2,1453.8c40.3-14.9,69-53.6,72.4-100.4l-88.1,67.8c7.1,9.9,12.4,20.9,15.7,32.6Z"/>
      <path class="cls-14" d="M2913.7,1441.1c6.4,9.6,11.2,19.8,14.1,30.5,3.8,14.2,4.9,27.7,3.3,40.1,0,.2-1.9,16.4-12.4,31.1,0,.8,0,1.7,0,2.5,17.1-17.4,27.4-39.9,27.4-64.5s-6.2-36.5-16.8-51.6l-15.5,12Z"/>
      <path class="cls-7" d="M2424.8,1131.4c-3.1.8-6.3,1.5-9.3,2.3-32.8,9-53.6,31.5-75.6,55.4-2.5,2.7-5,5.4-7.5,8.1-28,29.9-51.1,57.7-70.7,84.9-18.9,26.4-37.9,55-49.3,86-11.8,32.2-19.2,64.5,6.3,82.1,17.7,12.3,38.9,19.6,57.3,25.1,47.6,14.4,98.2,21.6,141.4,26.7,10.3,1.2,20.2,2.3,29.8,3.2-30.2-20.2-54.9-47.9-68.8-85.8-26.9-73.1,2.9-157.3,77.6-220.6,1.1-13.3,3.1-26.8,6-40.4-1.5-.8-2.9-1.5-4.4-2.3-4.6-2.6-20.5-11.8-32.9-24.8Z"/>
      <path class="cls-7" d="M2507.4,1369c.3,1.3.6,2.6,1.1,3.8,4.7,12.7,18.9,23.4,39.9,31.6-15-10-28.8-21.8-40.9-35.4Z"/>
      <path class="cls-9" d="M2202,1364.3c-8.3,22.8-25.7,70.1,10.4,95.1,3,2.1,6.1,4,9.3,5.8.9.5,1.9,1.1,2.8,1.6,7.8,4.3,15.9,7.9,23.9,11,5,1.9,10,3.7,14.9,5.2,3.2,1.1,6.5,2.1,9.6,3,48.4,14.6,99.6,21.9,143.4,27.1,19.1,2.3,36.9,4,53.6,5.4-7.8-4-15.3-8.4-22.5-13.2-9.6-.9-19.4-2-29.8-3.2-43.3-5.2-93.9-12.4-141.4-26.7-18.4-5.6-39.6-12.9-57.3-25.1-25.5-17.6-18.1-49.9-6.3-82.1,11.3-31,30.4-59.7,49.3-86,19.5-27.3,42.7-55,70.7-84.9,2.5-2.7,5-5.4,7.5-8.1,22-23.8,42.8-46.4,75.6-55.4,3-.8,6.2-1.5,9.3-2.3,12.4,13,28.2,22.3,32.9,24.8,1.5.8,3,1.5,4.4,2.3,3.6,1.9,7.1,3.7,10.6,5.4,27.2,13.1,51.4,19.5,74.2,19.5s11.1-.4,16.5-1.1c20.2-2.8,41.7-12,53.1-29.6,5.3-.2,11.1-1.3,17.3-3.6,4.2-1.5,8.3-3.7,12.2-6.3,4.5-3,8.6-6.7,12.2-10.9,5.3-6,9.5-13,11.8-20.2,3-9.5,2.8-18.7-.7-27-3.4,2.1-6.8,4.1-10.3,6.1,2.1,6.5,1.2,12.8-.3,17.3-4.1,12.9-16.1,25.2-29.1,29.9-2.3.8-4.8,1.6-7.4,2.1,1.4-4.4,2.3-9.1,2.5-14.2,0-1.9,0-4.8-.3-8,0-.5,0-1-.2-1.5-.4-2.8-1.1-5.8-2.2-8.7-3.6,1.3-7.2,2.4-10.9,3.5.6,1.5,1.1,3.1,1.4,4.8-2.8,2.9-10.2,9.3-23.4,9.6-3.2,0-5.8,2.7-5.7,6,0,3.2,2.7,5.7,5.8,5.7s0,0,.1,0c10.2-.2,17.9-3.3,23.4-6.7-3.9,25-28.5,37.3-51.2,40.5-29.1,4-60.5-3.9-98.7-24.8-15.1-8.3-41.1-27.2-42.6-45.5-.2-3,.3-5.8,1.4-8.6-3.4-1.8-6.7-3.7-10-5.7-2.3,4.8-3.2,9.9-2.8,15.2.6,7.1,3.6,13.9,7.8,20.1-1.5.4-3,.7-4.5,1.1-35.8,9.8-58.7,34.6-80.8,58.6-2.5,2.7-5,5.4-7.4,8-28.4,30.2-51.8,58.4-71.6,86.1-10.5,14.6-21,30-30.3,46.2-2,3.4-3.9,6.9-5.8,10.4-5.5,10.4-10.5,21.1-14.6,32.1Z"/>
      <path class="cls-10" d="M2616.6,1152.8c-11.5,17.5-32.9,26.8-53.1,29.6-5.4.8-10.9,1.1-16.5,1.1-22.8,0-47-6.4-74.2-19.5-2.3,10.9-4,21.7-4.9,32.4.2.2.5.3.7.6,2.3,2.8,1.9,6.9-.9,9.2-72.7,60-102.2,140.1-76.9,208.9,37.5,102,160.1,125.7,251.1,128.5-1.2-12-1.2-23.3-.3-33.3.3-3.6,3.5-6.2,7.1-5.9,3.6.3,6.2,3.5,5.9,7.1-3.5,36.9,8.1,91.4,36.9,123.9,15.6,17.7,34.4,27,55.7,27.7,7,.3,13.4-.9,19.1-3.4,6.9-3,12.1-8,15.4-14.2-25.9-9.8-45.6-32.5-58.3-51.6-2-3-1.2-7,1.8-9,3-2,7-1.2,9,1.8,11.5,17.3,35.4,46.7,67.1,50.4,22.3,2.6,44.1-13,49.5-34.5-42.9-4.7-77.4-45.7-79.3-47.9-2.3-2.8-1.9-6.9.9-9.2,2.8-2.3,6.9-1.9,9.2.9.5.6,52.1,61.9,101.4,38.1,1-.5,29.6-16.3,21.7-50.3-8.1-35-40-43.8-41.3-44.2-2.9-.8-4.7-3.3-4.7-6.1l-7.3,5.6,4.8,4.5c4.8.9,7.9,1,8,1,3.5,0,6.4,2.9,6.4,6.4s-2.9,6.4-6.4,6.4-27.5-.3-51.8-22c-25.1-22.4-21.8-46.3-21.6-47.3.5-3.5,3.8-5.9,7.3-5.3,3.5.5,5.9,3.8,5.4,7.2,0,.3-.2,2.1,0,4.9l4.3,4,51.7-39.8c-6.2-3.2-12.6-6-19.4-8.2-67.9-22.1-153.4,11.7-179.4,70.9-1.4,3.2-5.2,4.7-8.4,3.3-3.2-1.4-4.7-5.2-3.3-8.4,5.1-11.6,12.4-22.3,21.2-32-90.2,1.3-160.1-20.8-173.6-57.5-9.9-27,11.2-64.8,54-96.3,2.9-2.1,7-1.5,9.1,1.4,2.1,2.9,1.5,7-1.4,9.1-26.3,19.3-44.1,41.9-49.4,60.8,20.3,25.7,46.7,45.7,75.7,58.9-.8-2.4-1.6-4.7-2.3-7.2-11.8-44.3-6.5-92.8,14.9-136.6,11.5-23.4,26.8-44,45.4-61.2,16.2-14.9,34.5-26.5,53.8-34.5-10-2.7-19.7-6.3-28.9-12-8.1-5-15.2-10.7-21.2-16.8-3.9,2.6-8,4.7-12.2,6.3-6.2,2.2-12,3.4-17.3,3.6Z"/>
      <path class="cls-11" d="M2227.3,775c-2.3,1-4.6,1.4-6.9,1.4-4.1,0-8.2-1.5-11.5-4.3h0l-5.9-5.1c-.6,1.6-.9,3.3-.9,5,0,4,1.6,7.6,4.5,10.4,12.7,12.4,31.4,21.2,55,26.2-.6-6.4-.9-12.9-.7-19.4.1-3.7.3-7.3.5-10.8-10.4-2.8-19-6.4-25.9-10.9-1.9,3.2-4.6,5.8-8.2,7.4Z"/>
      <path class="cls-6" d="M2235.5,767.6c6.9,4.4,15.5,8.1,25.9,10.9.3-4.7.7-9.3,1.3-13.6-10.4-2.9-18.6-6.9-24.3-11.8l-.4,6.7c-.2,2.9-1.1,5.5-2.5,7.9Z"/>
      <path class="cls-6" d="M2206.5,782.5c-2.8-2.8-4.4-6.5-4.5-10.4,0-1.7.3-3.4.9-5l-10.5-9.1c-2.5,4.3-3.8,9.2-3.8,14.2,0,7.5,3.1,14.6,8.5,19.9,15.3,14.9,37.9,25.2,66.2,30.7-.8-4.6-1.4-9.3-1.8-14.1-23.6-5.1-42.3-13.9-55-26.2Z"/>
      <path class="cls-7" d="M2624.4,1116.5c.1.5.2,1,.2,1.5.4,3.2.4,6.1.3,8-.2,5.2-1.1,9.9-2.5,14.2,2.6-.6,5.2-1.3,7.4-2.1,13-4.7,24.9-16.9,29.1-29.9,1.5-4.6,2.4-10.8.3-17.3-11.8,6.6-24.1,12.2-36.9,16.8,1.1,2.9,1.8,5.9,2.2,8.7Z"/>
      <path class="cls-7" d="M2488.4,1116.5c-4.6-1-9.1-2.1-13.7-3.3.7,1.5.9,3.2.1,4.8-.9,2.1-3,3.4-5.2,3.4s-1.6-.2-2.3-.5c-10.2-4.6-17-10.9-21.4-17.4-8.2-3.3-16.3-7.1-24-11.2-1.2,2.8-1.7,5.6-1.4,8.6,1.5,18.3,27.5,37.2,42.6,45.5,38.2,21,69.5,28.8,98.7,24.8,22.7-3.1,47.3-15.4,51.2-40.5-5.5,3.4-13.2,6.5-23.4,6.7,0,0,0,0-.1,0-3.2,0-5.8-2.5-5.8-5.7,0-3.2,2.5-5.9,5.7-6,13.2-.3,20.6-6.6,23.4-9.6-.3-1.7-.8-3.3-1.4-4.8-22.6,6.9-46.5,10.7-71,10.7s-34.5-1.8-51.9-5.5Z"/>
      <path class="cls-9" d="M2467.4,1120.8c.8.3,1.5.5,2.3.5,2.2,0,4.2-1.3,5.2-3.4.7-1.6.6-3.3-.1-4.8-9.9-2.7-19.5-5.9-28.8-9.7,4.5,6.5,11.2,12.8,21.4,17.4Z"/>
      <path class="cls-7" d="M2442.7,447.7l-5.7,3.8c-2.8-4.2-4.2-5.5-5.5-5.3-.2,0-1.9.4-1.8,3.3l2.1,51.2c4.4,3.4,8,7.8,10.3,13,3.6,8.3,3.7,17.4.4,25.8-1.9,4.8-4.9,9-8.6,12.4l5.1,127c45.2-18.8,95.5-23.5,145-13l-146.7-214,5.4-4.3Z"/>
      <path class="cls-9" d="M2431.8,500.7l-2.1-51.2c-.1-2.9,1.6-3.3,1.8-3.3,1.3-.2,2.7,1.1,5.5,5.3l5.7-3.8-5.4,4.3,146.7,214c.1,0,.2,0,.3,0,6.8,1.5,13.5,3.2,20.1,5.2l-154.7-225.6-1.2-1.8c-2.8-4.2-8.7-13-19.6-11.2-11.2,2.5-13.3,12.8-12.9,17.6l1.8,43.9c2,.4,3.9.9,5.8,1.6,3.1,1.2,5.8,2.9,8.3,4.9Z"/>
      <path class="cls-9" d="M2424.6,558.1c-1.4.6-2.8,1.3-4.2,1.9l4.2,104.8c4.3,5.2,8.5,10.2,12.7,14.9.6-.2,1.2-.5,1.7-.7l-5.1-127c-2.7,2.5-5.8,4.7-9.3,6.2Z"/>
      <path class="cls-11" d="M2713.6,739.1c3.4-5.2,6.8-10.5,10.1-16.2,12.3-21.1,23.4-44.8,33.1-70.7,2.3-6.2,3.6-14.2-3.5-17.3-.8-.3-1.8-.7-3-.7-2,0-4.6.8-8,3.6-3.5,2.9-7,5.8-10.4,8.6-6.8,5.7-13.8,11.5-21.1,17-17.7,13.4-33.2,24.4-47.9,33.9,19,11.7,36,25.8,50.7,41.7Z"/>
      <path class="cls-10" d="M2758.8,942.1c-12.9,10.2-28.6,16.6-45.3,18,4.2,6.8,7.3,14.1,9,21.5.7,3.2-1.3,6.3-4.4,7-.4.1-.9.1-1.3.1-2.7,0-5.1-1.8-5.7-4.6-1.6-7.2-4.8-14.3-9.3-20.7-13.4-19.3-37.8-28.6-65.3-24.7-27.5,3.8-55,17.3-77.4,38.1-2.4,2.2-6.1,2.1-8.3-.3-2.2-2.4-2.1-6.1.3-8.3,7.4-6.8,15.3-12.8,23.6-18.2-35.4-10.8-61.3-43.7-61.3-82.6s.2-5.5.4-8.3c-3.6-4.4-8.4-12.2-9.5-23.3-1.5-16.1,5.2-33.3,20.1-51.3,2.1-2.5,5.8-2.8,8.2-.8,2.5,2.1,2.8,5.8.8,8.2-26.5,32-16.7,51.9-11.1,59.1,16.7-10,79.4-41.6,156.5-8.9,3.1-1.8,8.8-6.1,8.6-14.1,0-3.4-.8-6.4-2-8-1.6-2.1-4-4.1-7.3-5.9-7.2-4-16.1-7.1-28-9.6-4.2-.9-8.6-1.6-13-2-3.2-.3-5.5-3.2-5.2-6.4.3-3.2,3.3-5.6,6.4-5.2,4.7.5,9.5,1.3,14.1,2.2,8.6,1.8,15.7,3.9,22,6.5-.9-5.2-3.6-12.6-12.1-17.9-2.6-1.6-3.4-5.1-1.8-7.7,1.6-2.6,5.1-3.4,7.7-1.8,17.4,10.9,18,28.1,17.7,33.2,3.6,2.3,6.6,4.8,8.7,7.6,3.4,4.6,4.2,10.6,4.3,14.7.3,13.9-9.1,21.3-14.4,24.4.2,1.4.5,2.8.6,4.2,8.7.1,17,1,23.5,2,22.5,3.2,44,9.5,63.9,18.8,1.9.9,3.7,1.9,5.6,2.8,6.6,3.5,12.4,6.5,18.5,4.6,4-1.2,7.1-4.3,8.5-8.4,1.5-4.3.8-9.1-1.8-12.7-2.2-3.1-5.8-5.9-11-8.5-3.3-1.7-6.8-3-10.5-4.4l-3.4-1.3c-4.1-1.6-9.6-3.7-15.2-5.3-3.1-.9-4.9-4.1-4-7.2.9-3.1,4.1-4.9,7.2-4,1.3.4,2.6.8,3.8,1.2-11.2-19.1-30.4-32.9-53.7-35.8-3.5-.4-7-.6-10.5-.5-3.2.2-5.8-2.5-5.9-5.7,0-3.2,2.5-5.8,5.7-5.9,4.1,0,8.2.1,12.2.6,6.8.8,13.2,2.6,19.3,4.9-30.9-56.2-86.4-99.7-155.6-114.5-16.6-3.5-33.4-5.3-49.9-5.3-29.7,0-58.9,5.8-86.3,16.8,1.2,1.3,2.5,2.7,3.7,4,9.2,9.7,16.9,17,24.4,23,14.9,11.7,22.6,30.5,20.3,49.2-3.5,27.2-26.7,47.1-53.5,47.1s-4.6-.1-6.9-.4c-10.5-1.3-20.3-5.7-28.3-12.6-8-5.4-14.7-13.9-20.1-21.4-7.3-10.2-13.8-21.7-19.5-34.7-8.3,8.8-15.8,18.3-22.4,28.3,3.6,4.8,7.4,9.6,11.7,14.2,5.5,5.9,11.8,11.5,17.9,16.8,6.7,5.9,13.6,12,19.8,18.8,12.2,13.6,22.2,31.3,29.6,52.7,1.1,3.2,2.1,6.4,3,9.7.8,3.1-1.1,6.3-4.2,7.1-3.1.8-6.3-1.1-7.1-4.2-.8-3-1.7-5.9-2.7-8.8-6.9-19.9-16.1-36.3-27.2-48.7-5.7-6.3-12-11.9-18.8-17.8-6.3-5.6-12.9-11.3-18.8-17.7-12.1-13.1-21.6-27-28.2-41.2l-.5-1.1c-4.9-10.7-10-21.7-18.3-30.1-1.5-1.5-3.4-2.5-4.9-2.5-9.2,0-12.9,12-15.9,24.3l-.6,2.5c-3.3,13-5.1,27.4-5.6,44.2-.6,20.3,2.9,40.1,10.2,59.1,5.7,14.7,13.5,28.5,23.2,41,1.2,1.5,9.1,10.9,11.5,13.2.7.4,1.3.9,1.8,1.5,2,2.5,1.5,6.2-1,8.2,0,0,0,0,0,0-11.9,9.3-18.8,23-18.8,37.7,0,26.8,22.9,48.6,51.1,48.6s39.2-11.7,47.1-29.8c1.3-3,4.8-4.3,7.7-3,3,1.3,4.3,4.8,3,7.7-9.9,22.4-32.6,36.8-57.9,36.8s-1.9,0-2.8-.1c33.6,48.4,84.4,82,143.3,94.5,121.8,25.9,241.2-47,267.9-162.9ZM2584.1,1027.7c1.1-3,4.5-4.6,7.5-3.4,16,6,28.9-.2,35.6-4.9-20.8-9.2-32.8-25.6-33-25.9-1.9-2.6-1.2-6.3,1.4-8.1,2.6-1.9,6.3-1.3,8.2,1.4.9,1.3,16.3,22.1,42.3,26.4,13.5-11.5,14.5-30.4,14.4-35.8-9-1.7-16.6-6.5-21-10.5-2.4-2.2-2.5-5.9-.3-8.3,2.2-2.4,5.9-2.5,8.3-.4.7.6,17.5,15.5,33.2,3.2,2.5-2,6.2-1.5,8.2,1,2,2.5,1.5,6.2-1,8.2-5.1,4-10.5,6.2-15.6,7,0,6.3-1,22.3-10.7,35.9,7.4-.8,15.3-2.9,23.8-7,2.9-1.4,6.4-.2,7.8,2.7,1.4,2.9.2,6.4-2.7,7.8-12.7,6.2-24.4,8.6-34.9,8.6s-10.5-.7-15.2-1.8c-2.9,2.9-16.1,14.8-35.3,14.8s-11.3-.9-17.5-3.3c-3-1.1-4.6-4.5-3.4-7.5ZM2414.1,932.5c-.8,0-1.5,0-2.3,0-9.9,0-18.2-2.2-25.1-6.3,0,0,0,0,0,0-1.9-.7-11.9-3.8-17.9,8.2-1,2-3.1,3.2-5.2,3.2s-1.8-.2-2.6-.6c-2.9-1.5-4-5-2.6-7.9,4.3-8.6,10.4-12.7,16.3-14.5-9-13.7-7.9-30.1-7.8-30.9.2-3.2,3-5.6,6.3-5.4,3.2.2,5.6,3.1,5.4,6.3,0,.3-1,17,9,27.4,5.9,6.1,14.8,9.1,26.2,8.7,3.3,0,5.9,2.4,6,5.7.1,3.2-2.4,5.9-5.7,6Z"/>
      <path class="cls-13" d="M2446,1103.4c9.3,3.8,18.9,7,28.8,9.7,4.5,1.2,9,2.4,13.7,3.3,17.4,3.7,34.8,5.5,51.9,5.5,24.5,0,48.3-3.8,71-10.7,3.7-1.1,7.3-2.2,10.9-3.5,12.8-4.6,25.2-10.2,36.9-16.8,3.5-1.9,6.9-4,10.3-6.1,50.6-31.8,88.5-82.1,101.6-143.8,1-4.6,1.8-9.2,2.4-13.8,6-7.7,10.7-16.4,13.9-26,.2-.6.4-1.2.6-1.7.1-.4.2-.9.4-1.4.2-.5.3-1.1.5-1.7,1.3.2,2.7.4,4.1.4,2.4,0,4.8-.3,7.4-1.1,7.6-2.4,13.4-8.1,16-15.8,2.6-7.8,1.4-16.5-3.4-23.1-3.3-4.6-8.3-8.6-15.2-12.1-3.9-2-7.8-3.5-11.6-4.9h0c-6.3-15.7-17-29.2-30.8-38.8-8.7-19-20-36.9-33.5-53,4.1-6.1,8.2-12.5,12.2-19.4,12.6-21.6,24-46,33.9-72.5,5.5-14.8,1.8-27.1-9.8-32.2-5.2-2.3-13.4-3.3-23.1,4.6-3.5,2.9-7,5.8-10.5,8.7-6.7,5.6-13.6,11.4-20.6,16.7-19.5,14.8-36.3,26.6-52.2,36.6-14.7-8-30.5-14.6-47.1-19.6-6.6-2-13.2-3.7-20.1-5.2-.1,0-.2,0-.3,0-49.5-10.5-99.8-5.8-145,13-.6.2-1.2.5-1.7.7-4.1-4.7-8.4-9.7-12.7-14.9-7.9-9.6-16.1-20.1-24.9-31.9-5.3-7.1-10.3-14.5-15.2-21.7-2.6-3.8-5.1-7.6-7.7-11.3-4.9-7-10.2-9.7-14.8-10.6-7.8,4.4-15.3,8.8-22.7,13.4-1.5,4.1-2.1,9.1-1.7,14.6,2.2,28.2,6.5,54.8,12.7,79,3.2,12.6,6.8,24.3,10.9,35-9.1,9.2-17.3,19.2-24.6,29.7-2.7-4.5-5.3-9-7.4-13.5l-.5-1.1c-5.4-11.6-10.9-23.6-20.6-33.4-3.7-3.8-8.6-6-13.3-6-19.1,0-24.4,21.6-27.3,33.2l-.6,2.4c-1.8,7-3.2,14.4-4.1,22.3-.5,4.4-.9,8.9-1.3,13.6-.2,3.5-.4,7.1-.5,10.8-.2,6.5.1,13,.7,19.4.4,4.7,1,9.4,1.8,14.1,1.8,10.2,4.6,20.3,8.4,30.1,6.1,15.8,14.5,30.6,24.9,44,.1.2.2.3.3.4.3,6.3.9,12.6,1.7,18.8-7.1,9.9-11.1,21.8-11.1,34.2,0,27.1,18.7,50.1,44.3,57.7,1.5,2.5,3.1,4.9,4.7,7.3,19.8,29.2,45.5,53.3,75.3,71.2,3.3,2,6.6,3.9,10,5.7,7.8,4.2,15.8,7.9,24,11.2ZM2705.3,949.3c-11.1-11.9-26.2-19.4-43.3-21.9,14.5-15.1,23.6-35.4,24.2-57.9.8,0,1.7.1,2.5.2,3.8,9.8,12.7,17.1,23.9,18.2,9.8,1,18.9-3.2,24.8-10.3,10.5,3,20.8,6.7,30.6,11.3,1.7.8,3.4,1.7,5.1,2.6,1.7.9,3.4,1.8,5.2,2.6-9.1,33-39.5,55.9-72.8,55.2ZM2646.6,926.3c-3.8,0-7.7.4-11.7.9-15.6,2.2-31.1,7.2-45.8,14.6-36.4-5.2-64.5-36.5-64.5-74.3s.1-2.6.2-3.9c.9-.6,31-20.7,75.5-23.4,1.8,13.9,13.6,24.8,28,24.8s22.5-7.8,26.5-18.7c6.1,1.8,12.4,4,18.7,6.6.9,4.8,1.5,9.7,1.5,14.7,0,23.8-11.1,45-28.4,58.8ZM2710.7,663.5c7.3-5.5,14.3-11.4,21.1-17,3.5-2.9,6.9-5.8,10.4-8.6,3.4-2.8,6.1-3.6,8-3.6s2.2.3,3,.7c7.1,3.1,5.8,11.1,3.5,17.3-9.7,25.8-20.8,49.6-33.1,70.7-3.3,5.7-6.7,11.1-10.1,16.2-14.8-15.9-31.8-30-50.7-41.7,14.6-9.5,30.2-20.5,47.9-33.9ZM2349.1,616.3c-.5-6.6.5-14.7,8.1-15.7.3,0,.7,0,1.1,0,2.2,0,5.2,1,8.7,6,2.6,3.7,5.1,7.5,7.7,11.2,5,7.3,10.1,14.9,15.5,22.2,18.7,25,34.8,44.4,50.6,61.1,9.5,10.1,17.7,17.7,25.6,24.1h0c11.8,9.3,17.8,23.7,15.9,38.6-2.9,23.1-24.1,39.5-47.2,36.5-8.2-1-15.9-4.5-22.7-10.3-7-4.8-12.9-12.3-17.7-19-14.2-19.7-25.1-45.2-33.4-77.7-6-23.6-10.2-49.5-12.3-77ZM2347.6,1010.5c.9,0,1.9.1,2.8.1,25.3,0,48-14.5,57.9-36.8,1.3-3,0-6.4-3-7.7-2.9-1.3-6.4,0-7.7,3-8,18.1-26.5,29.8-47.1,29.8s-51.1-21.8-51.1-48.6,6.8-28.4,18.8-37.7c0,0,0,0,0,0,2.5-2,3-5.7,1-8.2-.5-.6-1.1-1.2-1.8-1.5-2.4-2.3-10.3-11.7-11.5-13.2-9.7-12.5-17.5-26.3-23.2-41-7.3-18.9-10.7-38.8-10.2-59.1.5-16.8,2.3-31.2,5.6-44.2l.6-2.5c3-12.3,6.7-24.3,15.9-24.3s3.4.9,4.9,2.5c8.2,8.4,13.3,19.4,18.3,30.1l.5,1.1c6.6,14.2,16.1,28.1,28.2,41.2,5.9,6.4,12.4,12.1,18.8,17.7,6.7,5.9,13.1,11.5,18.8,17.8,11.2,12.4,20.3,28.8,27.2,48.7,1,2.9,1.9,5.8,2.7,8.8.8,3.1,4,5,7.1,4.2,3.1-.8,5-4,4.2-7.1-.8-3.3-1.9-6.5-3-9.7-7.4-21.4-17.4-39.1-29.6-52.7-6.1-6.8-13.1-12.9-19.8-18.8-6.1-5.4-12.4-10.9-17.9-16.8-4.3-4.6-8.1-9.4-11.7-14.2,6.6-10,14.1-19.5,22.4-28.3,5.7,13,12.2,24.6,19.5,34.7,5.4,7.5,12.1,16,20.1,21.4,8,6.9,17.8,11.2,28.3,12.6,2.3.3,4.6.4,6.9.4,26.7,0,50-19.9,53.5-47.1,2.4-18.7-5.4-37.5-20.3-49.2-7.5-6-15.3-13.4-24.4-23-1.2-1.3-2.5-2.7-3.7-4,27.3-11,56.5-16.8,86.3-16.8s33.3,1.8,49.9,5.3c69.2,14.7,124.7,58.2,155.6,114.5-6.1-2.3-12.6-4.1-19.3-4.9-4-.5-8.1-.7-12.2-.6-3.2,0-5.7,2.7-5.7,5.9,0,3.2,2.8,5.9,5.9,5.7,3.5,0,7,.1,10.5.5,23.2,2.9,42.5,16.7,53.7,35.8-1.3-.4-2.5-.8-3.8-1.2-3.1-.9-6.3.9-7.2,4-.9,3.1.9,6.3,4,7.2,5.6,1.6,11,3.6,15.2,5.3l3.4,1.3c3.7,1.4,7.2,2.7,10.5,4.4,5.2,2.6,8.8,5.4,11,8.5,2.6,3.6,3.3,8.4,1.8,12.7-1.4,4.1-4.5,7.2-8.5,8.4-6.1,1.9-11.8-1.1-18.5-4.6-1.9-1-3.7-2-5.6-2.8-19.8-9.3-41.3-15.6-63.9-18.8-6.5-.9-14.8-1.9-23.5-2-.2-1.4-.4-2.8-.6-4.2,5.4-3.1,14.7-10.5,14.4-24.4,0-4.2-.9-10.1-4.3-14.7-2.1-2.8-5.2-5.4-8.7-7.6.2-5.1-.4-22.4-17.7-33.2-2.6-1.6-6.1-.8-7.7,1.8-1.6,2.6-.8,6.1,1.8,7.7,8.5,5.3,11.2,12.7,12.1,17.9-6.3-2.5-13.4-4.7-22-6.5-4.6-1-9.4-1.7-14.1-2.2-3.2-.4-6.1,2-6.4,5.2-.3,3.2,2,6.1,5.2,6.4,4.3.5,8.7,1.2,13,2,11.9,2.5,20.8,5.5,28,9.6,3.3,1.8,5.7,3.8,7.3,5.9,1.2,1.6,2,4.6,2,8,.2,7.9-5.5,12.3-8.6,14.1-77.1-32.7-139.8-1-156.5,8.9-5.6-7.2-15.4-27.1,11.1-59.1,2.1-2.5,1.7-6.2-.8-8.2-2.5-2.1-6.2-1.7-8.2.8-14.9,18-21.6,35.2-20.1,51.3,1.1,11.1,5.9,18.9,9.5,23.3-.3,2.7-.4,5.5-.4,8.3,0,38.9,25.8,71.8,61.3,82.6-8.3,5.3-16.2,11.3-23.6,18.2-2.4,2.2-2.5,5.9-.3,8.3,2.2,2.4,5.9,2.5,8.3.3,22.4-20.7,49.9-34.3,77.4-38.1,27.5-3.8,51.9,5.4,65.3,24.7,4.4,6.4,7.6,13.6,9.3,20.7.6,2.7,3,4.6,5.7,4.6s.9,0,1.3-.1c3.2-.7,5.1-3.9,4.4-7-1.7-7.4-4.8-14.7-9-21.5,16.7-1.4,32.4-7.9,45.3-18-26.7,115.9-146,188.9-267.9,162.9-58.9-12.5-109.7-46.1-143.3-94.5Z"/>
      <path class="cls-11" d="M2767.9,888.9c-9.8-4.6-20-8.3-30.6-11.3-5.9,7.1-15,11.2-24.8,10.3-11.2-1.1-20.1-8.4-23.9-18.2-.8,0-1.7-.1-2.5-.2-.5,22.4-9.6,42.8-24.2,57.9,17.2,2.6,32.3,10.1,43.3,21.9,33.3.7,63.7-22.2,72.8-55.2-1.8-.8-3.5-1.7-5.2-2.6-1.7-.9-3.4-1.8-5.1-2.6Z"/>
      <path class="cls-11" d="M2654.8,846.2c-3.9,10.9-14.2,18.7-26.5,18.7s-26.2-10.8-28-24.8c-44.5,2.7-74.6,22.8-75.5,23.4,0,1.3-.2,2.6-.2,3.9,0,37.8,28.1,69.1,64.5,74.3,14.7-7.4,30.2-12.5,45.8-14.6,4-.5,7.9-.8,11.7-.9,17.3-13.8,28.4-35,28.4-58.8s-.5-9.9-1.5-14.7c-6.3-2.6-12.6-4.8-18.7-6.6Z"/>
      <path class="cls-11" d="M2394.9,771c4.8,6.7,10.7,14.2,17.7,19,6.8,5.8,14.5,9.2,22.7,10.3,23.1,2.9,44.3-13.4,47.2-36.5,1.9-14.9-4.1-29.3-15.9-38.6h0c-7.9-6.4-16.1-14.1-25.6-24.2-15.8-16.7-31.9-36.1-50.6-61.1-5.5-7.3-10.6-14.9-15.5-22.2-2.5-3.7-5.1-7.5-7.7-11.2-3.5-5-6.5-6-8.7-6s-.8,0-1.1,0c-7.7,1-8.7,9.1-8.1,15.7,2.2,27.5,6.3,53.4,12.3,77,8.3,32.5,19.2,57.9,33.4,77.7Z"/>
      <path class="cls-13" d="M2587.5,1035.2c6.2,2.3,12.1,3.3,17.5,3.3,19.3,0,32.4-11.9,35.3-14.8,4.8,1.1,9.8,1.8,15.2,1.8,10.5,0,22.2-2.4,34.9-8.6,2.9-1.4,4.1-4.9,2.7-7.8-1.4-2.9-4.9-4.1-7.8-2.7-8.5,4.2-16.5,6.3-23.8,7,9.7-13.6,10.7-29.7,10.7-35.9,5.2-.8,10.5-2.9,15.6-7,2.5-2,3-5.7,1-8.2-2-2.5-5.7-3-8.2-1-15.7,12.3-32.5-2.6-33.2-3.2-2.4-2.2-6.1-2-8.3.4-2.2,2.4-2,6.1.3,8.3,4.3,4,12,8.7,21,10.5,0,5.4-.9,24.3-14.4,35.8-26-4.3-41.4-25.1-42.3-26.4-1.9-2.6-5.5-3.2-8.2-1.4-2.6,1.9-3.3,5.5-1.4,8.1.2.3,12.2,16.7,33,25.9-6.8,4.7-19.6,10.9-35.6,4.9-3-1.1-6.4.4-7.5,3.4-1.1,3,.4,6.4,3.4,7.5Z"/>
      <path class="cls-12" d="M2222.5,763.9c2-.8,3.3-2.6,3.4-4.8l1.5-25.8c.3-5.8,3.5-11.1,8.4-14.1l22.1-13.5c1.8-1.1,2.8-3.1,2.6-5.2-.2-2.2-1.5-3.9-3.5-4.7l-24.1-9.4c-5.4-2.1-9.4-6.7-10.8-12.4l-6-25.2c-.5-2.1-2.1-3.7-4.2-4.1-2.1-.5-4.2.2-5.6,1.9l-16.4,20.1c-3.7,4.5-9.3,6.9-15.1,6.4l-25.8-2.1c-2.2-.2-4.1.8-5.2,2.7-1.1,1.9-1.1,4.1,0,5.9l14,21.8c3.1,4.9,3.7,11,1.4,16.4l-10,23.9c-.8,2-.5,4.2.9,5.8,1.4,1.6,3.5,2.3,5.6,1.7l25-6.6c5.6-1.5,11.6-.1,16,3.7l19.6,16.9c1.7,1.4,3.8,1.7,5.8.9Z"/>
      <path class="cls-8" d="M2208.9,772.1h0c3.3,2.8,7.3,4.3,11.5,4.3s4.7-.5,6.9-1.4c3.6-1.5,6.3-4.2,8.2-7.4,1.4-2.4,2.3-5,2.5-7.9l.4-6.7,1.1-19.1c.1-1.8,1.1-3.5,2.7-4.4l22.1-13.5c5.8-3.5,9-9.9,8.4-16.6-.6-6.7-4.9-12.4-11.2-14.9l-24.1-9.4c-1.7-.7-3-2.1-3.4-3.9l-6-25.2c-1.6-6.6-6.6-11.6-13.2-13.1-6.6-1.5-13.3.8-17.6,6l-16.4,20.1c-1.2,1.4-3,2.2-4.8,2l-25.8-2.1c-6.7-.6-13.1,2.7-16.6,8.5-3.5,5.8-3.4,12.9.3,18.6l14,21.8c1,1.5,1.2,3.5.5,5.2l-10,23.9c-2.6,6.2-1.5,13.3,3,18.4,4.4,5.1,11.3,7.2,17.8,5.5l25-6.6c1.8-.5,3.7,0,5,1.2l3.2,2.7,10.5,9.1,5.9,5.1ZM2181.1,742.4l-25,6.6c-2.1.6-4.2,0-5.6-1.7-1.4-1.6-1.8-3.8-.9-5.8l10-23.9c2.2-5.4,1.7-11.5-1.4-16.4l-14-21.8c-1.2-1.8-1.2-4,0-5.9,1.1-1.9,3.1-2.9,5.2-2.7l25.8,2.1c5.8.5,11.4-1.9,15.1-6.4l16.4-20.1c1.4-1.7,3.5-2.4,5.6-1.9,2.1.5,3.7,2,4.2,4.1l6,25.2c1.3,5.7,5.4,10.3,10.8,12.4l24.1,9.4c2,.8,3.3,2.5,3.5,4.7.2,2.2-.8,4.1-2.6,5.2l-22.1,13.5c-5,3-8.1,8.3-8.4,14.1l-1.5,25.8c-.1,2.2-1.4,4-3.4,4.8-2,.8-4.2.5-5.8-.9l-19.6-16.9c-4.4-3.8-10.4-5.2-16-3.7Z"/>
      <path class="cls-12" d="M2575.5,471.8c3.1,4.9,3.7,11,1.4,16.4l-10,23.9c-.8,2-.5,4.2.9,5.8,1.4,1.6,3.5,2.3,5.6,1.7l25-6.6c5.6-1.5,11.6-.1,16,3.7l19.6,16.9c1.7,1.4,3.8,1.8,5.8.9,2-.8,3.3-2.6,3.4-4.8l1.5-25.8c.3-5.8,3.5-11.1,8.4-14.1l22.1-13.5c1.8-1.1,2.8-3.1,2.6-5.2-.2-2.2-1.5-3.9-3.5-4.7l-24.1-9.4c-5.4-2.1-9.4-6.7-10.8-12.4l-6-25.2c-.5-2.1-2.1-3.7-4.2-4.1-2.1-.5-4.2.2-5.6,1.9l-16.4,20.1c-3.7,4.5-9.3,6.9-15.1,6.4l-25.8-2.1c-2.2-.1-4.1.8-5.2,2.7-1.1,1.9-1.1,4.1,0,5.9l14,21.8Z"/>
      <path class="cls-8" d="M2565.3,478.3c1,1.5,1.2,3.5.5,5.2l-10,23.9c-2.6,6.2-1.5,13.3,3,18.4,4.4,5.1,11.3,7.2,17.8,5.5l25-6.6c1.8-.5,3.7,0,5,1.2l19.6,16.9h0c3.3,2.8,7.3,4.3,11.5,4.3s4.7-.5,6.9-1.4c6.2-2.6,10.3-8.5,10.7-15.2l1.5-25.8c.1-1.8,1.1-3.5,2.7-4.4l22.1-13.5c5.8-3.5,9-9.9,8.4-16.6-.6-6.7-4.9-12.4-11.2-14.9l-24.1-9.4c-1.7-.7-3-2.1-3.4-3.9l-6-25.2c-1.6-6.6-6.6-11.6-13.2-13.1-6.6-1.5-13.3.8-17.6,6l-16.4,20.1c-1.2,1.4-2.9,2.1-4.8,2l-25.8-2.1c-6.7-.6-13.1,2.7-16.6,8.5-3.5,5.8-3.4,12.9.3,18.6l14,21.8ZM2561.4,444.1c1.1-1.9,3.1-2.8,5.2-2.7l25.8,2.1c5.8.5,11.4-1.9,15.1-6.4l16.4-20.1c1.4-1.7,3.5-2.4,5.6-1.9,2.1.5,3.7,2,4.2,4.1l6,25.2c1.3,5.7,5.4,10.3,10.8,12.4l24.1,9.4c2,.8,3.3,2.5,3.5,4.7.2,2.2-.8,4.1-2.6,5.2l-22.1,13.5c-5,3-8.1,8.3-8.4,14.1l-1.5,25.8c-.1,2.2-1.4,4-3.4,4.8-2,.9-4.2.5-5.8-.9l-19.6-16.9c-4.4-3.8-10.4-5.2-16-3.7l-25,6.6c-2.1.6-4.2,0-5.6-1.7-1.4-1.6-1.8-3.8-.9-5.8l10-23.9c2.2-5.4,1.7-11.5-1.4-16.4l-14-21.8c-1.2-1.8-1.2-4,0-5.9Z"/>
      <path class="cls-8" d="M2413.8,920.8c-11.4.4-20.3-2.6-26.2-8.7-10-10.4-9-27.1-9-27.4.2-3.2-2.2-6-5.4-6.3-3.3-.2-6,2.2-6.3,5.4,0,.8-1.2,17.2,7.8,30.9-5.9,1.7-12,5.9-16.3,14.5-1.5,2.9-.3,6.4,2.6,7.9.8.4,1.7.6,2.6.6,2.1,0,4.2-1.2,5.2-3.2,6-12,16-9,17.9-8.2,0,0,0,0,0,0,6.9,4.1,15.2,6.3,25.1,6.3s1.5,0,2.3,0c3.2-.1,5.8-2.8,5.7-6-.1-3.2-2.7-5.7-6-5.7Z"/>
      <path class="cls-11" d="M2430,534.6c2-5,1.9-10.5-.3-15.5-2.2-5-6.1-8.8-11.2-10.8-2.4-.9-4.9-1.4-7.4-1.4s-5.5.6-8.1,1.7c-56,24.3-107.1,54.5-147.7,87.1-8.7,7-10.1,19.8-3.1,28.4,3.7,4.6,9.1,7.3,15,7.5h0c4.8.1,9.6-1.4,13.4-4.4,37.9-30.5,85.8-58.7,138.5-81.6,5-2.2,8.8-6.1,10.8-11.1Z"/>
      <path class="cls-6" d="M2420.3,560c1.4-.6,2.8-1.3,4.2-1.9,3.5-1.5,6.6-3.7,9.3-6.2,3.7-3.4,6.7-7.5,8.6-12.4,3.3-8.4,3.1-17.5-.4-25.8-2.3-5.2-5.9-9.6-10.3-13-2.5-2-5.2-3.7-8.3-4.9-1.9-.7-3.8-1.3-5.8-1.6-6.7-1.3-13.6-.7-20,2.1-57.1,24.8-109.2,55.6-150.8,89-14.5,11.6-16.8,32.9-5.1,47.4,6.1,7.6,15.2,12.2,25,12.5.4,0,.9,0,1.3,0,7.7,0,15.1-2.6,21.1-7.4,15.1-12.2,32-23.9,50.1-35.2,7.4-4.6,14.9-9,22.7-13.4,18.5-10.4,38.1-20.2,58.5-29.3ZM2280.7,627.3c-3.8,3.1-8.6,4.6-13.4,4.4h0c-5.9-.2-11.3-3-15-7.5-7-8.7-5.6-21.5,3.1-28.4,40.7-32.7,91.8-62.8,147.7-87.1,2.6-1.1,5.3-1.7,8.1-1.7s5,.5,7.4,1.4c5,2,9,5.8,11.2,10.8,2.2,5,2.2,10.5.3,15.5-2,5-5.8,9-10.8,11.1-52.7,22.9-100.6,51.1-138.5,81.6Z"/>
      <path class="cls-14" d="M2914.6,1366.5c8.7-45.4-2.9-95.3-32.1-132.7-17.1-21.8-39.8-39.2-65.8-50.4-11.5-4.9-23.4-8.5-35.4-10.6-7.4-1.3-15-1.9-22.6-1.9-37.9,0-77,15.8-108.1,44.3-17.6,16.1-31.9,35.5-42.7,57.5-20.2,41.2-25.2,86.7-14.1,128.1,1.5,5.6,3.3,11.1,5.4,16.3,25.2,3.8,54.2,5.4,84.9,4.1,41.7-34.8,105.8-50,159.7-32.5,9.3,3,18.1,7.1,26.4,11.8l44.5-34.3Z"/>
      <path class="cls-10" d="M2915.5,1474.9c-2.4-9-6.5-17.8-11.8-26l-37,28.5c3,.8,36.1,10.5,48.3,46.1,2.8-7,3.5-12.7,3.5-13.3,1.4-11,.4-22.8-2.9-35.3Z"/>
      <path class="cls-10" d="M3147.5,1252.7l24.6-18.9c8.5,10.6,16.5,20.2,22.4,27,.6.7,1.2,1.5,1.8,2.2l2.4,2.8c2.5,3,5,5.9,7.6,8.9,22.4,25.3,47.1,38.2,73.4,38.2s29.6-4.9,38.2-9l1.4-.7c29.4-14.6,46.5-42.7,60.3-65.2l2.3-3.7c15.3-24.9,32.9-45.8,53.8-63.9,5-4.3,8-10.3,8.4-16.9.5-6.6-1.7-13-6-17.9-8.9-10.3-24.6-11.4-34.9-2.5-24.7,21.5-45.5,46.1-63.4,75.3l-2.3,3.8c-11.6,18.9-23.6,38.4-39.9,46.6l-1,.5c-8,3.8-26.7,12.7-53.2-17.3-1-1.1-1.9-2.3-2.9-3.4l-28.1-35.7,161.2-124.1c5-3.8,8.2-9.4,9-15.6.8-6.2-.9-12.4-4.7-17.4-4.6-6-11.6-9.2-18.7-9.2s-10.1,1.6-14.3,4.9l-161.5,124.4-36.3-46.2c-17.6-28.8-5.9-43.4-.7-49.9,12.4-14.9,34.1-22,55.1-28.9l4.4-1.4c32.5-10.7,61.3-25.3,87.9-44.4,11.1-8,13.6-23.4,5.7-34.5-4.8-6.7-12.4-10.3-20.1-10.3s-10,1.5-14.4,4.6c-22.5,16.1-46.9,28.4-74.6,37.6l-4.2,1.4c-25.1,8.2-56.3,18.5-77.3,43.7l-1,1.2c-15.6,19.4-36.1,60.2,2.7,115.2,4.4,6.2,8.9,12.2,13.5,18.2h0s8.1,10.5,19.1,24.7l-24.1,18.6c-5,3.8-8.2,9.4-9,15.6-.8,6.2.9,12.4,4.7,17.4,7.7,10,23,12,33,4.3Z"/>
    </g>
  </g>
</svg>