<?xml version="1.0" encoding="UTF-8"?>
<svg id="_레이어_1" data-name="레이어 1" xmlns="http://www.w3.org/2000/svg" version="1.1" viewBox="0 0 225 302">
  <defs>
    <style>
      .cls-1 {
        fill: #ffce00;
      }

      .cls-1, .cls-2 {
        stroke: #000;
        stroke-linecap: round;
        stroke-linejoin: round;
        stroke-width: 11.4px;
      }

      .cls-2 {
        fill: #ff7900;
      }
    </style>
  </defs>
  <polygon class="cls-1" points="59.5 30.9 31.8 165.8 111.7 165.8 84.8 291.8 215.3 113.3 123.5 113.3 139.4 30.9 59.5 30.9"/>
  <polygon class="cls-1" points="39.1 7.9 11.4 142.9 91.3 142.9 64.4 268.8 194.9 90.3 103.1 90.3 119 7.9 39.1 7.9"/>
  <polygon class="cls-2" points="103.1 90.3 119 7.9 139.4 30.9 128 90.3 103.1 90.3"/>
  <polygon class="cls-2" points="91.3 142.9 11.4 142.9 31.8 165.8 86.4 165.8 91.3 142.9"/>
  <polygon class="cls-2" points="215.3 113.3 194.9 90.3 64.4 268.8 84.8 291.8 215.3 113.3"/>
</svg>